G04 PROTEUS GERBER X2 FILE*
%TF.GenerationSoftware,Labcenter,Proteus,8.6-SP2-Build23525*%
%TF.CreationDate,2019-05-23T03:36:02+00:00*%
%TF.FileFunction,Soldermask,Bot*%
%TF.FilePolarity,Negative*%
%TF.Part,Single*%
%FSLAX45Y45*%
%MOMM*%
G01*
%TA.AperFunction,Material*%
%ADD23C,1.016000*%
%AMPPAD016*
4,1,36,
-1.016000,1.143000,
1.016000,1.143000,
1.041970,1.140470,
1.065980,1.133200,
1.087580,1.121650,
1.106290,1.106290,
1.121650,1.087570,
1.133200,1.065980,
1.140470,1.041970,
1.143000,1.016000,
1.143000,-1.016000,
1.140470,-1.041970,
1.133200,-1.065980,
1.121650,-1.087570,
1.106290,-1.106290,
1.087580,-1.121650,
1.065980,-1.133200,
1.041970,-1.140470,
1.016000,-1.143000,
-1.016000,-1.143000,
-1.041970,-1.140470,
-1.065980,-1.133200,
-1.087580,-1.121650,
-1.106290,-1.106290,
-1.121650,-1.087570,
-1.133200,-1.065980,
-1.140470,-1.041970,
-1.143000,-1.016000,
-1.143000,1.016000,
-1.140470,1.041970,
-1.133200,1.065980,
-1.121650,1.087570,
-1.106290,1.106290,
-1.087580,1.121650,
-1.065980,1.133200,
-1.041970,1.140470,
-1.016000,1.143000,
0*%
%TA.AperFunction,Material*%
%ADD24PPAD016*%
%AMPPAD017*
4,1,36,
1.270000,-1.397000,
-1.270000,-1.397000,
-1.295970,-1.394470,
-1.319980,-1.387200,
-1.341580,-1.375650,
-1.360290,-1.360290,
-1.375650,-1.341570,
-1.387200,-1.319980,
-1.394470,-1.295970,
-1.397000,-1.270000,
-1.397000,1.270000,
-1.394470,1.295970,
-1.387200,1.319980,
-1.375650,1.341570,
-1.360290,1.360290,
-1.341580,1.375650,
-1.319980,1.387200,
-1.295970,1.394470,
-1.270000,1.397000,
1.270000,1.397000,
1.295970,1.394470,
1.319980,1.387200,
1.341580,1.375650,
1.360290,1.360290,
1.375650,1.341570,
1.387200,1.319980,
1.394470,1.295970,
1.397000,1.270000,
1.397000,-1.270000,
1.394470,-1.295970,
1.387200,-1.319980,
1.375650,-1.341570,
1.360290,-1.360290,
1.341580,-1.375650,
1.319980,-1.387200,
1.295970,-1.394470,
1.270000,-1.397000,
0*%
%TA.AperFunction,Material*%
%ADD25PPAD017*%
%ADD26C,2.794000*%
%AMPPAD019*
4,1,36,
-2.540000,-1.092200,
-2.540000,1.092200,
-2.531410,1.180490,
-2.506690,1.262130,
-2.467420,1.335560,
-2.415180,1.399180,
-2.351560,1.451420,
-2.278130,1.490690,
-2.196490,1.515410,
-2.108200,1.524000,
2.108200,1.524000,
2.196490,1.515410,
2.278130,1.490690,
2.351560,1.451420,
2.415180,1.399180,
2.467420,1.335560,
2.506690,1.262130,
2.531410,1.180490,
2.540000,1.092200,
2.540000,-1.092200,
2.531410,-1.180490,
2.506690,-1.262130,
2.467420,-1.335560,
2.415180,-1.399180,
2.351560,-1.451420,
2.278130,-1.490690,
2.196490,-1.515410,
2.108200,-1.524000,
-2.108200,-1.524000,
-2.196490,-1.515410,
-2.278130,-1.490690,
-2.351560,-1.451420,
-2.415180,-1.399180,
-2.467420,-1.335560,
-2.506690,-1.262130,
-2.531410,-1.180490,
-2.540000,-1.092200,
0*%
%TA.AperFunction,Material*%
%ADD27PPAD019*%
%AMPPAD020*
4,1,8,
0.509800,-1.397000,
-0.509800,-1.397000,
-0.889000,-1.017800,
-0.889000,1.017800,
-0.509800,1.397000,
0.509800,1.397000,
0.889000,1.017800,
0.889000,-1.017800,
0.509800,-1.397000,
0*%
%ADD28PPAD020*%
%AMPPAD021*
4,1,36,
-1.143000,-1.016000,
-1.143000,1.016000,
-1.140470,1.041970,
-1.133200,1.065980,
-1.121650,1.087580,
-1.106290,1.106290,
-1.087570,1.121650,
-1.065980,1.133200,
-1.041970,1.140470,
-1.016000,1.143000,
1.016000,1.143000,
1.041970,1.140470,
1.065980,1.133200,
1.087570,1.121650,
1.106290,1.106290,
1.121650,1.087580,
1.133200,1.065980,
1.140470,1.041970,
1.143000,1.016000,
1.143000,-1.016000,
1.140470,-1.041970,
1.133200,-1.065980,
1.121650,-1.087580,
1.106290,-1.106290,
1.087570,-1.121650,
1.065980,-1.133200,
1.041970,-1.140470,
1.016000,-1.143000,
-1.016000,-1.143000,
-1.041970,-1.140470,
-1.065980,-1.133200,
-1.087570,-1.121650,
-1.106290,-1.106290,
-1.121650,-1.087580,
-1.133200,-1.065980,
-1.140470,-1.041970,
-1.143000,-1.016000,
0*%
%TA.AperFunction,Material*%
%ADD29PPAD021*%
%ADD72C,2.032000*%
%TA.AperFunction,Material*%
%ADD30C,4.000000*%
%TA.AperFunction,Profile*%
%ADD20C,0.203200*%
%TD.AperFunction*%
D23*
X-8396000Y-2200000D03*
X-7636000Y-2200000D03*
X-8650000Y-2450000D03*
X-6874000Y-2450000D03*
X-10280000Y+2680000D03*
X-9660000Y+2680000D03*
X-6500000Y+2680000D03*
X-10110000Y+2500000D03*
X-9460000Y+2490000D03*
X-6238000Y+2490000D03*
X-5100000Y+1110000D03*
X-5860000Y+1110000D03*
X-5220000Y-2440000D03*
D24*
X-9540000Y+1370000D03*
X-9286000Y+1370000D03*
X-9032000Y+1370000D03*
X-8778000Y+1370000D03*
X-8524000Y+1370000D03*
X-8270000Y+1370000D03*
X-8016000Y+1370000D03*
X-7762000Y+1370000D03*
X-7508000Y+1370000D03*
X-7254000Y+1370000D03*
X-7000000Y+1370000D03*
X-6746000Y+1370000D03*
X-6492000Y+1370000D03*
X-6238000Y+1370000D03*
X-5984000Y+1370000D03*
X-5994000Y+2900000D03*
X-6248000Y+2900000D03*
X-6502000Y+2900000D03*
X-6756000Y+2900000D03*
X-7010000Y+2900000D03*
X-7264000Y+2900000D03*
X-7518000Y+2900000D03*
X-7772000Y+2900000D03*
X-8026000Y+2900000D03*
X-8280000Y+2900000D03*
X-8534000Y+2900000D03*
X-8788000Y+2900000D03*
X-9042000Y+2900000D03*
X-9296000Y+2900000D03*
X-9550000Y+2900000D03*
X-9414000Y-1950000D03*
X-9160000Y-1950000D03*
X-8906000Y-1950000D03*
X-8652000Y-1950000D03*
X-8398000Y-1950000D03*
X-8144000Y-1950000D03*
X-7890000Y-1950000D03*
X-7636000Y-1950000D03*
X-7382000Y-1950000D03*
X-7128000Y-1950000D03*
X-6874000Y-1950000D03*
X-6620000Y-1950000D03*
X-6366000Y-1950000D03*
X-6112000Y-1950000D03*
X-5858000Y-1950000D03*
X-5858000Y+490000D03*
X-6112000Y+490000D03*
X-6366000Y+490000D03*
X-6620000Y+490000D03*
X-6874000Y+490000D03*
X-7128000Y+490000D03*
X-7382000Y+490000D03*
X-7636000Y+490000D03*
X-7890000Y+490000D03*
X-8144000Y+490000D03*
X-8398000Y+490000D03*
X-8652000Y+490000D03*
X-8906000Y+490000D03*
X-9160000Y+490000D03*
X-9414000Y+490000D03*
D25*
X-5800000Y+3700000D03*
D26*
X-5810000Y+5570000D03*
D25*
X-9830000Y+3710000D03*
D26*
X-9820000Y+5580000D03*
D27*
X-4700000Y+4450000D03*
X-4700000Y+5150000D03*
D28*
X-4350000Y+4820000D03*
D29*
X-4650000Y+3250000D03*
X-4650000Y+3758000D03*
X-4650000Y+2050000D03*
X-4650000Y+2558000D03*
X-4650000Y+850000D03*
X-4650000Y+1358000D03*
X-4650000Y-400000D03*
X-4650000Y+108000D03*
D24*
X-8650000Y-2700000D03*
X-8396000Y-2700000D03*
X-8142000Y-2700000D03*
X-7888000Y-2700000D03*
X-7634000Y-2700000D03*
X-7380000Y-2700000D03*
X-7126000Y-2700000D03*
X-6872000Y-2700000D03*
D72*
X-5400000Y+5062000D03*
X-5400000Y+4300000D03*
D24*
X-5588000Y-2700000D03*
X-5842000Y-2700000D03*
X-6096000Y-2700000D03*
X-6350000Y-2700000D03*
X-9750000Y-2650000D03*
X-9242000Y-2650000D03*
D72*
X-4650000Y-1500000D03*
X-4650000Y-1250000D03*
X-4650000Y-2500000D03*
X-4650000Y-2250000D03*
D30*
X-10120000Y+5910000D03*
X-3940000Y+5910000D03*
X-10130000Y-3150000D03*
X-3940000Y-3150000D03*
D20*
X-10400000Y-3430000D02*
X-3650000Y-3430000D01*
X-3650000Y+6180000D01*
X-10400000Y+6180000D01*
X-10400000Y-3430000D01*
M02*
