G04 PROTEUS GERBER X2 FILE*
%TF.GenerationSoftware,Labcenter,Proteus,8.6-SP2-Build23525*%
%TF.CreationDate,2019-05-23T03:36:02+00:00*%
%TF.FileFunction,Copper,L1,Top*%
%TF.FilePolarity,Positive*%
%TF.Part,Single*%
%FSLAX45Y45*%
%MOMM*%
G01*
%TA.AperFunction,Conductor*%
%ADD10C,1.270000*%
%ADD11C,0.762000*%
%TA.AperFunction,ViaPad*%
%ADD12C,0.762000*%
%TA.AperFunction,Conductor*%
%ADD13C,0.508000*%
%TA.AperFunction,ComponentPad*%
%ADD14R,2.032000X2.032000*%
%TA.AperFunction,ComponentPad*%
%ADD15R,2.540000X2.540000*%
%ADD16C,2.540000*%
%AMPPAD007*
4,1,36,
-2.413000,-1.092200,
-2.413000,1.092200,
-2.406940,1.154520,
-2.389490,1.212160,
-2.361770,1.263980,
-2.324890,1.308890,
-2.279980,1.345760,
-2.228160,1.373480,
-2.170520,1.390930,
-2.108200,1.397000,
2.108200,1.397000,
2.170520,1.390930,
2.228160,1.373480,
2.279980,1.345760,
2.324890,1.308890,
2.361770,1.263980,
2.389490,1.212160,
2.406940,1.154520,
2.413000,1.092200,
2.413000,-1.092200,
2.406940,-1.154520,
2.389490,-1.212160,
2.361770,-1.263980,
2.324890,-1.308890,
2.279980,-1.345760,
2.228160,-1.373480,
2.170520,-1.390930,
2.108200,-1.397000,
-2.108200,-1.397000,
-2.170520,-1.390930,
-2.228160,-1.373480,
-2.279980,-1.345760,
-2.324890,-1.308890,
-2.361770,-1.263980,
-2.389490,-1.212160,
-2.406940,-1.154520,
-2.413000,-1.092200,
0*%
%TA.AperFunction,ComponentPad*%
%ADD17PPAD007*%
%AMDIL008*
4,1,8,
-0.762000,0.965200,-0.457200,1.270000,0.457200,1.270000,0.762000,0.965200,0.762000,-0.965200,
0.457200,-1.270000,-0.457200,-1.270000,-0.762000,-0.965200,-0.762000,0.965200,
0*%
%ADD18DIL008*%
%TA.AperFunction,ComponentPad*%
%ADD19C,1.778000*%
%TA.AperFunction,SMDPad,CuDef*%
%ADD70R,1.016000X1.270000*%
%TA.AperFunction,OtherPad,Unknown*%
%ADD71C,4.000000*%
%TA.AperFunction,Profile*%
%ADD20C,0.203200*%
%TD.AperFunction*%
G36*
X-4216199Y+6024405D02*
X-4216199Y+5795595D01*
X-4054405Y+5633801D01*
X-3825595Y+5633801D01*
X-3736359Y+5723037D01*
X-3736359Y-2963037D01*
X-3825595Y-2873801D01*
X-4054405Y-2873801D01*
X-4216199Y-3035595D01*
X-4216199Y-3264405D01*
X-4136963Y-3343641D01*
X-9933037Y-3343641D01*
X-9853801Y-3264405D01*
X-9853801Y-3035595D01*
X-10015595Y-2873801D01*
X-10244405Y-2873801D01*
X-10313641Y-2943037D01*
X-10313641Y-2538001D01*
X-10087343Y-2764299D01*
X-9927799Y-2764299D01*
X-9927799Y-2827799D01*
X-9572201Y-2827799D01*
X-9572201Y-2554299D01*
X-9419799Y-2554299D01*
X-9419799Y-2827799D01*
X-9064201Y-2827799D01*
X-9064201Y-2472201D01*
X-9133332Y-2472201D01*
X-9150400Y-2436814D01*
X-9290086Y-2325701D01*
X-9882657Y-2325701D01*
X-9995701Y-2212657D01*
X-9995701Y+590625D01*
X-9817411Y+376678D01*
X-9761093Y+350301D01*
X-9591799Y+350301D01*
X-9591799Y+312201D01*
X-9528299Y+312201D01*
X-9528299Y-493343D01*
X-9317344Y-704298D01*
X-5394460Y-704298D01*
X-5344298Y-750280D01*
X-5344298Y-1727344D01*
X-5271642Y-1800000D01*
X-5334299Y-1862657D01*
X-5334299Y-2677343D01*
X-5117344Y-2894298D01*
X-4900359Y-2894298D01*
X-4900359Y-2919699D01*
X-4433001Y-2919699D01*
X-4433001Y-2640301D01*
X-4445701Y-2640301D01*
X-4445701Y-2542657D01*
X-4484901Y-2503457D01*
X-4484901Y-2431614D01*
X-4541515Y-2375000D01*
X-4484901Y-2318386D01*
X-4484901Y-2181614D01*
X-4581614Y-2084901D01*
X-4718386Y-2084901D01*
X-4815099Y-2181614D01*
X-4815099Y-2318386D01*
X-4758485Y-2375000D01*
X-4815099Y-2431614D01*
X-4815099Y-2568386D01*
X-4743184Y-2640301D01*
X-4900359Y-2640301D01*
X-4900359Y-2665702D01*
X-5022656Y-2665702D01*
X-5105701Y-2582657D01*
X-5105701Y-1957343D01*
X-5062657Y-1914299D01*
X-4890359Y-1914299D01*
X-4890359Y-1939699D01*
X-4423001Y-1939699D01*
X-4423001Y-1660301D01*
X-4435701Y-1660301D01*
X-4435701Y-1552657D01*
X-4484901Y-1503457D01*
X-4484901Y-1431614D01*
X-4541515Y-1375000D01*
X-4530813Y-1364298D01*
X-4343016Y-1364298D01*
X-4294750Y-1340165D01*
X-4165701Y-1168098D01*
X-4165701Y-264976D01*
X-4186614Y-219505D01*
X-4377719Y-55701D01*
X-4472201Y-55701D01*
X-4472201Y+285799D01*
X-4827799Y+285799D01*
X-4827799Y-55701D01*
X-4842657Y-55701D01*
X-4855701Y-42657D01*
X-4855701Y+282657D01*
X-4842656Y+295702D01*
X-4352656Y+295702D01*
X-4185701Y+462657D01*
X-4185701Y+997343D01*
X-4412657Y+1224299D01*
X-4472201Y+1224299D01*
X-4472201Y+1535799D01*
X-4827799Y+1535799D01*
X-4827799Y+1224299D01*
X-5147344Y+1224299D01*
X-5214299Y+1157344D01*
X-5214299Y+1062656D01*
X-5147344Y+995701D01*
X-4827799Y+995701D01*
X-4827799Y+964299D01*
X-5202657Y+964299D01*
X-5285701Y+1047343D01*
X-5285701Y+1475024D01*
X-5306614Y+1520495D01*
X-5824386Y+1964299D01*
X-7863343Y+1964299D01*
X-8130298Y+1697344D01*
X-8130298Y+1547799D01*
X-8135701Y+1547799D01*
X-8135701Y+1852657D01*
X-8002657Y+1985701D01*
X-4827799Y+1985701D01*
X-4827799Y+1872201D01*
X-4472201Y+1872201D01*
X-4472201Y+2227799D01*
X-4827799Y+2227799D01*
X-4827799Y+2214299D01*
X-5774059Y+2214299D01*
X-5285701Y+2702657D01*
X-5285701Y+3102657D01*
X-5252657Y+3135701D01*
X-4827799Y+3135701D01*
X-4827799Y+3072201D01*
X-4472201Y+3072201D01*
X-4472201Y+3427799D01*
X-4827799Y+3427799D01*
X-4827799Y+3364299D01*
X-5347343Y+3364299D01*
X-5514299Y+3197343D01*
X-5514299Y+2797343D01*
X-5897343Y+2414299D01*
X-6152058Y+2414299D01*
X-6123701Y+2442656D01*
X-6123701Y+2537344D01*
X-6190656Y+2604299D01*
X-6414058Y+2604299D01*
X-6385701Y+2632656D01*
X-6385701Y+2722201D01*
X-5816201Y+2722201D01*
X-5816201Y+3077799D01*
X-9410301Y+3077799D01*
X-9410301Y+3487865D01*
X-9626801Y+3704365D01*
X-9626801Y+3913199D01*
X-10033199Y+3913199D01*
X-10033199Y+3506801D01*
X-9824365Y+3506801D01*
X-9689699Y+3372135D01*
X-9689699Y+3077799D01*
X-9727799Y+3077799D01*
X-9727799Y+3039699D01*
X-9771307Y+3039699D01*
X-9827933Y+3012976D01*
X-10019699Y+2780117D01*
X-10019699Y+2571342D01*
X-10062656Y+2614299D01*
X-10157344Y+2614299D01*
X-10165232Y+2606411D01*
X-10165701Y+2727344D01*
X-10232656Y+2794299D01*
X-10313641Y+2794299D01*
X-10313641Y+5713037D01*
X-10234405Y+5633801D01*
X-10023199Y+5633801D01*
X-10023199Y+5495832D01*
X-9904168Y+5376801D01*
X-9735832Y+5376801D01*
X-9616801Y+5495832D01*
X-9616801Y+5664168D01*
X-9735832Y+5783199D01*
X-9856197Y+5783199D01*
X-9843801Y+5795595D01*
X-9843801Y+6024405D01*
X-9913037Y+6093641D01*
X-4146963Y+6093641D01*
X-4216199Y+6024405D01*
G37*
%LPC*%
G36*
X-5680201Y-2127799D02*
X-5960559Y-2127799D01*
X-5952657Y-2135701D01*
X-5640657Y-2135701D01*
X-5473701Y-2302657D01*
X-5473701Y-2522201D01*
X-5410201Y-2522201D01*
X-5410201Y-2877799D01*
X-6527799Y-2877799D01*
X-6527799Y-2522201D01*
X-5981441Y-2522201D01*
X-5989343Y-2514299D01*
X-6297343Y-2514299D01*
X-6480299Y-2331343D01*
X-6480299Y-2127799D01*
X-6759701Y-2127799D01*
X-6759701Y-2497344D01*
X-6784558Y-2522201D01*
X-6694201Y-2522201D01*
X-6694201Y-2877799D01*
X-8827799Y-2877799D01*
X-8827799Y-2522201D01*
X-8764299Y-2522201D01*
X-8764299Y-2402656D01*
X-8697344Y-2335701D01*
X-8602656Y-2335701D01*
X-8535701Y-2402656D01*
X-8535701Y-2522201D01*
X-8510299Y-2522201D01*
X-8510299Y-2152656D01*
X-8485442Y-2127799D01*
X-9591799Y-2127799D01*
X-9591799Y-1772201D01*
X-5680201Y-1772201D01*
X-5680201Y-2127799D01*
G37*
G36*
X-4382501Y+5023199D02*
X-4197601Y+5023199D01*
X-4197601Y+4616801D01*
X-4382501Y+4616801D01*
X-4382501Y+4234101D01*
X-5017499Y+4234101D01*
X-5017499Y+4310301D01*
X-5234901Y+4310301D01*
X-5234901Y+4231614D01*
X-5331614Y+4134901D01*
X-5468386Y+4134901D01*
X-5493786Y+4160301D01*
X-5592135Y+4160301D01*
X-5660301Y+4092135D01*
X-5660301Y+3903199D01*
X-5596801Y+3903199D01*
X-5596801Y+3496801D01*
X-6003199Y+3496801D01*
X-6003199Y+3903199D01*
X-5939699Y+3903199D01*
X-5939699Y+4207865D01*
X-5707865Y+4439699D01*
X-5493786Y+4439699D01*
X-5468386Y+4465099D01*
X-5412663Y+4465099D01*
X-5539699Y+4592135D01*
X-5539699Y+4968214D01*
X-5565099Y+4993614D01*
X-5565099Y+5130386D01*
X-5468386Y+5227099D01*
X-5331614Y+5227099D01*
X-5234901Y+5130386D01*
X-5234901Y+4993614D01*
X-5260301Y+4968214D01*
X-5260301Y+4707865D01*
X-5142135Y+4589699D01*
X-5017499Y+4589699D01*
X-5017499Y+4665899D01*
X-4502399Y+4665899D01*
X-4502399Y+4934101D01*
X-5017499Y+4934101D01*
X-5017499Y+5365899D01*
X-4382501Y+5365899D01*
X-4382501Y+5023199D01*
G37*
G36*
X-5606801Y+5654168D02*
X-5606801Y+5485832D01*
X-5725832Y+5366801D01*
X-5894168Y+5366801D01*
X-6013199Y+5485832D01*
X-6013199Y+5654168D01*
X-5894168Y+5773199D01*
X-5725832Y+5773199D01*
X-5606801Y+5654168D01*
G37*
G36*
X-4827799Y+3580201D02*
X-4827799Y+3935799D01*
X-4472201Y+3935799D01*
X-4472201Y+3580201D01*
X-4827799Y+3580201D01*
G37*
G36*
X-4827799Y+2380201D02*
X-4827799Y+2735799D01*
X-4472201Y+2735799D01*
X-4472201Y+2380201D01*
X-4827799Y+2380201D01*
G37*
%LPD*%
G36*
X-7240299Y-2522201D02*
X-7773701Y-2522201D01*
X-7773702Y-2127799D01*
X-7750299Y-2127799D01*
X-7750299Y-2247344D01*
X-7683344Y-2314299D01*
X-7588656Y-2314299D01*
X-7521701Y-2247344D01*
X-7521701Y-2127799D01*
X-7240298Y-2127799D01*
X-7240299Y-2522201D01*
G37*
G36*
X-9707344Y+2565701D02*
X-9545942Y+2565701D01*
X-9574299Y+2537344D01*
X-9574299Y+2442656D01*
X-9507344Y+2375701D01*
X-8485718Y+2375701D01*
X-8638299Y+2191126D01*
X-8638299Y+1547799D01*
X-9717799Y+1547799D01*
X-9717799Y+1192201D01*
X-9006081Y+1192201D01*
X-9100939Y+1097343D01*
X-9100939Y+1089699D01*
X-9326999Y+1089699D01*
X-9326999Y+1064299D01*
X-9347343Y+1064299D01*
X-9528299Y+883343D01*
X-9528299Y+667799D01*
X-9591799Y+667799D01*
X-9591799Y+629699D01*
X-9664569Y+629699D01*
X-9740301Y+720577D01*
X-9740301Y+2598658D01*
X-9707344Y+2565701D01*
G37*
G36*
X-5664299Y+1252657D02*
X-5664299Y-297343D01*
X-5485940Y-475702D01*
X-9222656Y-475702D01*
X-9299701Y-398657D01*
X-9299701Y+312201D01*
X-5680201Y+312201D01*
X-5680201Y+667799D01*
X-7507199Y+667799D01*
X-7422341Y+752657D01*
X-7422341Y+810301D01*
X-7409641Y+810301D01*
X-7409641Y+995701D01*
X-5812656Y+995701D01*
X-5745701Y+1062656D01*
X-5745701Y+1157344D01*
X-5806201Y+1217844D01*
X-5806201Y+1394559D01*
X-5664299Y+1252657D01*
G37*
D10*
X-4700000Y+5150000D02*
X-4700000Y+5400000D01*
X-4900000Y+5600000D01*
X-5683000Y+5600000D01*
X-5810000Y+5570000D01*
X-4700000Y+4450000D02*
X-5200000Y+4450000D01*
X-5400000Y+4650000D01*
X-5400000Y+5062000D01*
X-5400000Y+4300000D02*
X-5650000Y+4300000D01*
X-5800000Y+4150000D01*
X-5800000Y+3827000D01*
X-5800000Y+3700000D01*
X-9830000Y+3710000D02*
X-9550000Y+3430000D01*
X-9550000Y+2900000D01*
X-9820000Y+5580000D02*
X-9350000Y+5110000D01*
X-9296000Y+5056000D01*
X-9296000Y+2900000D01*
D11*
X-9200000Y+950000D02*
X-9300000Y+950000D01*
X-9414000Y+836000D01*
X-9414000Y+490000D01*
X-8986640Y+950000D02*
X-8986640Y+1050000D01*
X-8936640Y+1100000D01*
X-8900000Y+1136640D01*
X-8650000Y+1136640D01*
X-8600000Y+1136640D01*
X-8524000Y+1212640D01*
X-8524000Y+1370000D01*
X-8500000Y+950000D02*
X-8270000Y+1180000D01*
X-8270000Y+1370000D01*
X-8000000Y+950000D02*
X-8000000Y+1268400D01*
X-8016000Y+1370000D01*
X-7750000Y+950000D02*
X-7750000Y+1268400D01*
X-7762000Y+1370000D01*
X-4100000Y+3850000D02*
X-4200000Y+3750000D01*
X-4548400Y+3750000D01*
X-4650000Y+3758000D01*
X-4650000Y+2558000D02*
X-4200000Y+2558000D01*
X-4100000Y+2658000D01*
X-4650000Y+1358000D02*
X-4200000Y+1358000D01*
X-4100000Y+1458000D01*
X-8142000Y-2700000D02*
X-8142000Y-2051600D01*
X-8144000Y-1950000D01*
X-7888000Y-2700000D02*
X-7888000Y-2051600D01*
X-7890000Y-1950000D01*
X-7380000Y-2700000D02*
X-7380000Y-2051600D01*
X-7382000Y-1950000D01*
X-7126000Y-2700000D02*
X-7126000Y-2051600D01*
X-7128000Y-1950000D01*
X-5842000Y-2700000D02*
X-5842000Y-2500000D01*
X-5942000Y-2400000D01*
X-6250000Y-2400000D01*
X-6366000Y-2284000D01*
X-6366000Y-1950000D01*
X-5588000Y-2700000D02*
X-5588000Y-2400000D01*
X-5588000Y-2350000D01*
X-5688000Y-2250000D01*
X-6000000Y-2250000D01*
X-6112000Y-2138000D01*
X-6112000Y-1950000D01*
X-7536640Y+950000D02*
X-7536640Y+800000D01*
X-7586640Y+750000D01*
X-8263360Y+750000D01*
X-8650000Y+750000D02*
X-8713360Y+813360D01*
X-8713360Y+950000D01*
X-9200000Y+950000D02*
X-9200000Y+800000D01*
X-9150000Y+750000D01*
X-8650000Y+750000D01*
X-8263360Y+750000D01*
X-8213360Y+800000D01*
X-8213360Y+950000D01*
X-8016000Y+1370000D02*
X-8016000Y+1650000D01*
X-7816000Y+1850000D01*
X-5866667Y+1850000D01*
X-5400000Y+1450000D01*
X-5400000Y+1000000D01*
X-5250000Y+850000D01*
X-4650000Y+850000D01*
X-4650000Y+3250000D02*
X-5300000Y+3250000D01*
X-5400000Y+3150000D01*
X-5400000Y+2750000D01*
X-5850000Y+2300000D01*
X-8400000Y+2300000D01*
X-8524000Y+2150000D01*
X-8524000Y+1370000D01*
X-4650000Y+2050000D02*
X-4700000Y+2100000D01*
X-8050000Y+2100000D01*
X-8250000Y+1900000D01*
X-8250000Y+1471600D01*
X-8270000Y+1370000D01*
X-8396000Y-2700000D02*
X-8396000Y-2200000D01*
X-7636000Y-2200000D02*
X-7636000Y-1950000D01*
X-8650000Y-2700000D02*
X-8650000Y-2450000D01*
X-6874000Y-2450000D02*
X-6874000Y-1950000D01*
X-7126000Y-2700000D02*
X-7024400Y-2680000D01*
X-6973600Y-2680000D01*
X-6872000Y-2700000D01*
D10*
X-9550000Y+2900000D02*
X-9740000Y+2900000D01*
X-9880000Y+2730000D01*
X-9880000Y+670000D01*
X-9730000Y+490000D01*
X-9414000Y+490000D01*
D11*
X-9750000Y-2650000D02*
X-10040000Y-2650000D01*
X-10260000Y-2430000D01*
X-10280000Y+2680000D01*
X-9660000Y+2680000D02*
X-6500000Y+2680000D01*
X-9242000Y-2650000D02*
X-9242000Y-2510000D01*
X-9330000Y-2440000D01*
X-9930000Y-2440000D01*
X-10110000Y-2260000D01*
X-10110000Y+2500000D01*
X-9460000Y+2490000D02*
X-6238000Y+2490000D01*
X-4650000Y-400000D02*
X-5100000Y-400000D01*
X-5250000Y-400000D01*
X-5400000Y-400000D01*
X-5550000Y-250000D01*
X-5550000Y+670000D01*
X-5550000Y+1300000D01*
X-5900000Y+1650000D01*
X-7600000Y+1650000D01*
X-7650000Y+1650000D01*
X-7750000Y+1550000D01*
X-7750000Y+1471600D01*
X-7762000Y+1370000D01*
X-6350000Y-2700000D02*
X-6350000Y-2920000D01*
X-6430000Y-3000000D01*
X-7380000Y-2700000D02*
X-7380000Y-2920000D01*
X-7300000Y-3000000D01*
X-6430000Y-3000000D01*
X-4240000Y-3000000D01*
X-4120000Y-2880000D01*
X-4100000Y-2860000D01*
X-4100000Y+208000D01*
X-4100000Y+1458000D01*
X-4100000Y+2658000D01*
X-4100000Y+3850000D01*
X-4100000Y+5050000D01*
X-4200000Y+5150000D01*
X-4458700Y+5150000D01*
X-4700000Y+5150000D01*
X-4650000Y+108000D02*
X-4200000Y+108000D01*
X-4100000Y+208000D01*
X-4650000Y-1250000D02*
X-4370000Y-1250000D01*
X-4280000Y-1130000D01*
X-4280000Y-290000D01*
X-4420000Y-170000D01*
X-4890000Y-170000D01*
X-4970000Y-90000D01*
X-4970000Y+330000D01*
X-4890000Y+410000D01*
X-4400000Y+410000D01*
X-4300000Y+510000D01*
X-4300000Y+950000D01*
X-4460000Y+1110000D01*
X-5100000Y+1110000D01*
X-5860000Y+1110000D02*
X-7390000Y+1110000D01*
X-7508000Y+1228000D01*
X-7508000Y+1370000D01*
X-9160000Y-1950000D02*
X-9160000Y-1720000D01*
X-9100000Y-1660000D01*
X-7480000Y-1660000D01*
X-7382000Y-1758000D01*
X-7382000Y-1950000D01*
X-4550000Y-1800000D02*
X-4550000Y-1600000D01*
X-4650000Y-1500000D01*
X-4560000Y-2780000D02*
X-4560000Y-2716500D01*
X-4560000Y-2590000D01*
X-4650000Y-2500000D01*
X-4773360Y-2780000D02*
X-5070000Y-2780000D01*
X-5220000Y-2630000D01*
X-5220000Y-2470000D01*
X-5220000Y-2440000D01*
X-4763360Y-1800000D02*
X-4814160Y-1800000D01*
X-5060000Y-1800000D01*
X-5110000Y-1800000D01*
X-5220000Y-1910000D01*
X-5220000Y-2440000D01*
X-5110000Y-1800000D02*
X-5230000Y-1680000D01*
X-5230000Y-700000D01*
X-5350000Y-590000D01*
X-9270000Y-590000D01*
X-9414000Y-446000D01*
X-9414000Y+490000D01*
X-9160000Y+490000D02*
X-9170000Y+388400D01*
X-9170000Y+340000D01*
X-9080000Y+250000D01*
X-8200000Y+250000D01*
X-8130000Y+320000D01*
X-8130000Y+388400D01*
X-8144000Y+490000D01*
D12*
X-8396000Y-2200000D03*
X-7636000Y-2200000D03*
X-8650000Y-2450000D03*
X-6874000Y-2450000D03*
X-10280000Y+2680000D03*
X-9660000Y+2680000D03*
X-6500000Y+2680000D03*
X-10110000Y+2500000D03*
X-9460000Y+2490000D03*
X-6238000Y+2490000D03*
X-5100000Y+1110000D03*
X-5860000Y+1110000D03*
X-5220000Y-2440000D03*
D13*
X-4216199Y+6024405D02*
X-4216199Y+5795595D01*
X-4054405Y+5633801D01*
X-3825595Y+5633801D01*
X-3736359Y+5723037D01*
X-3736359Y-2963037D01*
X-3825595Y-2873801D01*
X-4054405Y-2873801D01*
X-4216199Y-3035595D01*
X-4216199Y-3264405D01*
X-4136963Y-3343641D01*
X-9933037Y-3343641D01*
X-9853801Y-3264405D01*
X-9853801Y-3035595D01*
X-10015595Y-2873801D01*
X-10244405Y-2873801D01*
X-10313641Y-2943037D01*
X-10313641Y-2538001D01*
X-10087343Y-2764299D01*
X-9927799Y-2764299D01*
X-9927799Y-2827799D01*
X-9572201Y-2827799D01*
X-9572201Y-2554299D01*
X-9419799Y-2554299D01*
X-9419799Y-2827799D01*
X-9064201Y-2827799D01*
X-9064201Y-2472201D01*
X-9133332Y-2472201D01*
X-9150400Y-2436814D01*
X-9290086Y-2325701D01*
X-9882657Y-2325701D01*
X-9995701Y-2212657D01*
X-9995701Y+590625D01*
X-9817411Y+376678D01*
X-9761093Y+350301D01*
X-9591799Y+350301D01*
X-9591799Y+312201D01*
X-9528299Y+312201D01*
X-9528299Y-493343D01*
X-9317344Y-704298D01*
X-5394460Y-704298D01*
X-5344298Y-750280D01*
X-5344298Y-1727344D01*
X-5271642Y-1800000D01*
X-5334299Y-1862657D01*
X-5334299Y-2677343D01*
X-5117344Y-2894298D01*
X-4900359Y-2894298D01*
X-4900359Y-2919699D01*
X-4433001Y-2919699D01*
X-4433001Y-2640301D01*
X-4445701Y-2640301D01*
X-4445701Y-2542657D01*
X-4484901Y-2503457D01*
X-4484901Y-2431614D01*
X-4541515Y-2375000D01*
X-4484901Y-2318386D01*
X-4484901Y-2181614D01*
X-4581614Y-2084901D01*
X-4718386Y-2084901D01*
X-4815099Y-2181614D01*
X-4815099Y-2318386D01*
X-4758485Y-2375000D01*
X-4815099Y-2431614D01*
X-4815099Y-2568386D01*
X-4743184Y-2640301D01*
X-4900359Y-2640301D01*
X-4900359Y-2665702D01*
X-5022656Y-2665702D01*
X-5105701Y-2582657D01*
X-5105701Y-1957343D01*
X-5062657Y-1914299D01*
X-4890359Y-1914299D01*
X-4890359Y-1939699D01*
X-4423001Y-1939699D01*
X-4423001Y-1660301D01*
X-4435701Y-1660301D01*
X-4435701Y-1552657D01*
X-4484901Y-1503457D01*
X-4484901Y-1431614D01*
X-4541515Y-1375000D01*
X-4530813Y-1364298D01*
X-4343016Y-1364298D01*
X-4294750Y-1340165D01*
X-4165701Y-1168098D01*
X-4165701Y-264976D01*
X-4186614Y-219505D01*
X-4377719Y-55701D01*
X-4472201Y-55701D01*
X-4472201Y+285799D01*
X-4827799Y+285799D01*
X-4827799Y-55701D01*
X-4842657Y-55701D01*
X-4855701Y-42657D01*
X-4855701Y+282657D01*
X-4842656Y+295702D01*
X-4352656Y+295702D01*
X-4185701Y+462657D01*
X-4185701Y+997343D01*
X-4412657Y+1224299D01*
X-4472201Y+1224299D01*
X-4472201Y+1535799D01*
X-4827799Y+1535799D01*
X-4827799Y+1224299D01*
X-5147344Y+1224299D01*
X-5214299Y+1157344D01*
X-5214299Y+1062656D01*
X-5147344Y+995701D01*
X-4827799Y+995701D01*
X-4827799Y+964299D01*
X-5202657Y+964299D01*
X-5285701Y+1047343D01*
X-5285701Y+1475024D01*
X-5306614Y+1520495D01*
X-5824386Y+1964299D01*
X-7863343Y+1964299D01*
X-8130298Y+1697344D01*
X-8130298Y+1547799D01*
X-8135701Y+1547799D01*
X-8135701Y+1852657D01*
X-8002657Y+1985701D01*
X-4827799Y+1985701D01*
X-4827799Y+1872201D01*
X-4472201Y+1872201D01*
X-4472201Y+2227799D01*
X-4827799Y+2227799D01*
X-4827799Y+2214299D01*
X-5774059Y+2214299D01*
X-5285701Y+2702657D01*
X-5285701Y+3102657D01*
X-5252657Y+3135701D01*
X-4827799Y+3135701D01*
X-4827799Y+3072201D01*
X-4472201Y+3072201D01*
X-4472201Y+3427799D01*
X-4827799Y+3427799D01*
X-4827799Y+3364299D01*
X-5347343Y+3364299D01*
X-5514299Y+3197343D01*
X-5514299Y+2797343D01*
X-5897343Y+2414299D01*
X-6152058Y+2414299D01*
X-6123701Y+2442656D01*
X-6123701Y+2537344D01*
X-6190656Y+2604299D01*
X-6414058Y+2604299D01*
X-6385701Y+2632656D01*
X-6385701Y+2722201D01*
X-5816201Y+2722201D01*
X-5816201Y+3077799D01*
X-9410301Y+3077799D01*
X-9410301Y+3487865D01*
X-9626801Y+3704365D01*
X-9626801Y+3913199D01*
X-10033199Y+3913199D01*
X-10033199Y+3506801D01*
X-9824365Y+3506801D01*
X-9689699Y+3372135D01*
X-9689699Y+3077799D01*
X-9727799Y+3077799D01*
X-9727799Y+3039699D01*
X-9771307Y+3039699D01*
X-9827933Y+3012976D01*
X-10019699Y+2780117D01*
X-10019699Y+2571342D01*
X-10062656Y+2614299D01*
X-10157344Y+2614299D01*
X-10165232Y+2606411D01*
X-10165701Y+2727344D01*
X-10232656Y+2794299D01*
X-10313641Y+2794299D01*
X-10313641Y+5713037D01*
X-10234405Y+5633801D01*
X-10023199Y+5633801D01*
X-10023199Y+5495832D01*
X-9904168Y+5376801D01*
X-9735832Y+5376801D01*
X-9616801Y+5495832D01*
X-9616801Y+5664168D01*
X-9735832Y+5783199D01*
X-9856197Y+5783199D01*
X-9843801Y+5795595D01*
X-9843801Y+6024405D01*
X-9913037Y+6093641D01*
X-4146963Y+6093641D01*
X-4216199Y+6024405D01*
X-5680201Y-2127799D02*
X-5960559Y-2127799D01*
X-5952657Y-2135701D01*
X-5640657Y-2135701D01*
X-5473701Y-2302657D01*
X-5473701Y-2522201D01*
X-5410201Y-2522201D01*
X-5410201Y-2877799D01*
X-6527799Y-2877799D01*
X-6527799Y-2522201D01*
X-5981441Y-2522201D01*
X-5989343Y-2514299D01*
X-6297343Y-2514299D01*
X-6480299Y-2331343D01*
X-6480299Y-2127799D01*
X-6759701Y-2127799D01*
X-6759701Y-2497344D01*
X-6784558Y-2522201D01*
X-6694201Y-2522201D01*
X-6694201Y-2877799D01*
X-8827799Y-2877799D01*
X-8827799Y-2522201D01*
X-8764299Y-2522201D01*
X-8764299Y-2402656D01*
X-8697344Y-2335701D01*
X-8602656Y-2335701D01*
X-8535701Y-2402656D01*
X-8535701Y-2522201D01*
X-8510299Y-2522201D01*
X-8510299Y-2152656D01*
X-8485442Y-2127799D01*
X-9591799Y-2127799D01*
X-9591799Y-1772201D01*
X-5680201Y-1772201D01*
X-5680201Y-2127799D01*
X-4382501Y+5023199D02*
X-4197601Y+5023199D01*
X-4197601Y+4616801D01*
X-4382501Y+4616801D01*
X-4382501Y+4234101D01*
X-5017499Y+4234101D01*
X-5017499Y+4310301D01*
X-5234901Y+4310301D01*
X-5234901Y+4231614D01*
X-5331614Y+4134901D01*
X-5468386Y+4134901D01*
X-5493786Y+4160301D01*
X-5592135Y+4160301D01*
X-5660301Y+4092135D01*
X-5660301Y+3903199D01*
X-5596801Y+3903199D01*
X-5596801Y+3496801D01*
X-6003199Y+3496801D01*
X-6003199Y+3903199D01*
X-5939699Y+3903199D01*
X-5939699Y+4207865D01*
X-5707865Y+4439699D01*
X-5493786Y+4439699D01*
X-5468386Y+4465099D01*
X-5412663Y+4465099D01*
X-5539699Y+4592135D01*
X-5539699Y+4968214D01*
X-5565099Y+4993614D01*
X-5565099Y+5130386D01*
X-5468386Y+5227099D01*
X-5331614Y+5227099D01*
X-5234901Y+5130386D01*
X-5234901Y+4993614D01*
X-5260301Y+4968214D01*
X-5260301Y+4707865D01*
X-5142135Y+4589699D01*
X-5017499Y+4589699D01*
X-5017499Y+4665899D01*
X-4502399Y+4665899D01*
X-4502399Y+4934101D01*
X-5017499Y+4934101D01*
X-5017499Y+5365899D01*
X-4382501Y+5365899D01*
X-4382501Y+5023199D01*
X-5606801Y+5654168D02*
X-5606801Y+5485832D01*
X-5725832Y+5366801D01*
X-5894168Y+5366801D01*
X-6013199Y+5485832D01*
X-6013199Y+5654168D01*
X-5894168Y+5773199D01*
X-5725832Y+5773199D01*
X-5606801Y+5654168D01*
X-4827799Y+3580201D02*
X-4827799Y+3935799D01*
X-4472201Y+3935799D01*
X-4472201Y+3580201D01*
X-4827799Y+3580201D01*
X-4827799Y+2380201D02*
X-4827799Y+2735799D01*
X-4472201Y+2735799D01*
X-4472201Y+2380201D01*
X-4827799Y+2380201D01*
X-9707344Y+2565701D02*
X-9545942Y+2565701D01*
X-9574299Y+2537344D01*
X-9574299Y+2442656D01*
X-9507344Y+2375701D01*
X-8485718Y+2375701D01*
X-8638299Y+2191126D01*
X-8638299Y+1547799D01*
X-9717799Y+1547799D01*
X-9717799Y+1192201D01*
X-9006081Y+1192201D01*
X-9100939Y+1097343D01*
X-9100939Y+1089699D01*
X-9326999Y+1089699D01*
X-9326999Y+1064299D01*
X-9347343Y+1064299D01*
X-9528299Y+883343D01*
X-9528299Y+667799D01*
X-9591799Y+667799D01*
X-9591799Y+629699D01*
X-9664569Y+629699D01*
X-9740301Y+720577D01*
X-9740301Y+2598658D01*
X-9707344Y+2565701D01*
X-5664299Y+1252657D02*
X-5664299Y-297343D01*
X-5485940Y-475702D01*
X-9222656Y-475702D01*
X-9299701Y-398657D01*
X-9299701Y+312201D01*
X-5680201Y+312201D01*
X-5680201Y+667799D01*
X-7507199Y+667799D01*
X-7422341Y+752657D01*
X-7422341Y+810301D01*
X-7409641Y+810301D01*
X-7409641Y+995701D01*
X-5812656Y+995701D01*
X-5745701Y+1062656D01*
X-5745701Y+1157344D01*
X-5806201Y+1217844D01*
X-5806201Y+1394559D01*
X-5664299Y+1252657D01*
X-7240299Y-2522201D02*
X-7773701Y-2522201D01*
X-7773702Y-2127799D01*
X-7750299Y-2127799D01*
X-7750299Y-2247344D01*
X-7683344Y-2314299D01*
X-7588656Y-2314299D01*
X-7521701Y-2247344D01*
X-7521701Y-2127799D01*
X-7240298Y-2127799D01*
X-7240299Y-2522201D01*
X-8778000Y+1547799D02*
X-8778000Y+1370000D01*
X-9296000Y+3077799D02*
X-9296000Y+2900000D01*
X-9160000Y-2127799D02*
X-9160000Y-1950000D01*
X-9160000Y-1772201D02*
X-9160000Y-1950000D01*
X-7382000Y-2127799D02*
X-7382000Y-1950000D01*
X-7382000Y-1772201D02*
X-7382000Y-1950000D01*
X-8144000Y+312201D02*
X-8144000Y+490000D01*
X-9160000Y+312201D02*
X-9160000Y+490000D01*
X-5606801Y+5570000D02*
X-5810000Y+5570000D01*
X-6013199Y+5570000D02*
X-5810000Y+5570000D01*
X-5810000Y+5773199D02*
X-5810000Y+5570000D01*
X-5810000Y+5366801D02*
X-5810000Y+5570000D01*
X-9616801Y+5580000D02*
X-9820000Y+5580000D01*
X-10023199Y+5580000D02*
X-9820000Y+5580000D01*
X-9820000Y+5783199D02*
X-9820000Y+5580000D01*
X-9820000Y+5376801D02*
X-9820000Y+5580000D01*
X-4700000Y+4934101D02*
X-4700000Y+5150000D01*
X-4700000Y+5365899D02*
X-4700000Y+5150000D01*
X-4382501Y+5150000D02*
X-4700000Y+5150000D01*
X-5017499Y+5150000D02*
X-4700000Y+5150000D01*
X-4650000Y+3580201D02*
X-4650000Y+3758000D01*
X-4650000Y+3935799D02*
X-4650000Y+3758000D01*
X-4472201Y+3758000D02*
X-4650000Y+3758000D01*
X-4827799Y+3758000D02*
X-4650000Y+3758000D01*
X-4650000Y+2380201D02*
X-4650000Y+2558000D01*
X-4650000Y+2735799D02*
X-4650000Y+2558000D01*
X-4472201Y+2558000D02*
X-4650000Y+2558000D01*
X-4827799Y+2558000D02*
X-4650000Y+2558000D01*
X-4650000Y+1535799D02*
X-4650000Y+1358000D01*
X-4472201Y+1358000D02*
X-4650000Y+1358000D01*
X-4827799Y+1358000D02*
X-4650000Y+1358000D01*
X-4650000Y+285799D02*
X-4650000Y+108000D01*
X-4472201Y+108000D02*
X-4650000Y+108000D01*
X-4827799Y+108000D02*
X-4650000Y+108000D01*
X-7380000Y-2877799D02*
X-7380000Y-2700000D01*
X-7380000Y-2522201D02*
X-7380000Y-2700000D01*
X-6527799Y-2700000D02*
X-6350000Y-2700000D01*
X-6350000Y-2522201D02*
X-6350000Y-2700000D01*
X-6350000Y-2877799D02*
X-6350000Y-2700000D01*
D14*
X-9540000Y+1370000D03*
X-9286000Y+1370000D03*
X-9032000Y+1370000D03*
X-8778000Y+1370000D03*
X-8524000Y+1370000D03*
X-8270000Y+1370000D03*
X-8016000Y+1370000D03*
X-7762000Y+1370000D03*
X-7508000Y+1370000D03*
X-7254000Y+1370000D03*
X-7000000Y+1370000D03*
X-6746000Y+1370000D03*
X-6492000Y+1370000D03*
X-6238000Y+1370000D03*
X-5984000Y+1370000D03*
X-5994000Y+2900000D03*
X-6248000Y+2900000D03*
X-6502000Y+2900000D03*
X-6756000Y+2900000D03*
X-7010000Y+2900000D03*
X-7264000Y+2900000D03*
X-7518000Y+2900000D03*
X-7772000Y+2900000D03*
X-8026000Y+2900000D03*
X-8280000Y+2900000D03*
X-8534000Y+2900000D03*
X-8788000Y+2900000D03*
X-9042000Y+2900000D03*
X-9296000Y+2900000D03*
X-9550000Y+2900000D03*
X-9414000Y-1950000D03*
X-9160000Y-1950000D03*
X-8906000Y-1950000D03*
X-8652000Y-1950000D03*
X-8398000Y-1950000D03*
X-8144000Y-1950000D03*
X-7890000Y-1950000D03*
X-7636000Y-1950000D03*
X-7382000Y-1950000D03*
X-7128000Y-1950000D03*
X-6874000Y-1950000D03*
X-6620000Y-1950000D03*
X-6366000Y-1950000D03*
X-6112000Y-1950000D03*
X-5858000Y-1950000D03*
X-5858000Y+490000D03*
X-6112000Y+490000D03*
X-6366000Y+490000D03*
X-6620000Y+490000D03*
X-6874000Y+490000D03*
X-7128000Y+490000D03*
X-7382000Y+490000D03*
X-7636000Y+490000D03*
X-7890000Y+490000D03*
X-8144000Y+490000D03*
X-8398000Y+490000D03*
X-8652000Y+490000D03*
X-8906000Y+490000D03*
X-9160000Y+490000D03*
X-9414000Y+490000D03*
D15*
X-5800000Y+3700000D03*
D16*
X-5810000Y+5570000D03*
D15*
X-9830000Y+3710000D03*
D16*
X-9820000Y+5580000D03*
D17*
X-4700000Y+4450000D03*
X-4700000Y+5150000D03*
D18*
X-4350000Y+4820000D03*
D14*
X-4650000Y+3250000D03*
X-4650000Y+3758000D03*
X-4650000Y+2050000D03*
X-4650000Y+2558000D03*
X-4650000Y+850000D03*
X-4650000Y+1358000D03*
X-4650000Y-400000D03*
X-4650000Y+108000D03*
X-8650000Y-2700000D03*
X-8396000Y-2700000D03*
X-8142000Y-2700000D03*
X-7888000Y-2700000D03*
X-7634000Y-2700000D03*
X-7380000Y-2700000D03*
X-7126000Y-2700000D03*
X-6872000Y-2700000D03*
D19*
X-5400000Y+5062000D03*
X-5400000Y+4300000D03*
D14*
X-5588000Y-2700000D03*
X-5842000Y-2700000D03*
X-6096000Y-2700000D03*
X-6350000Y-2700000D03*
X-9750000Y-2650000D03*
X-9242000Y-2650000D03*
D19*
X-4650000Y-1500000D03*
X-4650000Y-1250000D03*
X-4650000Y-2500000D03*
X-4650000Y-2250000D03*
D70*
X-8986640Y+950000D03*
X-9200000Y+950000D03*
X-8500000Y+950000D03*
X-8713360Y+950000D03*
X-8000000Y+950000D03*
X-8213360Y+950000D03*
X-7750000Y+950000D03*
X-7536640Y+950000D03*
X-4550000Y-1800000D03*
X-4763360Y-1800000D03*
X-4560000Y-2780000D03*
X-4773360Y-2780000D03*
D71*
X-10120000Y+5910000D03*
X-3940000Y+5910000D03*
X-10130000Y-3150000D03*
X-3940000Y-3150000D03*
D20*
X-10400000Y-3430000D02*
X-3650000Y-3430000D01*
X-3650000Y+6180000D01*
X-10400000Y+6180000D01*
X-10400000Y-3430000D01*
M02*
