G04 PROTEUS GERBER X2 FILE*
%TF.GenerationSoftware,Labcenter,Proteus,8.6-SP2-Build23525*%
%TF.CreationDate,2019-05-23T03:36:02+00:00*%
%TF.FileFunction,Legend,Top*%
%TF.FilePolarity,Positive*%
%TF.Part,Single*%
%FSLAX45Y45*%
%MOMM*%
G01*
%TA.AperFunction,Material*%
%ADD21C,0.203200*%
%TA.AperFunction,Profile*%
%ADD20C,0.203200*%
%TA.AperFunction,Material*%
%ADD22C,0.063500*%
%TD.AperFunction*%
D21*
X-9990000Y+1150000D02*
X-5540000Y+1150000D01*
X-5540000Y+3120000D01*
X-9990000Y+3120000D01*
X-9990000Y+1150000D01*
X-5550000Y+2500000D02*
X-6060000Y+2500000D01*
X-5550000Y+2070000D02*
X-5830000Y+2070000D01*
X-5550000Y+1830000D02*
X-6060000Y+1830000D01*
X-5550000Y+2240000D02*
X-5830000Y+2240000D01*
X-6030000Y+2350000D02*
X-5910000Y+2350000D01*
X-6040000Y+1950000D02*
X-5910000Y+1950000D01*
X-6040000Y+2150000D02*
X-5810000Y+2150000D01*
X-8386500Y+2130160D02*
X-8386500Y+2282560D01*
X-8215050Y+2130160D01*
X-8215050Y+2282560D01*
X-8157900Y+2130160D02*
X-8157900Y+2231760D01*
X-8100750Y+2282560D01*
X-8043600Y+2282560D01*
X-7986450Y+2231760D01*
X-7986450Y+2130160D01*
X-8157900Y+2180960D02*
X-7986450Y+2180960D01*
X-7929300Y+2130160D02*
X-7929300Y+2282560D01*
X-7757850Y+2130160D01*
X-7757850Y+2282560D01*
X-7700700Y+2231760D02*
X-7643550Y+2282560D01*
X-7586400Y+2282560D01*
X-7529250Y+2231760D01*
X-7529250Y+2180960D01*
X-7586400Y+2130160D01*
X-7643550Y+2130160D01*
X-7700700Y+2180960D01*
X-7700700Y+2231760D01*
X-7414950Y+2231760D02*
X-7357800Y+2282560D01*
X-7357800Y+2130160D01*
D20*
X-10400000Y-3430000D02*
X-3650000Y-3430000D01*
X-3650000Y+6180000D01*
X-10400000Y+6180000D01*
X-10400000Y-3430000D01*
D21*
X-10034000Y-2210000D02*
X-5284000Y-2210000D01*
X-5284000Y+730000D01*
X-10034000Y+730000D01*
X-10034000Y-2210000D01*
X-10034000Y-440000D02*
X-9304000Y-440000D01*
X-10044000Y-660000D02*
X-9304000Y-660000D01*
X-10024000Y-870000D02*
X-9314000Y-870000D01*
X-10014000Y-1050000D02*
X-9314000Y-1050000D01*
X-7504000Y-60000D02*
X-5534000Y-60000D01*
X-7514000Y-60000D02*
X-7514000Y-1460000D01*
X-5504000Y-1460000D01*
X-5524000Y-60000D01*
X-5704000Y-1290000D02*
X-5704000Y-1080000D01*
X-6094000Y-1080000D01*
X-6094000Y-870000D01*
X-5714000Y-870000D01*
X-5704000Y-870000D02*
X-5704000Y-680000D01*
X-6104000Y-680000D01*
X-6104000Y-490000D01*
X-5694000Y-490000D01*
X-5704000Y-480000D02*
X-5704000Y-290000D01*
X-5714000Y-280000D02*
X-6304000Y-270000D01*
X-6304000Y-280000D02*
X-6304000Y-1150000D01*
D22*
X-6868280Y-1254760D02*
X-6868280Y-1198880D01*
X-6868280Y-1163320D02*
X-6868280Y-1132840D01*
X-6868280Y-1097280D02*
X-6868280Y-1056640D01*
X-6868280Y-1000760D02*
X-6868280Y-970280D01*
X-6868280Y-919480D02*
X-6868280Y-889000D01*
X-6868280Y-822960D02*
X-6868280Y-797560D01*
X-6868280Y-741680D02*
X-6868280Y-716280D01*
X-6868280Y-685800D02*
X-6868280Y-670560D01*
X-6868280Y-594360D02*
X-6868280Y-579120D01*
X-6868280Y-523240D02*
X-6868280Y-487680D01*
X-6868280Y-436880D02*
X-6868280Y-386080D01*
X-6863200Y-1254760D02*
X-6863200Y-1198880D01*
X-6863200Y-1173480D02*
X-6863200Y-1127760D01*
X-6863200Y-1097280D02*
X-6863200Y-1046480D01*
X-6863200Y-1005840D02*
X-6863200Y-960120D01*
X-6863200Y-929640D02*
X-6863200Y-883920D01*
X-6863200Y-833120D02*
X-6863200Y-792480D01*
X-6863200Y-751840D02*
X-6863200Y-711200D01*
X-6863200Y-685800D02*
X-6863200Y-665480D01*
X-6863200Y-599440D02*
X-6863200Y-579120D01*
X-6863200Y-538480D02*
X-6863200Y-477520D01*
X-6863200Y-436880D02*
X-6863200Y-375920D01*
X-6858120Y-1254760D02*
X-6858120Y-1244600D01*
X-6858120Y-1178560D02*
X-6858120Y-1163320D01*
X-6858120Y-1132840D02*
X-6858120Y-1127760D01*
X-6858120Y-1097280D02*
X-6858120Y-1087120D01*
X-6858120Y-1056640D02*
X-6858120Y-1041400D01*
X-6858120Y-1010920D02*
X-6858120Y-995680D01*
X-6858120Y-975360D02*
X-6858120Y-960120D01*
X-6858120Y-934720D02*
X-6858120Y-919480D01*
X-6858120Y-894080D02*
X-6858120Y-878840D01*
X-6858120Y-838200D02*
X-6858120Y-822960D01*
X-6858120Y-797560D02*
X-6858120Y-792480D01*
X-6858120Y-756920D02*
X-6858120Y-741680D01*
X-6858120Y-716280D02*
X-6858120Y-711200D01*
X-6858120Y-685800D02*
X-6858120Y-665480D01*
X-6858120Y-599440D02*
X-6858120Y-579120D01*
X-6858120Y-543560D02*
X-6858120Y-523240D01*
X-6858120Y-492760D02*
X-6858120Y-472440D01*
X-6858120Y-436880D02*
X-6858120Y-426720D01*
X-6858120Y-391160D02*
X-6858120Y-370840D01*
X-6853040Y-1254760D02*
X-6853040Y-1244600D01*
X-6853040Y-1183640D02*
X-6853040Y-1168400D01*
X-6853040Y-1097280D02*
X-6853040Y-1087120D01*
X-6853040Y-1051560D02*
X-6853040Y-1036320D01*
X-6853040Y-1016000D02*
X-6853040Y-1000760D01*
X-6853040Y-965200D02*
X-6853040Y-955040D01*
X-6853040Y-934720D02*
X-6853040Y-929640D01*
X-6853040Y-889000D02*
X-6853040Y-873760D01*
X-6853040Y-843280D02*
X-6853040Y-833120D01*
X-6853040Y-762000D02*
X-6853040Y-751840D01*
X-6853040Y-685800D02*
X-6853040Y-660400D01*
X-6853040Y-604520D02*
X-6853040Y-579120D01*
X-6853040Y-548640D02*
X-6853040Y-533400D01*
X-6853040Y-482600D02*
X-6853040Y-467360D01*
X-6853040Y-436880D02*
X-6853040Y-426720D01*
X-6853040Y-381000D02*
X-6853040Y-365760D01*
X-6847960Y-1254760D02*
X-6847960Y-1244600D01*
X-6847960Y-1183640D02*
X-6847960Y-1173480D01*
X-6847960Y-1097280D02*
X-6847960Y-1087120D01*
X-6847960Y-1046480D02*
X-6847960Y-1036320D01*
X-6847960Y-1016000D02*
X-6847960Y-1005840D01*
X-6847960Y-965200D02*
X-6847960Y-955040D01*
X-6847960Y-883920D02*
X-6847960Y-873760D01*
X-6847960Y-843280D02*
X-6847960Y-833120D01*
X-6847960Y-762000D02*
X-6847960Y-751840D01*
X-6847960Y-685800D02*
X-6847960Y-660400D01*
X-6847960Y-604520D02*
X-6847960Y-579120D01*
X-6847960Y-548640D02*
X-6847960Y-538480D01*
X-6847960Y-477520D02*
X-6847960Y-462280D01*
X-6847960Y-436880D02*
X-6847960Y-426720D01*
X-6847960Y-375920D02*
X-6847960Y-360680D01*
X-6842880Y-1254760D02*
X-6842880Y-1244600D01*
X-6842880Y-1183640D02*
X-6842880Y-1173480D01*
X-6842880Y-1097280D02*
X-6842880Y-1087120D01*
X-6842880Y-1046480D02*
X-6842880Y-1036320D01*
X-6842880Y-1016000D02*
X-6842880Y-1005840D01*
X-6842880Y-965200D02*
X-6842880Y-955040D01*
X-6842880Y-883920D02*
X-6842880Y-873760D01*
X-6842880Y-848360D02*
X-6842880Y-838200D01*
X-6842880Y-767080D02*
X-6842880Y-756920D01*
X-6842880Y-685800D02*
X-6842880Y-675640D01*
X-6842880Y-670560D02*
X-6842880Y-660400D01*
X-6842880Y-604520D02*
X-6842880Y-594360D01*
X-6842880Y-589280D02*
X-6842880Y-579120D01*
X-6842880Y-553720D02*
X-6842880Y-543560D01*
X-6842880Y-472440D02*
X-6842880Y-462280D01*
X-6842880Y-436880D02*
X-6842880Y-426720D01*
X-6842880Y-370840D02*
X-6842880Y-360680D01*
X-6837800Y-1254760D02*
X-6837800Y-1244600D01*
X-6837800Y-1183640D02*
X-6837800Y-1173480D01*
X-6837800Y-1097280D02*
X-6837800Y-1087120D01*
X-6837800Y-1046480D02*
X-6837800Y-1036320D01*
X-6837800Y-1016000D02*
X-6837800Y-1005840D01*
X-6837800Y-965200D02*
X-6837800Y-955040D01*
X-6837800Y-883920D02*
X-6837800Y-873760D01*
X-6837800Y-848360D02*
X-6837800Y-838200D01*
X-6837800Y-767080D02*
X-6837800Y-756920D01*
X-6837800Y-685800D02*
X-6837800Y-675640D01*
X-6837800Y-670560D02*
X-6837800Y-655320D01*
X-6837800Y-609600D02*
X-6837800Y-594360D01*
X-6837800Y-589280D02*
X-6837800Y-579120D01*
X-6837800Y-553720D02*
X-6837800Y-543560D01*
X-6837800Y-472440D02*
X-6837800Y-462280D01*
X-6837800Y-436880D02*
X-6837800Y-426720D01*
X-6837800Y-370840D02*
X-6837800Y-355600D01*
X-6832720Y-1254760D02*
X-6832720Y-1244600D01*
X-6832720Y-1183640D02*
X-6832720Y-1168400D01*
X-6832720Y-1097280D02*
X-6832720Y-1087120D01*
X-6832720Y-1046480D02*
X-6832720Y-1036320D01*
X-6832720Y-1010920D02*
X-6832720Y-1000760D01*
X-6832720Y-970280D02*
X-6832720Y-960120D01*
X-6832720Y-883920D02*
X-6832720Y-873760D01*
X-6832720Y-853440D02*
X-6832720Y-843280D01*
X-6832720Y-772160D02*
X-6832720Y-762000D01*
X-6832720Y-685800D02*
X-6832720Y-675640D01*
X-6832720Y-665480D02*
X-6832720Y-655320D01*
X-6832720Y-609600D02*
X-6832720Y-599440D01*
X-6832720Y-589280D02*
X-6832720Y-579120D01*
X-6832720Y-558800D02*
X-6832720Y-548640D01*
X-6832720Y-467360D02*
X-6832720Y-457200D01*
X-6832720Y-436880D02*
X-6832720Y-426720D01*
X-6832720Y-365760D02*
X-6832720Y-355600D01*
X-6827640Y-1254760D02*
X-6827640Y-1244600D01*
X-6827640Y-1178560D02*
X-6827640Y-1158240D01*
X-6827640Y-1097280D02*
X-6827640Y-1087120D01*
X-6827640Y-1046480D02*
X-6827640Y-1036320D01*
X-6827640Y-1005840D02*
X-6827640Y-995680D01*
X-6827640Y-980440D02*
X-6827640Y-965200D01*
X-6827640Y-889000D02*
X-6827640Y-878840D01*
X-6827640Y-853440D02*
X-6827640Y-843280D01*
X-6827640Y-833120D02*
X-6827640Y-802640D01*
X-6827640Y-772160D02*
X-6827640Y-762000D01*
X-6827640Y-751840D02*
X-6827640Y-721360D01*
X-6827640Y-685800D02*
X-6827640Y-675640D01*
X-6827640Y-665480D02*
X-6827640Y-650240D01*
X-6827640Y-614680D02*
X-6827640Y-599440D01*
X-6827640Y-589280D02*
X-6827640Y-579120D01*
X-6827640Y-558800D02*
X-6827640Y-548640D01*
X-6827640Y-467360D02*
X-6827640Y-457200D01*
X-6827640Y-436880D02*
X-6827640Y-426720D01*
X-6827640Y-365760D02*
X-6827640Y-355600D01*
X-6822560Y-1254760D02*
X-6822560Y-1203960D01*
X-6822560Y-1173480D02*
X-6822560Y-1148080D01*
X-6822560Y-1097280D02*
X-6822560Y-1087120D01*
X-6822560Y-1051560D02*
X-6822560Y-1041400D01*
X-6822560Y-1000760D02*
X-6822560Y-975360D01*
X-6822560Y-889000D02*
X-6822560Y-878840D01*
X-6822560Y-853440D02*
X-6822560Y-843280D01*
X-6822560Y-838200D02*
X-6822560Y-797560D01*
X-6822560Y-772160D02*
X-6822560Y-762000D01*
X-6822560Y-756920D02*
X-6822560Y-716280D01*
X-6822560Y-685800D02*
X-6822560Y-675640D01*
X-6822560Y-660400D02*
X-6822560Y-650240D01*
X-6822560Y-614680D02*
X-6822560Y-604520D01*
X-6822560Y-589280D02*
X-6822560Y-579120D01*
X-6822560Y-558800D02*
X-6822560Y-548640D01*
X-6822560Y-467360D02*
X-6822560Y-457200D01*
X-6822560Y-436880D02*
X-6822560Y-426720D01*
X-6822560Y-365760D02*
X-6822560Y-355600D01*
X-6817480Y-1254760D02*
X-6817480Y-1203960D01*
X-6817480Y-1163320D02*
X-6817480Y-1143000D01*
X-6817480Y-1097280D02*
X-6817480Y-1087120D01*
X-6817480Y-1061720D02*
X-6817480Y-1041400D01*
X-6817480Y-1000760D02*
X-6817480Y-970280D01*
X-6817480Y-894080D02*
X-6817480Y-883920D01*
X-6817480Y-853440D02*
X-6817480Y-833120D01*
X-6817480Y-807720D02*
X-6817480Y-792480D01*
X-6817480Y-772160D02*
X-6817480Y-751840D01*
X-6817480Y-726440D02*
X-6817480Y-711200D01*
X-6817480Y-685800D02*
X-6817480Y-675640D01*
X-6817480Y-660400D02*
X-6817480Y-645160D01*
X-6817480Y-619760D02*
X-6817480Y-604520D01*
X-6817480Y-589280D02*
X-6817480Y-579120D01*
X-6817480Y-558800D02*
X-6817480Y-548640D01*
X-6817480Y-467360D02*
X-6817480Y-457200D01*
X-6817480Y-436880D02*
X-6817480Y-426720D01*
X-6817480Y-365760D02*
X-6817480Y-355600D01*
X-6812400Y-1254760D02*
X-6812400Y-1244600D01*
X-6812400Y-1153160D02*
X-6812400Y-1132840D01*
X-6812400Y-1097280D02*
X-6812400Y-1046480D01*
X-6812400Y-1010920D02*
X-6812400Y-995680D01*
X-6812400Y-980440D02*
X-6812400Y-965200D01*
X-6812400Y-899160D02*
X-6812400Y-889000D01*
X-6812400Y-853440D02*
X-6812400Y-838200D01*
X-6812400Y-802640D02*
X-6812400Y-792480D01*
X-6812400Y-772160D02*
X-6812400Y-756920D01*
X-6812400Y-721360D02*
X-6812400Y-711200D01*
X-6812400Y-685800D02*
X-6812400Y-675640D01*
X-6812400Y-655320D02*
X-6812400Y-645160D01*
X-6812400Y-619760D02*
X-6812400Y-609600D01*
X-6812400Y-589280D02*
X-6812400Y-579120D01*
X-6812400Y-558800D02*
X-6812400Y-548640D01*
X-6812400Y-467360D02*
X-6812400Y-457200D01*
X-6812400Y-436880D02*
X-6812400Y-426720D01*
X-6812400Y-365760D02*
X-6812400Y-355600D01*
X-6807320Y-1254760D02*
X-6807320Y-1244600D01*
X-6807320Y-1148080D02*
X-6807320Y-1127760D01*
X-6807320Y-1097280D02*
X-6807320Y-1056640D01*
X-6807320Y-1016000D02*
X-6807320Y-1000760D01*
X-6807320Y-975360D02*
X-6807320Y-960120D01*
X-6807320Y-904240D02*
X-6807320Y-894080D01*
X-6807320Y-853440D02*
X-6807320Y-843280D01*
X-6807320Y-797560D02*
X-6807320Y-787400D01*
X-6807320Y-772160D02*
X-6807320Y-762000D01*
X-6807320Y-716280D02*
X-6807320Y-706120D01*
X-6807320Y-685800D02*
X-6807320Y-675640D01*
X-6807320Y-655320D02*
X-6807320Y-640080D01*
X-6807320Y-624840D02*
X-6807320Y-609600D01*
X-6807320Y-589280D02*
X-6807320Y-579120D01*
X-6807320Y-558800D02*
X-6807320Y-548640D01*
X-6807320Y-467360D02*
X-6807320Y-457200D01*
X-6807320Y-436880D02*
X-6807320Y-426720D01*
X-6807320Y-365760D02*
X-6807320Y-355600D01*
X-6802240Y-1254760D02*
X-6802240Y-1244600D01*
X-6802240Y-1137920D02*
X-6802240Y-1122680D01*
X-6802240Y-1097280D02*
X-6802240Y-1087120D01*
X-6802240Y-1021080D02*
X-6802240Y-1005840D01*
X-6802240Y-970280D02*
X-6802240Y-955040D01*
X-6802240Y-909320D02*
X-6802240Y-899160D01*
X-6802240Y-853440D02*
X-6802240Y-843280D01*
X-6802240Y-797560D02*
X-6802240Y-787400D01*
X-6802240Y-772160D02*
X-6802240Y-762000D01*
X-6802240Y-716280D02*
X-6802240Y-706120D01*
X-6802240Y-685800D02*
X-6802240Y-675640D01*
X-6802240Y-650240D02*
X-6802240Y-640080D01*
X-6802240Y-624840D02*
X-6802240Y-609600D01*
X-6802240Y-589280D02*
X-6802240Y-579120D01*
X-6802240Y-558800D02*
X-6802240Y-548640D01*
X-6802240Y-467360D02*
X-6802240Y-457200D01*
X-6802240Y-436880D02*
X-6802240Y-426720D01*
X-6802240Y-365760D02*
X-6802240Y-355600D01*
X-6797160Y-1254760D02*
X-6797160Y-1244600D01*
X-6797160Y-1132840D02*
X-6797160Y-1122680D01*
X-6797160Y-1097280D02*
X-6797160Y-1087120D01*
X-6797160Y-1021080D02*
X-6797160Y-1010920D01*
X-6797160Y-965200D02*
X-6797160Y-955040D01*
X-6797160Y-914400D02*
X-6797160Y-904240D01*
X-6797160Y-853440D02*
X-6797160Y-843280D01*
X-6797160Y-797560D02*
X-6797160Y-787400D01*
X-6797160Y-772160D02*
X-6797160Y-762000D01*
X-6797160Y-716280D02*
X-6797160Y-706120D01*
X-6797160Y-685800D02*
X-6797160Y-675640D01*
X-6797160Y-650240D02*
X-6797160Y-640080D01*
X-6797160Y-624840D02*
X-6797160Y-614680D01*
X-6797160Y-589280D02*
X-6797160Y-579120D01*
X-6797160Y-553720D02*
X-6797160Y-543560D01*
X-6797160Y-472440D02*
X-6797160Y-462280D01*
X-6797160Y-436880D02*
X-6797160Y-426720D01*
X-6797160Y-370840D02*
X-6797160Y-360680D01*
X-6792080Y-1254760D02*
X-6792080Y-1244600D01*
X-6792080Y-1132840D02*
X-6792080Y-1122680D01*
X-6792080Y-1097280D02*
X-6792080Y-1087120D01*
X-6792080Y-1021080D02*
X-6792080Y-1010920D01*
X-6792080Y-965200D02*
X-6792080Y-955040D01*
X-6792080Y-919480D02*
X-6792080Y-909320D01*
X-6792080Y-853440D02*
X-6792080Y-843280D01*
X-6792080Y-797560D02*
X-6792080Y-787400D01*
X-6792080Y-772160D02*
X-6792080Y-762000D01*
X-6792080Y-716280D02*
X-6792080Y-706120D01*
X-6792080Y-685800D02*
X-6792080Y-675640D01*
X-6792080Y-650240D02*
X-6792080Y-635000D01*
X-6792080Y-629920D02*
X-6792080Y-614680D01*
X-6792080Y-589280D02*
X-6792080Y-579120D01*
X-6792080Y-553720D02*
X-6792080Y-543560D01*
X-6792080Y-472440D02*
X-6792080Y-462280D01*
X-6792080Y-436880D02*
X-6792080Y-426720D01*
X-6792080Y-370840D02*
X-6792080Y-360680D01*
X-6787000Y-1254760D02*
X-6787000Y-1244600D01*
X-6787000Y-1132840D02*
X-6787000Y-1122680D01*
X-6787000Y-1097280D02*
X-6787000Y-1087120D01*
X-6787000Y-1021080D02*
X-6787000Y-1010920D01*
X-6787000Y-965200D02*
X-6787000Y-955040D01*
X-6787000Y-924560D02*
X-6787000Y-914400D01*
X-6787000Y-848360D02*
X-6787000Y-838200D01*
X-6787000Y-797560D02*
X-6787000Y-787400D01*
X-6787000Y-767080D02*
X-6787000Y-756920D01*
X-6787000Y-716280D02*
X-6787000Y-706120D01*
X-6787000Y-685800D02*
X-6787000Y-675640D01*
X-6787000Y-645160D02*
X-6787000Y-635000D01*
X-6787000Y-629920D02*
X-6787000Y-619760D01*
X-6787000Y-589280D02*
X-6787000Y-579120D01*
X-6787000Y-553720D02*
X-6787000Y-538480D01*
X-6787000Y-477520D02*
X-6787000Y-467360D01*
X-6787000Y-436880D02*
X-6787000Y-426720D01*
X-6787000Y-375920D02*
X-6787000Y-365760D01*
X-6781920Y-1254760D02*
X-6781920Y-1244600D01*
X-6781920Y-1183640D02*
X-6781920Y-1178560D01*
X-6781920Y-1132840D02*
X-6781920Y-1122680D01*
X-6781920Y-1097280D02*
X-6781920Y-1087120D01*
X-6781920Y-1021080D02*
X-6781920Y-1005840D01*
X-6781920Y-970280D02*
X-6781920Y-955040D01*
X-6781920Y-929640D02*
X-6781920Y-919480D01*
X-6781920Y-848360D02*
X-6781920Y-838200D01*
X-6781920Y-802640D02*
X-6781920Y-792480D01*
X-6781920Y-767080D02*
X-6781920Y-756920D01*
X-6781920Y-721360D02*
X-6781920Y-711200D01*
X-6781920Y-685800D02*
X-6781920Y-675640D01*
X-6781920Y-645160D02*
X-6781920Y-619760D01*
X-6781920Y-589280D02*
X-6781920Y-579120D01*
X-6781920Y-548640D02*
X-6781920Y-533400D01*
X-6781920Y-482600D02*
X-6781920Y-467360D01*
X-6781920Y-436880D02*
X-6781920Y-426720D01*
X-6781920Y-381000D02*
X-6781920Y-365760D01*
X-6776840Y-1254760D02*
X-6776840Y-1244600D01*
X-6776840Y-1183640D02*
X-6776840Y-1168400D01*
X-6776840Y-1143000D02*
X-6776840Y-1127760D01*
X-6776840Y-1097280D02*
X-6776840Y-1087120D01*
X-6776840Y-1016000D02*
X-6776840Y-1000760D01*
X-6776840Y-975360D02*
X-6776840Y-960120D01*
X-6776840Y-934720D02*
X-6776840Y-924560D01*
X-6776840Y-843280D02*
X-6776840Y-833120D01*
X-6776840Y-807720D02*
X-6776840Y-792480D01*
X-6776840Y-762000D02*
X-6776840Y-751840D01*
X-6776840Y-726440D02*
X-6776840Y-711200D01*
X-6776840Y-685800D02*
X-6776840Y-675640D01*
X-6776840Y-640080D02*
X-6776840Y-624840D01*
X-6776840Y-589280D02*
X-6776840Y-579120D01*
X-6776840Y-543560D02*
X-6776840Y-523240D01*
X-6776840Y-492760D02*
X-6776840Y-472440D01*
X-6776840Y-436880D02*
X-6776840Y-426720D01*
X-6776840Y-391160D02*
X-6776840Y-370840D01*
X-6771760Y-1254760D02*
X-6771760Y-1198880D01*
X-6771760Y-1178560D02*
X-6771760Y-1132840D01*
X-6771760Y-1097280D02*
X-6771760Y-1087120D01*
X-6771760Y-1010920D02*
X-6771760Y-965200D01*
X-6771760Y-939800D02*
X-6771760Y-873760D01*
X-6771760Y-843280D02*
X-6771760Y-797560D01*
X-6771760Y-762000D02*
X-6771760Y-716280D01*
X-6771760Y-685800D02*
X-6771760Y-675640D01*
X-6771760Y-640080D02*
X-6771760Y-624840D01*
X-6771760Y-589280D02*
X-6771760Y-579120D01*
X-6771760Y-538480D02*
X-6771760Y-477520D01*
X-6771760Y-436880D02*
X-6771760Y-381000D01*
X-6766680Y-1254760D02*
X-6766680Y-1198880D01*
X-6766680Y-1168400D02*
X-6766680Y-1143000D01*
X-6766680Y-1097280D02*
X-6766680Y-1087120D01*
X-6766680Y-1005840D02*
X-6766680Y-975360D01*
X-6766680Y-939800D02*
X-6766680Y-873760D01*
X-6766680Y-833120D02*
X-6766680Y-807720D01*
X-6766680Y-751840D02*
X-6766680Y-726440D01*
X-6766680Y-685800D02*
X-6766680Y-675640D01*
X-6766680Y-635000D02*
X-6766680Y-629920D01*
X-6766680Y-589280D02*
X-6766680Y-579120D01*
X-6766680Y-528320D02*
X-6766680Y-492760D01*
X-6766680Y-436880D02*
X-6766680Y-391160D01*
D21*
X-9164100Y-809840D02*
X-9164100Y-657440D01*
X-8992650Y-809840D01*
X-8992650Y-657440D01*
X-8935500Y-708240D02*
X-8878350Y-657440D01*
X-8821200Y-657440D01*
X-8764050Y-708240D01*
X-8764050Y-759040D01*
X-8821200Y-809840D01*
X-8878350Y-809840D01*
X-8935500Y-759040D01*
X-8935500Y-708240D01*
X-8706900Y-809840D02*
X-8706900Y-657440D01*
X-8592600Y-657440D01*
X-8535450Y-708240D01*
X-8535450Y-759040D01*
X-8592600Y-809840D01*
X-8706900Y-809840D01*
X-8306850Y-809840D02*
X-8478300Y-809840D01*
X-8478300Y-657440D01*
X-8306850Y-657440D01*
X-8478300Y-733640D02*
X-8364000Y-733640D01*
X-8249700Y-809840D02*
X-8249700Y-657440D01*
X-8163975Y-733640D01*
X-8078250Y-657440D01*
X-8078250Y-809840D01*
X-7849650Y-784440D02*
X-7878225Y-809840D01*
X-7963950Y-809840D01*
X-8021100Y-759040D01*
X-8021100Y-708240D01*
X-7963950Y-657440D01*
X-7878225Y-657440D01*
X-7849650Y-682840D01*
X-7792500Y-657440D02*
X-7792500Y-784440D01*
X-7763925Y-809840D01*
X-7649625Y-809840D01*
X-7621050Y-784440D01*
X-7621050Y-657440D01*
X-10010000Y+3550000D02*
X-5640000Y+3550000D01*
X-5640000Y+5780000D01*
X-10010000Y+5780000D01*
X-10010000Y+3550000D01*
X-6040000Y+3710000D02*
X-6170000Y+3710000D01*
X-6100000Y+3650000D02*
X-6100000Y+3770000D01*
X-6030000Y+5560000D02*
X-6210000Y+5560000D01*
X-9510000Y+3710000D02*
X-9640000Y+3710000D01*
X-9570000Y+3650000D02*
X-9570000Y+3770000D01*
X-9440000Y+5550000D02*
X-9620000Y+5550000D01*
X-5995400Y+4500800D02*
X-6097000Y+4500800D01*
X-6046200Y+4500800D02*
X-6046200Y+4653200D01*
X-5995400Y+4653200D02*
X-6097000Y+4653200D01*
X-6173200Y+4653200D02*
X-6173200Y+4500800D01*
X-6325600Y+4653200D01*
X-6325600Y+4500800D01*
X-9130000Y+4561600D02*
X-9180800Y+4510800D01*
X-9231600Y+4510800D01*
X-9282400Y+4561600D01*
X-9282400Y+4612400D01*
X-9231600Y+4663200D01*
X-9180800Y+4663200D01*
X-9130000Y+4612400D01*
X-9130000Y+4561600D01*
X-9333200Y+4510800D02*
X-9333200Y+4637800D01*
X-9358600Y+4663200D01*
X-9460200Y+4663200D01*
X-9485600Y+4637800D01*
X-9485600Y+4510800D01*
X-9536400Y+4510800D02*
X-9688800Y+4510800D01*
X-9612600Y+4510800D02*
X-9612600Y+4663200D01*
X-8460800Y+4839840D02*
X-8460800Y+4687440D01*
X-8289350Y+4687440D01*
X-8232200Y+4687440D02*
X-8232200Y+4839840D01*
X-8146475Y+4763640D01*
X-8060750Y+4839840D01*
X-8060750Y+4687440D01*
X-7975025Y+4814440D02*
X-7946450Y+4839840D01*
X-7860725Y+4839840D01*
X-7832150Y+4814440D01*
X-7832150Y+4789040D01*
X-7860725Y+4763640D01*
X-7946450Y+4763640D01*
X-7975025Y+4738240D01*
X-7975025Y+4687440D01*
X-7832150Y+4687440D01*
X-7603550Y+4839840D02*
X-7746425Y+4839840D01*
X-7746425Y+4789040D01*
X-7632125Y+4789040D01*
X-7603550Y+4763640D01*
X-7603550Y+4712840D01*
X-7632125Y+4687440D01*
X-7717850Y+4687440D01*
X-7746425Y+4712840D01*
X-7374950Y+4789040D02*
X-7403525Y+4763640D01*
X-7489250Y+4763640D01*
X-7517825Y+4789040D01*
X-7517825Y+4814440D01*
X-7489250Y+4839840D01*
X-7403525Y+4839840D01*
X-7374950Y+4814440D01*
X-7374950Y+4712840D01*
X-7403525Y+4687440D01*
X-7489250Y+4687440D01*
X-7146350Y+4814440D02*
X-7174925Y+4839840D01*
X-7260650Y+4839840D01*
X-7289225Y+4814440D01*
X-7289225Y+4712840D01*
X-7260650Y+4687440D01*
X-7174925Y+4687440D01*
X-7146350Y+4712840D01*
X-7146350Y+4738240D01*
X-7174925Y+4763640D01*
X-7289225Y+4763640D01*
X-5050000Y+4210000D02*
X-4160000Y+4210000D01*
X-4160000Y+5780000D01*
X-5050000Y+5780000D01*
X-5050000Y+4210000D01*
X-5040000Y+5470000D02*
X-4160000Y+5470000D01*
X-4890640Y+4527500D02*
X-4982080Y+4527500D01*
X-4982080Y+4606875D01*
X-4966840Y+4622750D01*
X-4951600Y+4622750D01*
X-4936360Y+4606875D01*
X-4936360Y+4527500D01*
X-4951600Y+4654500D02*
X-4982080Y+4686250D01*
X-4982080Y+4718000D01*
X-4951600Y+4749750D01*
X-4921120Y+4749750D01*
X-4890640Y+4718000D01*
X-4890640Y+4686250D01*
X-4921120Y+4654500D01*
X-4951600Y+4654500D01*
X-4982080Y+4781500D02*
X-4890640Y+4781500D01*
X-4936360Y+4829125D01*
X-4890640Y+4876750D01*
X-4982080Y+4876750D01*
X-4890640Y+5003750D02*
X-4890640Y+4908500D01*
X-4982080Y+4908500D01*
X-4982080Y+5003750D01*
X-4936360Y+4908500D02*
X-4936360Y+4972000D01*
X-4890640Y+5035500D02*
X-4982080Y+5035500D01*
X-4982080Y+5114875D01*
X-4966840Y+5130750D01*
X-4951600Y+5130750D01*
X-4936360Y+5114875D01*
X-4936360Y+5035500D01*
X-4936360Y+5114875D02*
X-4921120Y+5130750D01*
X-4890640Y+5130750D01*
X-4199662Y+3510000D02*
X-4201058Y+3545433D01*
X-4212388Y+3616301D01*
X-4235976Y+3687169D01*
X-4274125Y+3758037D01*
X-4332031Y+3828904D01*
X-4402899Y+3886491D01*
X-4473767Y+3924423D01*
X-4544635Y+3947838D01*
X-4615503Y+3959015D01*
X-4650000Y+3960338D01*
X-5100338Y+3510000D02*
X-5098942Y+3545433D01*
X-5087612Y+3616301D01*
X-5064024Y+3687169D01*
X-5025875Y+3758037D01*
X-4967969Y+3828904D01*
X-4897101Y+3886491D01*
X-4826233Y+3924423D01*
X-4755365Y+3947838D01*
X-4684497Y+3959015D01*
X-4650000Y+3960338D01*
X-5100338Y+3510000D02*
X-5098942Y+3474567D01*
X-5087612Y+3403699D01*
X-5064024Y+3332831D01*
X-5025875Y+3261963D01*
X-4967969Y+3191096D01*
X-4897101Y+3133509D01*
X-4826233Y+3095577D01*
X-4755365Y+3072162D01*
X-4684497Y+3060985D01*
X-4650000Y+3059662D01*
X-4199662Y+3510000D02*
X-4201058Y+3474567D01*
X-4212388Y+3403699D01*
X-4235976Y+3332831D01*
X-4274125Y+3261963D01*
X-4332031Y+3191096D01*
X-4402899Y+3133509D01*
X-4473767Y+3095577D01*
X-4544635Y+3072162D01*
X-4615503Y+3060985D01*
X-4650000Y+3059662D01*
X-5150978Y+3383000D02*
X-5242418Y+3383000D01*
X-5242418Y+3462375D01*
X-5227178Y+3478250D01*
X-5211938Y+3478250D01*
X-5196698Y+3462375D01*
X-5181458Y+3478250D01*
X-5166218Y+3478250D01*
X-5150978Y+3462375D01*
X-5150978Y+3383000D01*
X-5196698Y+3383000D02*
X-5196698Y+3462375D01*
X-5211938Y+3541750D02*
X-5242418Y+3573500D01*
X-5150978Y+3573500D01*
X-4199662Y+2310000D02*
X-4201058Y+2345433D01*
X-4212388Y+2416301D01*
X-4235976Y+2487169D01*
X-4274125Y+2558037D01*
X-4332031Y+2628904D01*
X-4402899Y+2686491D01*
X-4473767Y+2724423D01*
X-4544635Y+2747838D01*
X-4615503Y+2759015D01*
X-4650000Y+2760338D01*
X-5100338Y+2310000D02*
X-5098942Y+2345433D01*
X-5087612Y+2416301D01*
X-5064024Y+2487169D01*
X-5025875Y+2558037D01*
X-4967969Y+2628904D01*
X-4897101Y+2686491D01*
X-4826233Y+2724423D01*
X-4755365Y+2747838D01*
X-4684497Y+2759015D01*
X-4650000Y+2760338D01*
X-5100338Y+2310000D02*
X-5098942Y+2274567D01*
X-5087612Y+2203699D01*
X-5064024Y+2132831D01*
X-5025875Y+2061963D01*
X-4967969Y+1991096D01*
X-4897101Y+1933509D01*
X-4826233Y+1895577D01*
X-4755365Y+1872162D01*
X-4684497Y+1860985D01*
X-4650000Y+1859662D01*
X-4199662Y+2310000D02*
X-4201058Y+2274567D01*
X-4212388Y+2203699D01*
X-4235976Y+2132831D01*
X-4274125Y+2061963D01*
X-4332031Y+1991096D01*
X-4402899Y+1933509D01*
X-4473767Y+1895577D01*
X-4544635Y+1872162D01*
X-4615503Y+1860985D01*
X-4650000Y+1859662D01*
X-5150978Y+2173000D02*
X-5242418Y+2173000D01*
X-5242418Y+2252375D01*
X-5227178Y+2268250D01*
X-5211938Y+2268250D01*
X-5196698Y+2252375D01*
X-5181458Y+2268250D01*
X-5166218Y+2268250D01*
X-5150978Y+2252375D01*
X-5150978Y+2173000D01*
X-5196698Y+2173000D02*
X-5196698Y+2252375D01*
X-5227178Y+2315875D02*
X-5242418Y+2331750D01*
X-5242418Y+2379375D01*
X-5227178Y+2395250D01*
X-5211938Y+2395250D01*
X-5196698Y+2379375D01*
X-5196698Y+2331750D01*
X-5181458Y+2315875D01*
X-5150978Y+2315875D01*
X-5150978Y+2395250D01*
X-4199662Y+1110000D02*
X-4201058Y+1145433D01*
X-4212388Y+1216301D01*
X-4235976Y+1287169D01*
X-4274125Y+1358037D01*
X-4332031Y+1428904D01*
X-4402899Y+1486491D01*
X-4473767Y+1524423D01*
X-4544635Y+1547838D01*
X-4615503Y+1559015D01*
X-4650000Y+1560338D01*
X-5100338Y+1110000D02*
X-5098942Y+1145433D01*
X-5087612Y+1216301D01*
X-5064024Y+1287169D01*
X-5025875Y+1358037D01*
X-4967969Y+1428904D01*
X-4897101Y+1486491D01*
X-4826233Y+1524423D01*
X-4755365Y+1547838D01*
X-4684497Y+1559015D01*
X-4650000Y+1560338D01*
X-5100338Y+1110000D02*
X-5098942Y+1074567D01*
X-5087612Y+1003699D01*
X-5064024Y+932831D01*
X-5025875Y+861963D01*
X-4967969Y+791096D01*
X-4897101Y+733509D01*
X-4826233Y+695577D01*
X-4755365Y+672162D01*
X-4684497Y+660985D01*
X-4650000Y+659662D01*
X-4199662Y+1110000D02*
X-4201058Y+1074567D01*
X-4212388Y+1003699D01*
X-4235976Y+932831D01*
X-4274125Y+861963D01*
X-4332031Y+791096D01*
X-4402899Y+733509D01*
X-4473767Y+695577D01*
X-4544635Y+672162D01*
X-4615503Y+660985D01*
X-4650000Y+659662D01*
X-5150978Y+993000D02*
X-5242418Y+993000D01*
X-5242418Y+1072375D01*
X-5227178Y+1088250D01*
X-5211938Y+1088250D01*
X-5196698Y+1072375D01*
X-5181458Y+1088250D01*
X-5166218Y+1088250D01*
X-5150978Y+1072375D01*
X-5150978Y+993000D01*
X-5196698Y+993000D02*
X-5196698Y+1072375D01*
X-5227178Y+1135875D02*
X-5242418Y+1151750D01*
X-5242418Y+1199375D01*
X-5227178Y+1215250D01*
X-5211938Y+1215250D01*
X-5196698Y+1199375D01*
X-5181458Y+1215250D01*
X-5166218Y+1215250D01*
X-5150978Y+1199375D01*
X-5150978Y+1151750D01*
X-5166218Y+1135875D01*
X-5196698Y+1167625D02*
X-5196698Y+1199375D01*
X-4199662Y-140000D02*
X-4201058Y-104567D01*
X-4212388Y-33699D01*
X-4235976Y+37169D01*
X-4274125Y+108037D01*
X-4332031Y+178904D01*
X-4402899Y+236491D01*
X-4473767Y+274423D01*
X-4544635Y+297838D01*
X-4615503Y+309015D01*
X-4650000Y+310338D01*
X-5100338Y-140000D02*
X-5098942Y-104567D01*
X-5087612Y-33699D01*
X-5064024Y+37169D01*
X-5025875Y+108037D01*
X-4967969Y+178904D01*
X-4897101Y+236491D01*
X-4826233Y+274423D01*
X-4755365Y+297838D01*
X-4684497Y+309015D01*
X-4650000Y+310338D01*
X-5100338Y-140000D02*
X-5098942Y-175433D01*
X-5087612Y-246301D01*
X-5064024Y-317169D01*
X-5025875Y-388037D01*
X-4967969Y-458904D01*
X-4897101Y-516491D01*
X-4826233Y-554423D01*
X-4755365Y-577838D01*
X-4684497Y-589015D01*
X-4650000Y-590338D01*
X-4199662Y-140000D02*
X-4201058Y-175433D01*
X-4212388Y-246301D01*
X-4235976Y-317169D01*
X-4274125Y-388037D01*
X-4332031Y-458904D01*
X-4402899Y-516491D01*
X-4473767Y-554423D01*
X-4544635Y-577838D01*
X-4615503Y-589015D01*
X-4650000Y-590338D01*
X-5130978Y-247000D02*
X-5222418Y-247000D01*
X-5222418Y-167625D01*
X-5207178Y-151750D01*
X-5191938Y-151750D01*
X-5176698Y-167625D01*
X-5161458Y-151750D01*
X-5146218Y-151750D01*
X-5130978Y-167625D01*
X-5130978Y-247000D01*
X-5176698Y-247000D02*
X-5176698Y-167625D01*
X-5161458Y-24750D02*
X-5161458Y-120000D01*
X-5222418Y-56500D01*
X-5130978Y-56500D01*
X-8777000Y-2827000D02*
X-6745000Y-2827000D01*
X-6745000Y-2573000D01*
X-8777000Y-2573000D01*
X-8777000Y-2827000D01*
X-7965000Y-3032360D02*
X-7965000Y-2940920D01*
X-7885625Y-2940920D01*
X-7869750Y-2956160D01*
X-7869750Y-2971400D01*
X-7885625Y-2986640D01*
X-7965000Y-2986640D01*
X-7885625Y-2986640D02*
X-7869750Y-3001880D01*
X-7869750Y-3032360D01*
X-7838000Y-3032360D02*
X-7838000Y-2940920D01*
X-7742750Y-2940920D01*
X-7838000Y-2986640D02*
X-7774500Y-2986640D01*
X-7695125Y-2940920D02*
X-7631625Y-2940920D01*
X-7663375Y-2940920D02*
X-7663375Y-3032360D01*
X-7695125Y-3032360D02*
X-7631625Y-3032360D01*
X-7584000Y-3032360D02*
X-7584000Y-2940920D01*
X-7520500Y-2940920D01*
X-7488750Y-2971400D01*
X-7488750Y-3001880D01*
X-7520500Y-3032360D01*
X-7584000Y-3032360D01*
X-5336500Y+4731800D02*
X-5463500Y+4731800D01*
X-5336500Y+4731800D02*
X-5400000Y+4604800D01*
X-5463500Y+4731800D02*
X-5400000Y+4604800D01*
X-5336500Y+4604800D02*
X-5463500Y+4604800D01*
X-5400000Y+4935000D02*
X-5400000Y+4731800D01*
X-5400000Y+4604800D02*
X-5400000Y+4427000D01*
X-5554420Y+4363500D02*
X-5645860Y+4363500D01*
X-5645860Y+4427000D01*
X-5615380Y+4458750D01*
X-5584900Y+4458750D01*
X-5554420Y+4427000D01*
X-5554420Y+4363500D01*
X-5645860Y+4506375D02*
X-5645860Y+4569875D01*
X-5645860Y+4538125D02*
X-5554420Y+4538125D01*
X-5554420Y+4506375D02*
X-5554420Y+4569875D01*
X-5615380Y+4617500D02*
X-5645860Y+4649250D01*
X-5645860Y+4681000D01*
X-5615380Y+4712750D01*
X-5584900Y+4712750D01*
X-5554420Y+4681000D01*
X-5554420Y+4649250D01*
X-5584900Y+4617500D01*
X-5615380Y+4617500D01*
X-5554420Y+4744500D02*
X-5645860Y+4744500D01*
X-5645860Y+4808000D01*
X-5615380Y+4839750D01*
X-5584900Y+4839750D01*
X-5554420Y+4808000D01*
X-5554420Y+4744500D01*
X-5554420Y+4966750D02*
X-5554420Y+4871500D01*
X-5645860Y+4871500D01*
X-5645860Y+4966750D01*
X-5600140Y+4871500D02*
X-5600140Y+4935000D01*
X-6477000Y-2827000D02*
X-5461000Y-2827000D01*
X-5461000Y-2573000D01*
X-6477000Y-2573000D01*
X-6477000Y-2827000D01*
X-6159500Y-2917640D02*
X-6159500Y-3009080D01*
X-6064250Y-3009080D01*
X-5937250Y-2993840D02*
X-5953125Y-3009080D01*
X-6000750Y-3009080D01*
X-6032500Y-2978600D01*
X-6032500Y-2948120D01*
X-6000750Y-2917640D01*
X-5953125Y-2917640D01*
X-5937250Y-2932880D01*
X-5905500Y-3009080D02*
X-5905500Y-2917640D01*
X-5842000Y-2917640D01*
X-5810250Y-2948120D01*
X-5810250Y-2978600D01*
X-5842000Y-3009080D01*
X-5905500Y-3009080D01*
X-9990000Y-2920000D02*
X-9000000Y-2920000D01*
X-9000000Y-2400000D01*
X-9990000Y-2400000D01*
X-9990000Y-2920000D01*
X-10016500Y-2967920D02*
X-10016500Y-3044120D01*
X-10000625Y-3059360D01*
X-9937125Y-3059360D01*
X-9921250Y-3044120D01*
X-9921250Y-2967920D01*
X-9889500Y-3059360D02*
X-9889500Y-2967920D01*
X-9810125Y-2967920D01*
X-9794250Y-2983160D01*
X-9794250Y-2998400D01*
X-9810125Y-3013640D01*
X-9889500Y-3013640D01*
X-9619625Y-3013640D02*
X-9540250Y-3013640D01*
X-9381500Y-3059360D02*
X-9381500Y-2967920D01*
X-9318000Y-2967920D01*
X-9286250Y-2998400D01*
X-9286250Y-3028880D01*
X-9318000Y-3059360D01*
X-9381500Y-3059360D01*
X-9254500Y-2998400D02*
X-9222750Y-2967920D01*
X-9191000Y-2967920D01*
X-9159250Y-2998400D01*
X-9159250Y-3028880D01*
X-9191000Y-3059360D01*
X-9222750Y-3059360D01*
X-9254500Y-3028880D01*
X-9254500Y-2998400D01*
X-9127500Y-2967920D02*
X-9127500Y-3059360D01*
X-9079875Y-3013640D01*
X-9032250Y-3059360D01*
X-9032250Y-2967920D01*
X-9000500Y-3059360D02*
X-9000500Y-2967920D01*
X-8905250Y-3059360D01*
X-8905250Y-2967920D01*
X-4395050Y-1370000D02*
X-4395880Y-1349443D01*
X-4402622Y-1308327D01*
X-4416689Y-1267211D01*
X-4439546Y-1226095D01*
X-4474467Y-1185101D01*
X-4515583Y-1153363D01*
X-4556699Y-1132736D01*
X-4597815Y-1120448D01*
X-4638931Y-1115290D01*
X-4650000Y-1115050D01*
X-4904950Y-1370000D02*
X-4904120Y-1349443D01*
X-4897378Y-1308327D01*
X-4883311Y-1267211D01*
X-4860454Y-1226095D01*
X-4825533Y-1185101D01*
X-4784417Y-1153363D01*
X-4743301Y-1132736D01*
X-4702185Y-1120448D01*
X-4661069Y-1115290D01*
X-4650000Y-1115050D01*
X-4904950Y-1370000D02*
X-4904120Y-1390557D01*
X-4897378Y-1431673D01*
X-4883311Y-1472789D01*
X-4860454Y-1513905D01*
X-4825533Y-1554899D01*
X-4784417Y-1586637D01*
X-4743301Y-1607264D01*
X-4702185Y-1619552D01*
X-4661069Y-1624710D01*
X-4650000Y-1624950D01*
X-4395050Y-1370000D02*
X-4395880Y-1390557D01*
X-4402622Y-1431673D01*
X-4416689Y-1472789D01*
X-4439546Y-1513905D01*
X-4474467Y-1554899D01*
X-4515583Y-1586637D01*
X-4556699Y-1607264D01*
X-4597815Y-1619552D01*
X-4638931Y-1624710D01*
X-4650000Y-1624950D01*
X-5037030Y-1624000D02*
X-4945590Y-1624000D01*
X-4945590Y-1528750D01*
X-4945590Y-1401750D02*
X-4945590Y-1497000D01*
X-5037030Y-1497000D01*
X-5037030Y-1401750D01*
X-4991310Y-1497000D02*
X-4991310Y-1433500D01*
X-4945590Y-1370000D02*
X-5037030Y-1370000D01*
X-5037030Y-1306500D01*
X-5006550Y-1274750D01*
X-4976070Y-1274750D01*
X-4945590Y-1306500D01*
X-4945590Y-1370000D01*
X-5006550Y-1211250D02*
X-5037030Y-1179500D01*
X-4945590Y-1179500D01*
X-4395050Y-2370000D02*
X-4395880Y-2349443D01*
X-4402622Y-2308327D01*
X-4416689Y-2267211D01*
X-4439546Y-2226095D01*
X-4474467Y-2185101D01*
X-4515583Y-2153363D01*
X-4556699Y-2132736D01*
X-4597815Y-2120448D01*
X-4638931Y-2115290D01*
X-4650000Y-2115050D01*
X-4904950Y-2370000D02*
X-4904120Y-2349443D01*
X-4897378Y-2308327D01*
X-4883311Y-2267211D01*
X-4860454Y-2226095D01*
X-4825533Y-2185101D01*
X-4784417Y-2153363D01*
X-4743301Y-2132736D01*
X-4702185Y-2120448D01*
X-4661069Y-2115290D01*
X-4650000Y-2115050D01*
X-4904950Y-2370000D02*
X-4904120Y-2390557D01*
X-4897378Y-2431673D01*
X-4883311Y-2472789D01*
X-4860454Y-2513905D01*
X-4825533Y-2554899D01*
X-4784417Y-2586637D01*
X-4743301Y-2607264D01*
X-4702185Y-2619552D01*
X-4661069Y-2624710D01*
X-4650000Y-2624950D01*
X-4395050Y-2370000D02*
X-4395880Y-2390557D01*
X-4402622Y-2431673D01*
X-4416689Y-2472789D01*
X-4439546Y-2513905D01*
X-4474467Y-2554899D01*
X-4515583Y-2586637D01*
X-4556699Y-2607264D01*
X-4597815Y-2619552D01*
X-4638931Y-2624710D01*
X-4650000Y-2624950D01*
X-5037030Y-2624000D02*
X-4945590Y-2624000D01*
X-4945590Y-2528750D01*
X-4945590Y-2401750D02*
X-4945590Y-2497000D01*
X-5037030Y-2497000D01*
X-5037030Y-2401750D01*
X-4991310Y-2497000D02*
X-4991310Y-2433500D01*
X-4945590Y-2370000D02*
X-5037030Y-2370000D01*
X-5037030Y-2306500D01*
X-5006550Y-2274750D01*
X-4976070Y-2274750D01*
X-4945590Y-2306500D01*
X-4945590Y-2370000D01*
X-5021790Y-2227125D02*
X-5037030Y-2211250D01*
X-5037030Y-2163625D01*
X-5021790Y-2147750D01*
X-5006550Y-2147750D01*
X-4991310Y-2163625D01*
X-4991310Y-2211250D01*
X-4976070Y-2227125D01*
X-4945590Y-2227125D01*
X-4945590Y-2147750D01*
X-9060300Y+891580D02*
X-9128880Y+891580D01*
X-9060300Y+1013500D02*
X-9131420Y+1013500D01*
X-9220320Y+759500D02*
X-9220320Y+850940D01*
X-9140945Y+850940D01*
X-9125070Y+835700D01*
X-9125070Y+820460D01*
X-9140945Y+805220D01*
X-9220320Y+805220D01*
X-9140945Y+805220D02*
X-9125070Y+789980D01*
X-9125070Y+759500D01*
X-9061570Y+820460D02*
X-9029820Y+850940D01*
X-9029820Y+759500D01*
X-8573660Y+891580D02*
X-8642240Y+891580D01*
X-8573660Y+1013500D02*
X-8644780Y+1013500D01*
X-8733680Y+759500D02*
X-8733680Y+850940D01*
X-8654305Y+850940D01*
X-8638430Y+835700D01*
X-8638430Y+820460D01*
X-8654305Y+805220D01*
X-8733680Y+805220D01*
X-8654305Y+805220D02*
X-8638430Y+789980D01*
X-8638430Y+759500D01*
X-8590805Y+835700D02*
X-8574930Y+850940D01*
X-8527305Y+850940D01*
X-8511430Y+835700D01*
X-8511430Y+820460D01*
X-8527305Y+805220D01*
X-8574930Y+805220D01*
X-8590805Y+789980D01*
X-8590805Y+759500D01*
X-8511430Y+759500D01*
X-8073660Y+891580D02*
X-8142240Y+891580D01*
X-8073660Y+1013500D02*
X-8144780Y+1013500D01*
X-8233680Y+759500D02*
X-8233680Y+850940D01*
X-8154305Y+850940D01*
X-8138430Y+835700D01*
X-8138430Y+820460D01*
X-8154305Y+805220D01*
X-8233680Y+805220D01*
X-8154305Y+805220D02*
X-8138430Y+789980D01*
X-8138430Y+759500D01*
X-8011430Y+789980D02*
X-8106680Y+789980D01*
X-8043180Y+850940D01*
X-8043180Y+759500D01*
X-7676340Y+1008420D02*
X-7607760Y+1008420D01*
X-7676340Y+886500D02*
X-7605220Y+886500D01*
X-7770320Y+749060D02*
X-7770320Y+840500D01*
X-7690945Y+840500D01*
X-7675070Y+825260D01*
X-7675070Y+810020D01*
X-7690945Y+794780D01*
X-7770320Y+794780D01*
X-7690945Y+794780D02*
X-7675070Y+779540D01*
X-7675070Y+749060D01*
X-7548070Y+840500D02*
X-7627445Y+840500D01*
X-7627445Y+810020D01*
X-7563945Y+810020D01*
X-7548070Y+794780D01*
X-7548070Y+764300D01*
X-7563945Y+749060D01*
X-7611570Y+749060D01*
X-7627445Y+764300D01*
X-4623660Y-1858420D02*
X-4692240Y-1858420D01*
X-4623660Y-1736500D02*
X-4694780Y-1736500D01*
X-4847180Y-1990500D02*
X-4847180Y-1899060D01*
X-4767805Y-1899060D01*
X-4751930Y-1914300D01*
X-4751930Y-1929540D01*
X-4767805Y-1944780D01*
X-4847180Y-1944780D01*
X-4767805Y-1944780D02*
X-4751930Y-1960020D01*
X-4751930Y-1990500D01*
X-4688430Y-1929540D02*
X-4656680Y-1899060D01*
X-4656680Y-1990500D01*
X-4561430Y-1929540D02*
X-4529680Y-1899060D01*
X-4529680Y-1990500D01*
X-4633660Y-2838420D02*
X-4702240Y-2838420D01*
X-4633660Y-2716500D02*
X-4704780Y-2716500D01*
X-4857180Y-2970500D02*
X-4857180Y-2879060D01*
X-4777805Y-2879060D01*
X-4761930Y-2894300D01*
X-4761930Y-2909540D01*
X-4777805Y-2924780D01*
X-4857180Y-2924780D01*
X-4777805Y-2924780D02*
X-4761930Y-2940020D01*
X-4761930Y-2970500D01*
X-4698430Y-2909540D02*
X-4666680Y-2879060D01*
X-4666680Y-2970500D01*
X-4587305Y-2894300D02*
X-4571430Y-2879060D01*
X-4523805Y-2879060D01*
X-4507930Y-2894300D01*
X-4507930Y-2909540D01*
X-4523805Y-2924780D01*
X-4571430Y-2924780D01*
X-4587305Y-2940020D01*
X-4587305Y-2970500D01*
X-4507930Y-2970500D01*
X-6430000Y-2480000D02*
X-6320000Y-2480000D01*
X-6170000Y-2480000D02*
X-6030000Y-2480000D01*
X-6100000Y-2420000D02*
X-6100000Y-2530000D01*
D22*
X-6922540Y-2542865D02*
X-6795540Y-2542865D01*
X-6912380Y-2537785D02*
X-6897140Y-2537785D01*
X-6881900Y-2537785D02*
X-6876820Y-2537785D01*
X-6861580Y-2537785D02*
X-6846340Y-2537785D01*
X-6820940Y-2537785D02*
X-6815860Y-2537785D01*
X-6917460Y-2532705D02*
X-6912380Y-2532705D01*
X-6897140Y-2532705D02*
X-6892060Y-2532705D01*
X-6866660Y-2532705D02*
X-6861580Y-2532705D01*
X-6846340Y-2532705D02*
X-6841260Y-2532705D01*
X-6826020Y-2532705D02*
X-6815860Y-2532705D01*
X-6897140Y-2527625D02*
X-6892060Y-2527625D01*
X-6846340Y-2527625D02*
X-6841260Y-2527625D01*
X-6826020Y-2527625D02*
X-6820940Y-2527625D01*
X-6815860Y-2527625D02*
X-6810780Y-2527625D01*
X-6897140Y-2522545D02*
X-6892060Y-2522545D01*
X-6846340Y-2522545D02*
X-6841260Y-2522545D01*
X-6826020Y-2522545D02*
X-6820940Y-2522545D01*
X-6815860Y-2522545D02*
X-6810780Y-2522545D01*
X-6907300Y-2517465D02*
X-6897140Y-2517465D01*
X-6856500Y-2517465D02*
X-6846340Y-2517465D01*
X-6831100Y-2517465D02*
X-6826020Y-2517465D01*
X-6810780Y-2517465D02*
X-6805700Y-2517465D01*
X-6897140Y-2512385D02*
X-6892060Y-2512385D01*
X-6846340Y-2512385D02*
X-6841260Y-2512385D01*
X-6831100Y-2512385D02*
X-6826020Y-2512385D01*
X-6810780Y-2512385D02*
X-6805700Y-2512385D01*
X-6897140Y-2507305D02*
X-6892060Y-2507305D01*
X-6846340Y-2507305D02*
X-6841260Y-2507305D01*
X-6831100Y-2507305D02*
X-6826020Y-2507305D01*
X-6810780Y-2507305D02*
X-6805700Y-2507305D01*
X-6917460Y-2502225D02*
X-6912380Y-2502225D01*
X-6897140Y-2502225D02*
X-6892060Y-2502225D01*
X-6866660Y-2502225D02*
X-6861580Y-2502225D01*
X-6846340Y-2502225D02*
X-6841260Y-2502225D01*
X-6836180Y-2502225D02*
X-6831100Y-2502225D01*
X-6805700Y-2502225D02*
X-6800620Y-2502225D01*
X-6912380Y-2497145D02*
X-6897140Y-2497145D01*
X-6861580Y-2497145D02*
X-6846340Y-2497145D01*
X-6836180Y-2497145D02*
X-6831100Y-2497145D01*
X-6805700Y-2497145D02*
X-6800620Y-2497145D01*
M02*
