G04 PROTEUS GERBER X2 FILE*
%TF.GenerationSoftware,Labcenter,Proteus,8.6-SP2-Build23525*%
%TF.CreationDate,2019-05-04T20:14:25+00:00*%
%TF.FileFunction,Legend,Bot*%
%TF.FilePolarity,Positive*%
%TF.Part,Single*%
%FSLAX45Y45*%
%MOMM*%
G01*
%TA.AperFunction,Profile*%
%ADD20C,0.203200*%
%TA.AperFunction,Material*%
%ADD22C,0.063500*%
%TD.AperFunction*%
D20*
X-10400000Y-3430000D02*
X-3650000Y-3430000D01*
X-3650000Y+6180000D01*
X-10400000Y+6180000D01*
X-10400000Y-3430000D01*
D22*
X-8866268Y+4438610D02*
X-8774828Y+4438610D01*
X-6707268Y+4438610D02*
X-6615828Y+4438610D01*
X-8896748Y+4443690D02*
X-8744348Y+4443690D01*
X-6737748Y+4443690D02*
X-6585348Y+4443690D01*
X-8917068Y+4448770D02*
X-8724028Y+4448770D01*
X-8348108Y+4448770D02*
X-7774068Y+4448770D01*
X-7647068Y+4448770D02*
X-7073028Y+4448770D01*
X-6758068Y+4448770D02*
X-6565028Y+4448770D01*
X-8932308Y+4453850D02*
X-8708788Y+4453850D01*
X-8348108Y+4453850D02*
X-7774068Y+4453850D01*
X-7647068Y+4453850D02*
X-7073028Y+4453850D01*
X-6773308Y+4453850D02*
X-6549788Y+4453850D01*
X-8947548Y+4458930D02*
X-8693548Y+4458930D01*
X-8348108Y+4458930D02*
X-7779148Y+4458930D01*
X-7647068Y+4458930D02*
X-7078108Y+4458930D01*
X-6788548Y+4458930D02*
X-6534548Y+4458930D01*
X-8957708Y+4464010D02*
X-8683388Y+4464010D01*
X-8348108Y+4464010D02*
X-7779148Y+4464010D01*
X-7647068Y+4464010D02*
X-7078108Y+4464010D01*
X-6798708Y+4464010D02*
X-6524388Y+4464010D01*
X-8967868Y+4469090D02*
X-8673228Y+4469090D01*
X-8353188Y+4469090D02*
X-7779148Y+4469090D01*
X-7652148Y+4469090D02*
X-7078108Y+4469090D01*
X-6808868Y+4469090D02*
X-6514228Y+4469090D01*
X-8978028Y+4474170D02*
X-8663068Y+4474170D01*
X-8353188Y+4474170D02*
X-7779148Y+4474170D01*
X-7652148Y+4474170D02*
X-7078108Y+4474170D01*
X-6819028Y+4474170D02*
X-6504068Y+4474170D01*
X-8988188Y+4479250D02*
X-8652908Y+4479250D01*
X-8353188Y+4479250D02*
X-7779148Y+4479250D01*
X-7652148Y+4479250D02*
X-7078108Y+4479250D01*
X-6829188Y+4479250D02*
X-6493908Y+4479250D01*
X-8998348Y+4484330D02*
X-8647828Y+4484330D01*
X-8353188Y+4484330D02*
X-7784228Y+4484330D01*
X-7652148Y+4484330D02*
X-7083188Y+4484330D01*
X-6839348Y+4484330D02*
X-6488828Y+4484330D01*
X-9003428Y+4489410D02*
X-8637668Y+4489410D01*
X-8353188Y+4489410D02*
X-7784228Y+4489410D01*
X-7652148Y+4489410D02*
X-7083188Y+4489410D01*
X-6844428Y+4489410D02*
X-6478668Y+4489410D01*
X-9013588Y+4494490D02*
X-8632588Y+4494490D01*
X-8358268Y+4494490D02*
X-7784228Y+4494490D01*
X-7657228Y+4494490D02*
X-7083188Y+4494490D01*
X-6854588Y+4494490D02*
X-6473588Y+4494490D01*
X-9018668Y+4499570D02*
X-8627508Y+4499570D01*
X-8358268Y+4499570D02*
X-7784228Y+4499570D01*
X-7657228Y+4499570D02*
X-7083188Y+4499570D01*
X-6859668Y+4499570D02*
X-6468508Y+4499570D01*
X-9028828Y+4504650D02*
X-8622428Y+4504650D01*
X-8358268Y+4504650D02*
X-7784228Y+4504650D01*
X-7657228Y+4504650D02*
X-7083188Y+4504650D01*
X-6869828Y+4504650D02*
X-6463428Y+4504650D01*
X-9033908Y+4509730D02*
X-8617348Y+4509730D01*
X-8358268Y+4509730D02*
X-7789308Y+4509730D01*
X-7657228Y+4509730D02*
X-7088268Y+4509730D01*
X-6874908Y+4509730D02*
X-6458348Y+4509730D01*
X-9038988Y+4514810D02*
X-8612268Y+4514810D01*
X-8358268Y+4514810D02*
X-7789308Y+4514810D01*
X-7657228Y+4514810D02*
X-7088268Y+4514810D01*
X-6879988Y+4514810D02*
X-6453268Y+4514810D01*
X-9044068Y+4519890D02*
X-8866268Y+4519890D01*
X-8795148Y+4519890D02*
X-8607188Y+4519890D01*
X-8363348Y+4519890D02*
X-7789308Y+4519890D01*
X-7662308Y+4519890D02*
X-7088268Y+4519890D01*
X-6885068Y+4519890D02*
X-6707268Y+4519890D01*
X-6636148Y+4519890D02*
X-6448188Y+4519890D01*
X-9049148Y+4524970D02*
X-8886588Y+4524970D01*
X-8769748Y+4524970D02*
X-8602108Y+4524970D01*
X-8363348Y+4524970D02*
X-7789308Y+4524970D01*
X-7662308Y+4524970D02*
X-7088268Y+4524970D01*
X-6890148Y+4524970D02*
X-6727588Y+4524970D01*
X-6610748Y+4524970D02*
X-6443108Y+4524970D01*
X-9054228Y+4530050D02*
X-8906908Y+4530050D01*
X-8754508Y+4530050D02*
X-8597028Y+4530050D01*
X-8363348Y+4530050D02*
X-7789308Y+4530050D01*
X-7662308Y+4530050D02*
X-7088268Y+4530050D01*
X-6895228Y+4530050D02*
X-6747908Y+4530050D01*
X-6595508Y+4530050D02*
X-6438028Y+4530050D01*
X-9059308Y+4535130D02*
X-8917068Y+4535130D01*
X-8739268Y+4535130D02*
X-8591948Y+4535130D01*
X-7890908Y+4535130D02*
X-7794388Y+4535130D01*
X-7189868Y+4535130D02*
X-7093348Y+4535130D01*
X-6900308Y+4535130D02*
X-6758068Y+4535130D01*
X-6580268Y+4535130D02*
X-6432948Y+4535130D01*
X-9064388Y+4540210D02*
X-8927228Y+4540210D01*
X-8729108Y+4540210D02*
X-8586868Y+4540210D01*
X-7890908Y+4540210D02*
X-7794388Y+4540210D01*
X-7189868Y+4540210D02*
X-7093348Y+4540210D01*
X-6905388Y+4540210D02*
X-6768228Y+4540210D01*
X-6570108Y+4540210D02*
X-6427868Y+4540210D01*
X-9069468Y+4545290D02*
X-8937388Y+4545290D01*
X-8718948Y+4545290D02*
X-8581788Y+4545290D01*
X-7890908Y+4545290D02*
X-7794388Y+4545290D01*
X-7189868Y+4545290D02*
X-7093348Y+4545290D01*
X-6910468Y+4545290D02*
X-6778388Y+4545290D01*
X-6559948Y+4545290D02*
X-6422788Y+4545290D01*
X-9074548Y+4550370D02*
X-8947548Y+4550370D01*
X-8713868Y+4550370D02*
X-8581788Y+4550370D01*
X-7895988Y+4550370D02*
X-7794388Y+4550370D01*
X-7194948Y+4550370D02*
X-7093348Y+4550370D01*
X-6915548Y+4550370D02*
X-6788548Y+4550370D01*
X-6554868Y+4550370D02*
X-6422788Y+4550370D01*
X-9079628Y+4555450D02*
X-8952628Y+4555450D01*
X-8703708Y+4555450D02*
X-8576708Y+4555450D01*
X-7895988Y+4555450D02*
X-7799468Y+4555450D01*
X-7194948Y+4555450D02*
X-7098428Y+4555450D01*
X-6920628Y+4555450D02*
X-6793628Y+4555450D01*
X-6544708Y+4555450D02*
X-6417708Y+4555450D01*
X-9084708Y+4560530D02*
X-8962788Y+4560530D01*
X-8698628Y+4560530D02*
X-8571628Y+4560530D01*
X-7895988Y+4560530D02*
X-7799468Y+4560530D01*
X-7194948Y+4560530D02*
X-7098428Y+4560530D01*
X-6925708Y+4560530D02*
X-6803788Y+4560530D01*
X-6539628Y+4560530D02*
X-6412628Y+4560530D01*
X-9089788Y+4565610D02*
X-8967868Y+4565610D01*
X-8693548Y+4565610D02*
X-8571628Y+4565610D01*
X-7895988Y+4565610D02*
X-7799468Y+4565610D01*
X-7194948Y+4565610D02*
X-7098428Y+4565610D01*
X-6930788Y+4565610D02*
X-6808868Y+4565610D01*
X-6534548Y+4565610D02*
X-6412628Y+4565610D01*
X-9094868Y+4570690D02*
X-8972948Y+4570690D01*
X-8688468Y+4570690D02*
X-8566548Y+4570690D01*
X-7901068Y+4570690D02*
X-7799468Y+4570690D01*
X-7200028Y+4570690D02*
X-7098428Y+4570690D01*
X-6935868Y+4570690D02*
X-6813948Y+4570690D01*
X-6529468Y+4570690D02*
X-6407548Y+4570690D01*
X-9094868Y+4575770D02*
X-8983108Y+4575770D01*
X-8683388Y+4575770D02*
X-8566548Y+4575770D01*
X-7901068Y+4575770D02*
X-7799468Y+4575770D01*
X-7200028Y+4575770D02*
X-7098428Y+4575770D01*
X-6935868Y+4575770D02*
X-6824108Y+4575770D01*
X-6524388Y+4575770D02*
X-6407548Y+4575770D01*
X-9099948Y+4580850D02*
X-8988188Y+4580850D01*
X-8678308Y+4580850D02*
X-8561468Y+4580850D01*
X-7901068Y+4580850D02*
X-7804548Y+4580850D01*
X-7200028Y+4580850D02*
X-7103508Y+4580850D01*
X-6940948Y+4580850D02*
X-6829188Y+4580850D01*
X-6519308Y+4580850D02*
X-6402468Y+4580850D01*
X-9105028Y+4585930D02*
X-8993268Y+4585930D01*
X-8673228Y+4585930D02*
X-8561468Y+4585930D01*
X-7901068Y+4585930D02*
X-7804548Y+4585930D01*
X-7200028Y+4585930D02*
X-7103508Y+4585930D01*
X-6946028Y+4585930D02*
X-6834268Y+4585930D01*
X-6514228Y+4585930D02*
X-6402468Y+4585930D01*
X-9105028Y+4591010D02*
X-8998348Y+4591010D01*
X-8668148Y+4591010D02*
X-8556388Y+4591010D01*
X-7901068Y+4591010D02*
X-7804548Y+4591010D01*
X-7200028Y+4591010D02*
X-7103508Y+4591010D01*
X-6946028Y+4591010D02*
X-6839348Y+4591010D01*
X-6509148Y+4591010D02*
X-6397388Y+4591010D01*
X-9110108Y+4596090D02*
X-9003428Y+4596090D01*
X-8663068Y+4596090D02*
X-8556388Y+4596090D01*
X-7906148Y+4596090D02*
X-7804548Y+4596090D01*
X-7205108Y+4596090D02*
X-7103508Y+4596090D01*
X-6951108Y+4596090D02*
X-6844428Y+4596090D01*
X-6504068Y+4596090D02*
X-6397388Y+4596090D01*
X-9115188Y+4601170D02*
X-9008508Y+4601170D01*
X-8663068Y+4601170D02*
X-8551308Y+4601170D01*
X-7906148Y+4601170D02*
X-7804548Y+4601170D01*
X-7205108Y+4601170D02*
X-7103508Y+4601170D01*
X-6956188Y+4601170D02*
X-6849508Y+4601170D01*
X-6504068Y+4601170D02*
X-6392308Y+4601170D01*
X-9115188Y+4606250D02*
X-9008508Y+4606250D01*
X-8657988Y+4606250D02*
X-8551308Y+4606250D01*
X-7906148Y+4606250D02*
X-7809628Y+4606250D01*
X-7205108Y+4606250D02*
X-7108588Y+4606250D01*
X-6956188Y+4606250D02*
X-6849508Y+4606250D01*
X-6498988Y+4606250D02*
X-6392308Y+4606250D01*
X-9120268Y+4611330D02*
X-9013588Y+4611330D01*
X-8652908Y+4611330D02*
X-8551308Y+4611330D01*
X-7906148Y+4611330D02*
X-7809628Y+4611330D01*
X-7205108Y+4611330D02*
X-7108588Y+4611330D01*
X-6961268Y+4611330D02*
X-6854588Y+4611330D01*
X-6493908Y+4611330D02*
X-6392308Y+4611330D01*
X-9120268Y+4616410D02*
X-9018668Y+4616410D01*
X-8652908Y+4616410D02*
X-8546228Y+4616410D01*
X-7906148Y+4616410D02*
X-7809628Y+4616410D01*
X-7205108Y+4616410D02*
X-7108588Y+4616410D01*
X-6961268Y+4616410D02*
X-6859668Y+4616410D01*
X-6493908Y+4616410D02*
X-6387228Y+4616410D01*
X-9125348Y+4621490D02*
X-9023748Y+4621490D01*
X-8647828Y+4621490D02*
X-8546228Y+4621490D01*
X-7911228Y+4621490D02*
X-7809628Y+4621490D01*
X-7210188Y+4621490D02*
X-7108588Y+4621490D01*
X-6966348Y+4621490D02*
X-6864748Y+4621490D01*
X-6488828Y+4621490D02*
X-6387228Y+4621490D01*
X-9130428Y+4626570D02*
X-9023748Y+4626570D01*
X-8647828Y+4626570D02*
X-8546228Y+4626570D01*
X-7911228Y+4626570D02*
X-7809628Y+4626570D01*
X-7210188Y+4626570D02*
X-7108588Y+4626570D01*
X-6971428Y+4626570D02*
X-6864748Y+4626570D01*
X-6488828Y+4626570D02*
X-6387228Y+4626570D01*
X-9130428Y+4631650D02*
X-9028828Y+4631650D01*
X-8642748Y+4631650D02*
X-8541148Y+4631650D01*
X-7911228Y+4631650D02*
X-7814708Y+4631650D01*
X-7210188Y+4631650D02*
X-7113668Y+4631650D01*
X-6971428Y+4631650D02*
X-6869828Y+4631650D01*
X-6483748Y+4631650D02*
X-6382148Y+4631650D01*
X-9135508Y+4636730D02*
X-9033908Y+4636730D01*
X-8642748Y+4636730D02*
X-8541148Y+4636730D01*
X-7911228Y+4636730D02*
X-7814708Y+4636730D01*
X-7210188Y+4636730D02*
X-7113668Y+4636730D01*
X-6976508Y+4636730D02*
X-6874908Y+4636730D01*
X-6483748Y+4636730D02*
X-6382148Y+4636730D01*
X-9135508Y+4641810D02*
X-9033908Y+4641810D01*
X-8642748Y+4641810D02*
X-8541148Y+4641810D01*
X-7911228Y+4641810D02*
X-7814708Y+4641810D01*
X-7210188Y+4641810D02*
X-7113668Y+4641810D01*
X-6976508Y+4641810D02*
X-6874908Y+4641810D01*
X-6483748Y+4641810D02*
X-6382148Y+4641810D01*
X-9140588Y+4646890D02*
X-9038988Y+4646890D01*
X-8637668Y+4646890D02*
X-8536068Y+4646890D01*
X-7916308Y+4646890D02*
X-7814708Y+4646890D01*
X-7215268Y+4646890D02*
X-7113668Y+4646890D01*
X-6981588Y+4646890D02*
X-6879988Y+4646890D01*
X-6478668Y+4646890D02*
X-6377068Y+4646890D01*
X-9140588Y+4651970D02*
X-9038988Y+4651970D01*
X-8637668Y+4651970D02*
X-8536068Y+4651970D01*
X-7916308Y+4651970D02*
X-7814708Y+4651970D01*
X-7215268Y+4651970D02*
X-7113668Y+4651970D01*
X-6981588Y+4651970D02*
X-6879988Y+4651970D01*
X-6478668Y+4651970D02*
X-6377068Y+4651970D01*
X-9145668Y+4657050D02*
X-9044068Y+4657050D01*
X-8637668Y+4657050D02*
X-8536068Y+4657050D01*
X-7916308Y+4657050D02*
X-7819788Y+4657050D01*
X-7215268Y+4657050D02*
X-7118748Y+4657050D01*
X-6986668Y+4657050D02*
X-6885068Y+4657050D01*
X-6478668Y+4657050D02*
X-6377068Y+4657050D01*
X-9145668Y+4662130D02*
X-9044068Y+4662130D01*
X-8632588Y+4662130D02*
X-8536068Y+4662130D01*
X-7916308Y+4662130D02*
X-7819788Y+4662130D01*
X-7215268Y+4662130D02*
X-7118748Y+4662130D01*
X-6986668Y+4662130D02*
X-6885068Y+4662130D01*
X-6473588Y+4662130D02*
X-6377068Y+4662130D01*
X-9145668Y+4667210D02*
X-9049148Y+4667210D01*
X-8632588Y+4667210D02*
X-8536068Y+4667210D01*
X-7916308Y+4667210D02*
X-7819788Y+4667210D01*
X-7215268Y+4667210D02*
X-7118748Y+4667210D01*
X-6986668Y+4667210D02*
X-6890148Y+4667210D01*
X-6473588Y+4667210D02*
X-6377068Y+4667210D01*
X-9150748Y+4672290D02*
X-9049148Y+4672290D01*
X-8632588Y+4672290D02*
X-8530988Y+4672290D01*
X-7921388Y+4672290D02*
X-7819788Y+4672290D01*
X-7220348Y+4672290D02*
X-7118748Y+4672290D01*
X-6991748Y+4672290D02*
X-6890148Y+4672290D01*
X-6473588Y+4672290D02*
X-6371988Y+4672290D01*
X-9150748Y+4677370D02*
X-9054228Y+4677370D01*
X-8632588Y+4677370D02*
X-8530988Y+4677370D01*
X-7921388Y+4677370D02*
X-7824868Y+4677370D01*
X-7220348Y+4677370D02*
X-7123828Y+4677370D01*
X-6991748Y+4677370D02*
X-6895228Y+4677370D01*
X-6473588Y+4677370D02*
X-6371988Y+4677370D01*
X-9155828Y+4682450D02*
X-9054228Y+4682450D01*
X-8627508Y+4682450D02*
X-8530988Y+4682450D01*
X-7921388Y+4682450D02*
X-7824868Y+4682450D01*
X-7220348Y+4682450D02*
X-7123828Y+4682450D01*
X-6996828Y+4682450D02*
X-6895228Y+4682450D01*
X-6468508Y+4682450D02*
X-6371988Y+4682450D01*
X-9155828Y+4687530D02*
X-9054228Y+4687530D01*
X-8627508Y+4687530D02*
X-8530988Y+4687530D01*
X-7921388Y+4687530D02*
X-7824868Y+4687530D01*
X-7220348Y+4687530D02*
X-7123828Y+4687530D01*
X-6996828Y+4687530D02*
X-6895228Y+4687530D01*
X-6468508Y+4687530D02*
X-6371988Y+4687530D01*
X-9155828Y+4692610D02*
X-9059308Y+4692610D01*
X-8627508Y+4692610D02*
X-8530988Y+4692610D01*
X-7926468Y+4692610D02*
X-7824868Y+4692610D01*
X-7225428Y+4692610D02*
X-7123828Y+4692610D01*
X-6996828Y+4692610D02*
X-6900308Y+4692610D01*
X-6468508Y+4692610D02*
X-6371988Y+4692610D01*
X-9160908Y+4697690D02*
X-9059308Y+4697690D01*
X-8627508Y+4697690D02*
X-8530988Y+4697690D01*
X-7926468Y+4697690D02*
X-7824868Y+4697690D01*
X-7225428Y+4697690D02*
X-7123828Y+4697690D01*
X-7001908Y+4697690D02*
X-6900308Y+4697690D01*
X-6468508Y+4697690D02*
X-6371988Y+4697690D01*
X-9135508Y+4702770D02*
X-9064388Y+4702770D01*
X-8627508Y+4702770D02*
X-8530988Y+4702770D01*
X-7926468Y+4702770D02*
X-7829948Y+4702770D01*
X-7225428Y+4702770D02*
X-7128908Y+4702770D01*
X-6976508Y+4702770D02*
X-6905388Y+4702770D01*
X-6468508Y+4702770D02*
X-6371988Y+4702770D01*
X-9089788Y+4707850D02*
X-9064388Y+4707850D01*
X-8627508Y+4707850D02*
X-8525908Y+4707850D01*
X-7926468Y+4707850D02*
X-7829948Y+4707850D01*
X-7225428Y+4707850D02*
X-7128908Y+4707850D01*
X-6930788Y+4707850D02*
X-6905388Y+4707850D01*
X-6468508Y+4707850D02*
X-6366908Y+4707850D01*
X-8622428Y+4712930D02*
X-8525908Y+4712930D01*
X-7926468Y+4712930D02*
X-7829948Y+4712930D01*
X-7225428Y+4712930D02*
X-7128908Y+4712930D01*
X-6463428Y+4712930D02*
X-6366908Y+4712930D01*
X-8622428Y+4718010D02*
X-8525908Y+4718010D01*
X-7931548Y+4718010D02*
X-7829948Y+4718010D01*
X-7230508Y+4718010D02*
X-7128908Y+4718010D01*
X-6463428Y+4718010D02*
X-6366908Y+4718010D01*
X-8622428Y+4723090D02*
X-8525908Y+4723090D01*
X-7931548Y+4723090D02*
X-7829948Y+4723090D01*
X-7230508Y+4723090D02*
X-7128908Y+4723090D01*
X-6463428Y+4723090D02*
X-6366908Y+4723090D01*
X-8622428Y+4728170D02*
X-8525908Y+4728170D01*
X-7931548Y+4728170D02*
X-7835028Y+4728170D01*
X-7230508Y+4728170D02*
X-7133988Y+4728170D01*
X-6463428Y+4728170D02*
X-6366908Y+4728170D01*
X-8622428Y+4733250D02*
X-8525908Y+4733250D01*
X-7931548Y+4733250D02*
X-7835028Y+4733250D01*
X-7230508Y+4733250D02*
X-7133988Y+4733250D01*
X-6463428Y+4733250D02*
X-6366908Y+4733250D01*
X-8622428Y+4738330D02*
X-8525908Y+4738330D01*
X-7931548Y+4738330D02*
X-7835028Y+4738330D01*
X-7230508Y+4738330D02*
X-7133988Y+4738330D01*
X-6463428Y+4738330D02*
X-6366908Y+4738330D01*
X-8622428Y+4743410D02*
X-8525908Y+4743410D01*
X-7936628Y+4743410D02*
X-7835028Y+4743410D01*
X-7235588Y+4743410D02*
X-7133988Y+4743410D01*
X-6463428Y+4743410D02*
X-6366908Y+4743410D01*
X-8622428Y+4748490D02*
X-8525908Y+4748490D01*
X-7936628Y+4748490D02*
X-7835028Y+4748490D01*
X-7235588Y+4748490D02*
X-7133988Y+4748490D01*
X-6463428Y+4748490D02*
X-6366908Y+4748490D01*
X-8622428Y+4753570D02*
X-8525908Y+4753570D01*
X-7936628Y+4753570D02*
X-7840108Y+4753570D01*
X-7235588Y+4753570D02*
X-7139068Y+4753570D01*
X-6463428Y+4753570D02*
X-6366908Y+4753570D01*
X-8622428Y+4758650D02*
X-8525908Y+4758650D01*
X-7936628Y+4758650D02*
X-7840108Y+4758650D01*
X-7235588Y+4758650D02*
X-7139068Y+4758650D01*
X-6463428Y+4758650D02*
X-6366908Y+4758650D01*
X-8622428Y+4763730D02*
X-8525908Y+4763730D01*
X-7936628Y+4763730D02*
X-7840108Y+4763730D01*
X-7235588Y+4763730D02*
X-7139068Y+4763730D01*
X-6463428Y+4763730D02*
X-6366908Y+4763730D01*
X-8622428Y+4768810D02*
X-8525908Y+4768810D01*
X-7941708Y+4768810D02*
X-7840108Y+4768810D01*
X-7240668Y+4768810D02*
X-7139068Y+4768810D01*
X-6463428Y+4768810D02*
X-6366908Y+4768810D01*
X-8622428Y+4773890D02*
X-8525908Y+4773890D01*
X-7941708Y+4773890D02*
X-7845188Y+4773890D01*
X-7240668Y+4773890D02*
X-7144148Y+4773890D01*
X-6463428Y+4773890D02*
X-6366908Y+4773890D01*
X-8622428Y+4778970D02*
X-8525908Y+4778970D01*
X-7941708Y+4778970D02*
X-7845188Y+4778970D01*
X-7240668Y+4778970D02*
X-7144148Y+4778970D01*
X-6463428Y+4778970D02*
X-6366908Y+4778970D01*
X-8622428Y+4784050D02*
X-8525908Y+4784050D01*
X-7941708Y+4784050D02*
X-7845188Y+4784050D01*
X-7240668Y+4784050D02*
X-7144148Y+4784050D01*
X-6463428Y+4784050D02*
X-6366908Y+4784050D01*
X-8622428Y+4789130D02*
X-8525908Y+4789130D01*
X-7946788Y+4789130D02*
X-7845188Y+4789130D01*
X-7245748Y+4789130D02*
X-7144148Y+4789130D01*
X-6463428Y+4789130D02*
X-6366908Y+4789130D01*
X-8622428Y+4794210D02*
X-8525908Y+4794210D01*
X-8368428Y+4794210D02*
X-7845188Y+4794210D01*
X-7667388Y+4794210D02*
X-7144148Y+4794210D01*
X-6463428Y+4794210D02*
X-6366908Y+4794210D01*
X-8622428Y+4799290D02*
X-8525908Y+4799290D01*
X-8368428Y+4799290D02*
X-7850268Y+4799290D01*
X-7667388Y+4799290D02*
X-7149228Y+4799290D01*
X-6463428Y+4799290D02*
X-6366908Y+4799290D01*
X-8622428Y+4804370D02*
X-8525908Y+4804370D01*
X-8373508Y+4804370D02*
X-7850268Y+4804370D01*
X-7672468Y+4804370D02*
X-7149228Y+4804370D01*
X-6463428Y+4804370D02*
X-6366908Y+4804370D01*
X-8627508Y+4809450D02*
X-8525908Y+4809450D01*
X-8373508Y+4809450D02*
X-7850268Y+4809450D01*
X-7672468Y+4809450D02*
X-7149228Y+4809450D01*
X-6468508Y+4809450D02*
X-6366908Y+4809450D01*
X-8627508Y+4814530D02*
X-8530988Y+4814530D01*
X-8373508Y+4814530D02*
X-7850268Y+4814530D01*
X-7672468Y+4814530D02*
X-7149228Y+4814530D01*
X-6468508Y+4814530D02*
X-6371988Y+4814530D01*
X-8627508Y+4819610D02*
X-8530988Y+4819610D01*
X-8378588Y+4819610D02*
X-7850268Y+4819610D01*
X-7677548Y+4819610D02*
X-7149228Y+4819610D01*
X-6468508Y+4819610D02*
X-6371988Y+4819610D01*
X-8627508Y+4824690D02*
X-8530988Y+4824690D01*
X-8378588Y+4824690D02*
X-7855348Y+4824690D01*
X-7677548Y+4824690D02*
X-7154308Y+4824690D01*
X-6468508Y+4824690D02*
X-6371988Y+4824690D01*
X-8627508Y+4829770D02*
X-8530988Y+4829770D01*
X-8378588Y+4829770D02*
X-7855348Y+4829770D01*
X-7677548Y+4829770D02*
X-7154308Y+4829770D01*
X-6468508Y+4829770D02*
X-6371988Y+4829770D01*
X-8627508Y+4834850D02*
X-8530988Y+4834850D01*
X-8383668Y+4834850D02*
X-7855348Y+4834850D01*
X-7682628Y+4834850D02*
X-7154308Y+4834850D01*
X-6468508Y+4834850D02*
X-6371988Y+4834850D01*
X-8627508Y+4839930D02*
X-8530988Y+4839930D01*
X-8383668Y+4839930D02*
X-7855348Y+4839930D01*
X-7682628Y+4839930D02*
X-7154308Y+4839930D01*
X-6468508Y+4839930D02*
X-6371988Y+4839930D01*
X-8632588Y+4845010D02*
X-8530988Y+4845010D01*
X-8383668Y+4845010D02*
X-7855348Y+4845010D01*
X-7682628Y+4845010D02*
X-7154308Y+4845010D01*
X-6473588Y+4845010D02*
X-6371988Y+4845010D01*
X-8632588Y+4850090D02*
X-8530988Y+4850090D01*
X-8383668Y+4850090D02*
X-7860428Y+4850090D01*
X-7682628Y+4850090D02*
X-7159388Y+4850090D01*
X-6473588Y+4850090D02*
X-6371988Y+4850090D01*
X-8632588Y+4855170D02*
X-8536068Y+4855170D01*
X-8388748Y+4855170D02*
X-7860428Y+4855170D01*
X-7687708Y+4855170D02*
X-7159388Y+4855170D01*
X-6473588Y+4855170D02*
X-6377068Y+4855170D01*
X-8632588Y+4860250D02*
X-8536068Y+4860250D01*
X-8388748Y+4860250D02*
X-7860428Y+4860250D01*
X-7687708Y+4860250D02*
X-7159388Y+4860250D01*
X-6473588Y+4860250D02*
X-6377068Y+4860250D01*
X-8632588Y+4865330D02*
X-8536068Y+4865330D01*
X-8388748Y+4865330D02*
X-7860428Y+4865330D01*
X-7687708Y+4865330D02*
X-7159388Y+4865330D01*
X-6473588Y+4865330D02*
X-6377068Y+4865330D01*
X-8637668Y+4870410D02*
X-8536068Y+4870410D01*
X-8393828Y+4870410D02*
X-7860428Y+4870410D01*
X-7692788Y+4870410D02*
X-7159388Y+4870410D01*
X-6478668Y+4870410D02*
X-6377068Y+4870410D01*
X-8637668Y+4875490D02*
X-8536068Y+4875490D01*
X-8393828Y+4875490D02*
X-7865508Y+4875490D01*
X-7692788Y+4875490D02*
X-7164468Y+4875490D01*
X-6478668Y+4875490D02*
X-6377068Y+4875490D01*
X-8637668Y+4880570D02*
X-8541148Y+4880570D01*
X-7962028Y+4880570D02*
X-7865508Y+4880570D01*
X-7260988Y+4880570D02*
X-7164468Y+4880570D01*
X-6478668Y+4880570D02*
X-6382148Y+4880570D01*
X-8637668Y+4885650D02*
X-8541148Y+4885650D01*
X-7967108Y+4885650D02*
X-7865508Y+4885650D01*
X-7266068Y+4885650D02*
X-7164468Y+4885650D01*
X-6478668Y+4885650D02*
X-6382148Y+4885650D01*
X-8642748Y+4890730D02*
X-8541148Y+4890730D01*
X-7967108Y+4890730D02*
X-7865508Y+4890730D01*
X-7266068Y+4890730D02*
X-7164468Y+4890730D01*
X-6483748Y+4890730D02*
X-6382148Y+4890730D01*
X-8642748Y+4895810D02*
X-8541148Y+4895810D01*
X-7967108Y+4895810D02*
X-7870588Y+4895810D01*
X-7266068Y+4895810D02*
X-7169548Y+4895810D01*
X-6483748Y+4895810D02*
X-6382148Y+4895810D01*
X-8642748Y+4900890D02*
X-8546228Y+4900890D01*
X-7967108Y+4900890D02*
X-7870588Y+4900890D01*
X-7266068Y+4900890D02*
X-7169548Y+4900890D01*
X-6483748Y+4900890D02*
X-6387228Y+4900890D01*
X-8647828Y+4905970D02*
X-8546228Y+4905970D01*
X-7967108Y+4905970D02*
X-7870588Y+4905970D01*
X-7266068Y+4905970D02*
X-7169548Y+4905970D01*
X-6488828Y+4905970D02*
X-6387228Y+4905970D01*
X-8647828Y+4911050D02*
X-8546228Y+4911050D01*
X-7972188Y+4911050D02*
X-7870588Y+4911050D01*
X-7271148Y+4911050D02*
X-7169548Y+4911050D01*
X-6488828Y+4911050D02*
X-6387228Y+4911050D01*
X-8647828Y+4916130D02*
X-8546228Y+4916130D01*
X-7972188Y+4916130D02*
X-7870588Y+4916130D01*
X-7271148Y+4916130D02*
X-7169548Y+4916130D01*
X-6488828Y+4916130D02*
X-6387228Y+4916130D01*
X-8652908Y+4921210D02*
X-8551308Y+4921210D01*
X-7972188Y+4921210D02*
X-7875668Y+4921210D01*
X-7271148Y+4921210D02*
X-7174628Y+4921210D01*
X-6493908Y+4921210D02*
X-6392308Y+4921210D01*
X-8652908Y+4926290D02*
X-8551308Y+4926290D01*
X-7972188Y+4926290D02*
X-7875668Y+4926290D01*
X-7271148Y+4926290D02*
X-7174628Y+4926290D01*
X-6493908Y+4926290D02*
X-6392308Y+4926290D01*
X-8657988Y+4931370D02*
X-8551308Y+4931370D01*
X-7972188Y+4931370D02*
X-7875668Y+4931370D01*
X-7271148Y+4931370D02*
X-7174628Y+4931370D01*
X-6498988Y+4931370D02*
X-6392308Y+4931370D01*
X-8657988Y+4936450D02*
X-8556388Y+4936450D01*
X-7977268Y+4936450D02*
X-7875668Y+4936450D01*
X-7276228Y+4936450D02*
X-7174628Y+4936450D01*
X-6498988Y+4936450D02*
X-6397388Y+4936450D01*
X-8663068Y+4941530D02*
X-8556388Y+4941530D01*
X-7977268Y+4941530D02*
X-7875668Y+4941530D01*
X-7276228Y+4941530D02*
X-7174628Y+4941530D01*
X-6504068Y+4941530D02*
X-6397388Y+4941530D01*
X-8663068Y+4946610D02*
X-8556388Y+4946610D01*
X-7977268Y+4946610D02*
X-7880748Y+4946610D01*
X-7276228Y+4946610D02*
X-7179708Y+4946610D01*
X-6504068Y+4946610D02*
X-6397388Y+4946610D01*
X-8663068Y+4951690D02*
X-8561468Y+4951690D01*
X-7977268Y+4951690D02*
X-7880748Y+4951690D01*
X-7276228Y+4951690D02*
X-7179708Y+4951690D01*
X-6504068Y+4951690D02*
X-6402468Y+4951690D01*
X-8668148Y+4956770D02*
X-8561468Y+4956770D01*
X-7977268Y+4956770D02*
X-7880748Y+4956770D01*
X-7276228Y+4956770D02*
X-7179708Y+4956770D01*
X-6509148Y+4956770D02*
X-6402468Y+4956770D01*
X-8668148Y+4961850D02*
X-8566548Y+4961850D01*
X-7982348Y+4961850D02*
X-7880748Y+4961850D01*
X-7281308Y+4961850D02*
X-7179708Y+4961850D01*
X-6509148Y+4961850D02*
X-6407548Y+4961850D01*
X-8673228Y+4966930D02*
X-8566548Y+4966930D01*
X-7982348Y+4966930D02*
X-7880748Y+4966930D01*
X-7281308Y+4966930D02*
X-7179708Y+4966930D01*
X-6514228Y+4966930D02*
X-6407548Y+4966930D01*
X-9125348Y+4972010D02*
X-9099948Y+4972010D01*
X-8678308Y+4972010D02*
X-8566548Y+4972010D01*
X-7982348Y+4972010D02*
X-7885828Y+4972010D01*
X-7281308Y+4972010D02*
X-7184788Y+4972010D01*
X-6966348Y+4972010D02*
X-6940948Y+4972010D01*
X-6519308Y+4972010D02*
X-6407548Y+4972010D01*
X-9171068Y+4977090D02*
X-9099948Y+4977090D01*
X-8678308Y+4977090D02*
X-8571628Y+4977090D01*
X-7982348Y+4977090D02*
X-7885828Y+4977090D01*
X-7281308Y+4977090D02*
X-7184788Y+4977090D01*
X-7012068Y+4977090D02*
X-6940948Y+4977090D01*
X-6519308Y+4977090D02*
X-6412628Y+4977090D01*
X-9196468Y+4982170D02*
X-9099948Y+4982170D01*
X-8683388Y+4982170D02*
X-8571628Y+4982170D01*
X-7982348Y+4982170D02*
X-7885828Y+4982170D01*
X-7281308Y+4982170D02*
X-7184788Y+4982170D01*
X-7037468Y+4982170D02*
X-6940948Y+4982170D01*
X-6524388Y+4982170D02*
X-6412628Y+4982170D01*
X-9196468Y+4987250D02*
X-9094868Y+4987250D01*
X-8683388Y+4987250D02*
X-8576708Y+4987250D01*
X-7987428Y+4987250D02*
X-7885828Y+4987250D01*
X-7286388Y+4987250D02*
X-7184788Y+4987250D01*
X-7037468Y+4987250D02*
X-6935868Y+4987250D01*
X-6524388Y+4987250D02*
X-6417708Y+4987250D01*
X-9196468Y+4992330D02*
X-9094868Y+4992330D01*
X-8688468Y+4992330D02*
X-8576708Y+4992330D01*
X-7987428Y+4992330D02*
X-7890908Y+4992330D01*
X-7286388Y+4992330D02*
X-7189868Y+4992330D01*
X-7037468Y+4992330D02*
X-6935868Y+4992330D01*
X-6529468Y+4992330D02*
X-6417708Y+4992330D01*
X-9196468Y+4997410D02*
X-9094868Y+4997410D01*
X-8693548Y+4997410D02*
X-8581788Y+4997410D01*
X-7987428Y+4997410D02*
X-7890908Y+4997410D01*
X-7286388Y+4997410D02*
X-7189868Y+4997410D01*
X-7037468Y+4997410D02*
X-6935868Y+4997410D01*
X-6534548Y+4997410D02*
X-6422788Y+4997410D01*
X-9191388Y+5002490D02*
X-9094868Y+5002490D01*
X-8693548Y+5002490D02*
X-8581788Y+5002490D01*
X-7987428Y+5002490D02*
X-7890908Y+5002490D01*
X-7286388Y+5002490D02*
X-7189868Y+5002490D01*
X-7032388Y+5002490D02*
X-6935868Y+5002490D01*
X-6534548Y+5002490D02*
X-6422788Y+5002490D01*
X-9191388Y+5007570D02*
X-9089788Y+5007570D01*
X-8698628Y+5007570D02*
X-8586868Y+5007570D01*
X-7992508Y+5007570D02*
X-7890908Y+5007570D01*
X-7291468Y+5007570D02*
X-7189868Y+5007570D01*
X-7032388Y+5007570D02*
X-6930788Y+5007570D01*
X-6539628Y+5007570D02*
X-6427868Y+5007570D01*
X-9191388Y+5012650D02*
X-9089788Y+5012650D01*
X-8703708Y+5012650D02*
X-8591948Y+5012650D01*
X-7992508Y+5012650D02*
X-7890908Y+5012650D01*
X-7291468Y+5012650D02*
X-7189868Y+5012650D01*
X-7032388Y+5012650D02*
X-6930788Y+5012650D01*
X-6544708Y+5012650D02*
X-6432948Y+5012650D01*
X-9191388Y+5017730D02*
X-9089788Y+5017730D01*
X-8708788Y+5017730D02*
X-8591948Y+5017730D01*
X-7992508Y+5017730D02*
X-7895988Y+5017730D01*
X-7291468Y+5017730D02*
X-7194948Y+5017730D01*
X-7032388Y+5017730D02*
X-6930788Y+5017730D01*
X-6549788Y+5017730D02*
X-6432948Y+5017730D01*
X-9186308Y+5022810D02*
X-9084708Y+5022810D01*
X-8708788Y+5022810D02*
X-8597028Y+5022810D01*
X-7992508Y+5022810D02*
X-7895988Y+5022810D01*
X-7291468Y+5022810D02*
X-7194948Y+5022810D01*
X-7027308Y+5022810D02*
X-6925708Y+5022810D01*
X-6549788Y+5022810D02*
X-6438028Y+5022810D01*
X-9186308Y+5027890D02*
X-9084708Y+5027890D01*
X-8713868Y+5027890D02*
X-8597028Y+5027890D01*
X-7992508Y+5027890D02*
X-7895988Y+5027890D01*
X-7291468Y+5027890D02*
X-7194948Y+5027890D01*
X-7027308Y+5027890D02*
X-6925708Y+5027890D01*
X-6554868Y+5027890D02*
X-6438028Y+5027890D01*
X-9186308Y+5032970D02*
X-9079628Y+5032970D01*
X-8718948Y+5032970D02*
X-8602108Y+5032970D01*
X-7997588Y+5032970D02*
X-7895988Y+5032970D01*
X-7296548Y+5032970D02*
X-7194948Y+5032970D01*
X-7027308Y+5032970D02*
X-6920628Y+5032970D01*
X-6559948Y+5032970D02*
X-6443108Y+5032970D01*
X-9186308Y+5038050D02*
X-9079628Y+5038050D01*
X-8724028Y+5038050D02*
X-8607188Y+5038050D01*
X-7997588Y+5038050D02*
X-7895988Y+5038050D01*
X-7296548Y+5038050D02*
X-7194948Y+5038050D01*
X-7027308Y+5038050D02*
X-6920628Y+5038050D01*
X-6565028Y+5038050D02*
X-6448188Y+5038050D01*
X-9181228Y+5043130D02*
X-9074548Y+5043130D01*
X-8729108Y+5043130D02*
X-8607188Y+5043130D01*
X-7997588Y+5043130D02*
X-7901068Y+5043130D01*
X-7296548Y+5043130D02*
X-7200028Y+5043130D01*
X-7022228Y+5043130D02*
X-6915548Y+5043130D01*
X-6570108Y+5043130D02*
X-6448188Y+5043130D01*
X-9181228Y+5048210D02*
X-9074548Y+5048210D01*
X-8734188Y+5048210D02*
X-8612268Y+5048210D01*
X-7997588Y+5048210D02*
X-7901068Y+5048210D01*
X-7296548Y+5048210D02*
X-7200028Y+5048210D01*
X-7022228Y+5048210D02*
X-6915548Y+5048210D01*
X-6575188Y+5048210D02*
X-6453268Y+5048210D01*
X-9176148Y+5053290D02*
X-9069468Y+5053290D01*
X-8739268Y+5053290D02*
X-8617348Y+5053290D01*
X-7997588Y+5053290D02*
X-7901068Y+5053290D01*
X-7296548Y+5053290D02*
X-7200028Y+5053290D01*
X-7017148Y+5053290D02*
X-6910468Y+5053290D01*
X-6580268Y+5053290D02*
X-6458348Y+5053290D01*
X-9176148Y+5058370D02*
X-9069468Y+5058370D01*
X-8744348Y+5058370D02*
X-8622428Y+5058370D01*
X-8002668Y+5058370D02*
X-7901068Y+5058370D01*
X-7301628Y+5058370D02*
X-7200028Y+5058370D01*
X-7017148Y+5058370D02*
X-6910468Y+5058370D01*
X-6585348Y+5058370D02*
X-6463428Y+5058370D01*
X-9176148Y+5063450D02*
X-9064388Y+5063450D01*
X-8749428Y+5063450D02*
X-8622428Y+5063450D01*
X-8002668Y+5063450D02*
X-7901068Y+5063450D01*
X-7301628Y+5063450D02*
X-7200028Y+5063450D01*
X-7017148Y+5063450D02*
X-6905388Y+5063450D01*
X-6590428Y+5063450D02*
X-6463428Y+5063450D01*
X-9171068Y+5068530D02*
X-9059308Y+5068530D01*
X-8754508Y+5068530D02*
X-8627508Y+5068530D01*
X-8002668Y+5068530D02*
X-7906148Y+5068530D01*
X-7301628Y+5068530D02*
X-7205108Y+5068530D01*
X-7012068Y+5068530D02*
X-6900308Y+5068530D01*
X-6595508Y+5068530D02*
X-6468508Y+5068530D01*
X-9171068Y+5073610D02*
X-9054228Y+5073610D01*
X-8759588Y+5073610D02*
X-8632588Y+5073610D01*
X-8002668Y+5073610D02*
X-7906148Y+5073610D01*
X-7301628Y+5073610D02*
X-7205108Y+5073610D01*
X-7012068Y+5073610D02*
X-6895228Y+5073610D01*
X-6600588Y+5073610D02*
X-6473588Y+5073610D01*
X-9165988Y+5078690D02*
X-9049148Y+5078690D01*
X-8769748Y+5078690D02*
X-8637668Y+5078690D01*
X-8002668Y+5078690D02*
X-7906148Y+5078690D01*
X-7301628Y+5078690D02*
X-7205108Y+5078690D01*
X-7006988Y+5078690D02*
X-6890148Y+5078690D01*
X-6610748Y+5078690D02*
X-6478668Y+5078690D01*
X-9165988Y+5083770D02*
X-9044068Y+5083770D01*
X-8774828Y+5083770D02*
X-8642748Y+5083770D01*
X-8007748Y+5083770D02*
X-7906148Y+5083770D01*
X-7306708Y+5083770D02*
X-7205108Y+5083770D01*
X-7006988Y+5083770D02*
X-6885068Y+5083770D01*
X-6615828Y+5083770D02*
X-6483748Y+5083770D01*
X-9160908Y+5088850D02*
X-9038988Y+5088850D01*
X-8784988Y+5088850D02*
X-8647828Y+5088850D01*
X-8007748Y+5088850D02*
X-7906148Y+5088850D01*
X-7306708Y+5088850D02*
X-7205108Y+5088850D01*
X-7001908Y+5088850D02*
X-6879988Y+5088850D01*
X-6625988Y+5088850D02*
X-6488828Y+5088850D01*
X-9155828Y+5093930D02*
X-9033908Y+5093930D01*
X-8790068Y+5093930D02*
X-8652908Y+5093930D01*
X-8007748Y+5093930D02*
X-7911228Y+5093930D01*
X-7306708Y+5093930D02*
X-7210188Y+5093930D01*
X-6996828Y+5093930D02*
X-6874908Y+5093930D01*
X-6631068Y+5093930D02*
X-6493908Y+5093930D01*
X-9155828Y+5099010D02*
X-9023748Y+5099010D01*
X-8800228Y+5099010D02*
X-8657988Y+5099010D01*
X-8007748Y+5099010D02*
X-7911228Y+5099010D01*
X-7306708Y+5099010D02*
X-7210188Y+5099010D01*
X-6996828Y+5099010D02*
X-6864748Y+5099010D01*
X-6641228Y+5099010D02*
X-6498988Y+5099010D01*
X-9150748Y+5104090D02*
X-9018668Y+5104090D01*
X-8810388Y+5104090D02*
X-8663068Y+5104090D01*
X-8012828Y+5104090D02*
X-7911228Y+5104090D01*
X-7311788Y+5104090D02*
X-7210188Y+5104090D01*
X-6991748Y+5104090D02*
X-6859668Y+5104090D01*
X-6651388Y+5104090D02*
X-6504068Y+5104090D01*
X-9145668Y+5109170D02*
X-9008508Y+5109170D01*
X-8825628Y+5109170D02*
X-8668148Y+5109170D01*
X-8012828Y+5109170D02*
X-7911228Y+5109170D01*
X-7311788Y+5109170D02*
X-7210188Y+5109170D01*
X-6986668Y+5109170D02*
X-6849508Y+5109170D01*
X-6666628Y+5109170D02*
X-6509148Y+5109170D01*
X-9140588Y+5114250D02*
X-8998348Y+5114250D01*
X-8835788Y+5114250D02*
X-8673228Y+5114250D01*
X-8454788Y+5114250D02*
X-7916308Y+5114250D01*
X-7753748Y+5114250D02*
X-7215268Y+5114250D01*
X-6981588Y+5114250D02*
X-6839348Y+5114250D01*
X-6676788Y+5114250D02*
X-6514228Y+5114250D01*
X-9140588Y+5119330D02*
X-8983108Y+5119330D01*
X-8856108Y+5119330D02*
X-8678308Y+5119330D01*
X-8459868Y+5119330D02*
X-7916308Y+5119330D01*
X-7758828Y+5119330D02*
X-7215268Y+5119330D01*
X-6981588Y+5119330D02*
X-6824108Y+5119330D01*
X-6697108Y+5119330D02*
X-6519308Y+5119330D01*
X-9135508Y+5124410D02*
X-8957708Y+5124410D01*
X-8881508Y+5124410D02*
X-8683388Y+5124410D01*
X-8459868Y+5124410D02*
X-7916308Y+5124410D01*
X-7758828Y+5124410D02*
X-7215268Y+5124410D01*
X-6976508Y+5124410D02*
X-6798708Y+5124410D01*
X-6722508Y+5124410D02*
X-6524388Y+5124410D01*
X-9130428Y+5129490D02*
X-8688468Y+5129490D01*
X-8459868Y+5129490D02*
X-7916308Y+5129490D01*
X-7758828Y+5129490D02*
X-7215268Y+5129490D01*
X-6971428Y+5129490D02*
X-6529468Y+5129490D01*
X-9125348Y+5134570D02*
X-8693548Y+5134570D01*
X-8459868Y+5134570D02*
X-7916308Y+5134570D01*
X-7758828Y+5134570D02*
X-7215268Y+5134570D01*
X-6966348Y+5134570D02*
X-6534548Y+5134570D01*
X-9120268Y+5139650D02*
X-8703708Y+5139650D01*
X-8459868Y+5139650D02*
X-7921388Y+5139650D01*
X-7758828Y+5139650D02*
X-7220348Y+5139650D01*
X-6961268Y+5139650D02*
X-6544708Y+5139650D01*
X-9110108Y+5144730D02*
X-8708788Y+5144730D01*
X-8459868Y+5144730D02*
X-7921388Y+5144730D01*
X-7758828Y+5144730D02*
X-7220348Y+5144730D01*
X-6951108Y+5144730D02*
X-6549788Y+5144730D01*
X-9105028Y+5149810D02*
X-8713868Y+5149810D01*
X-8459868Y+5149810D02*
X-7921388Y+5149810D01*
X-7758828Y+5149810D02*
X-7220348Y+5149810D01*
X-6946028Y+5149810D02*
X-6554868Y+5149810D01*
X-9099948Y+5154890D02*
X-8724028Y+5154890D01*
X-8464948Y+5154890D02*
X-7921388Y+5154890D01*
X-7763908Y+5154890D02*
X-7220348Y+5154890D01*
X-6940948Y+5154890D02*
X-6565028Y+5154890D01*
X-9094868Y+5159970D02*
X-8734188Y+5159970D01*
X-8464948Y+5159970D02*
X-7921388Y+5159970D01*
X-7763908Y+5159970D02*
X-7220348Y+5159970D01*
X-6935868Y+5159970D02*
X-6575188Y+5159970D01*
X-9084708Y+5165050D02*
X-8739268Y+5165050D01*
X-8464948Y+5165050D02*
X-7926468Y+5165050D01*
X-7763908Y+5165050D02*
X-7225428Y+5165050D01*
X-6925708Y+5165050D02*
X-6580268Y+5165050D01*
X-9074548Y+5170130D02*
X-8749428Y+5170130D01*
X-8464948Y+5170130D02*
X-7926468Y+5170130D01*
X-7763908Y+5170130D02*
X-7225428Y+5170130D01*
X-6915548Y+5170130D02*
X-6590428Y+5170130D01*
X-9069468Y+5175210D02*
X-8759588Y+5175210D01*
X-8464948Y+5175210D02*
X-7926468Y+5175210D01*
X-7763908Y+5175210D02*
X-7225428Y+5175210D01*
X-6910468Y+5175210D02*
X-6600588Y+5175210D01*
X-9059308Y+5180290D02*
X-8774828Y+5180290D01*
X-8464948Y+5180290D02*
X-7926468Y+5180290D01*
X-7763908Y+5180290D02*
X-7225428Y+5180290D01*
X-6900308Y+5180290D02*
X-6615828Y+5180290D01*
X-9044068Y+5185370D02*
X-8784988Y+5185370D01*
X-8470028Y+5185370D02*
X-7926468Y+5185370D01*
X-7768988Y+5185370D02*
X-7225428Y+5185370D01*
X-6885068Y+5185370D02*
X-6625988Y+5185370D01*
X-9033908Y+5190450D02*
X-8800228Y+5190450D01*
X-8470028Y+5190450D02*
X-7931548Y+5190450D01*
X-7768988Y+5190450D02*
X-7230508Y+5190450D01*
X-6874908Y+5190450D02*
X-6641228Y+5190450D01*
X-9018668Y+5195530D02*
X-8815468Y+5195530D01*
X-8470028Y+5195530D02*
X-7931548Y+5195530D01*
X-7768988Y+5195530D02*
X-7230508Y+5195530D01*
X-6859668Y+5195530D02*
X-6656468Y+5195530D01*
X-8993268Y+5200610D02*
X-8840868Y+5200610D01*
X-6834268Y+5200610D02*
X-6681868Y+5200610D01*
X-8962788Y+5205690D02*
X-8871348Y+5205690D01*
X-6803788Y+5205690D02*
X-6712348Y+5205690D01*
M02*
