G04 PROTEUS GERBER X2 FILE*
%TF.GenerationSoftware,Labcenter,Proteus,8.6-SP2-Build23525*%
%TF.CreationDate,2019-05-04T20:14:25+00:00*%
%TF.FileFunction,Copper,L2,Bot*%
%TF.FilePolarity,Positive*%
%TF.Part,Single*%
%FSLAX45Y45*%
%MOMM*%
G01*
%TA.AperFunction,Conductor*%
%ADD11C,0.762000*%
%TA.AperFunction,ViaPad*%
%ADD12C,0.762000*%
%TA.AperFunction,ComponentPad*%
%ADD14R,2.032000X2.032000*%
%TA.AperFunction,ComponentPad*%
%ADD15R,2.540000X2.540000*%
%ADD16C,2.540000*%
%AMPPAD007*
4,1,36,
-2.413000,-1.092200,
-2.413000,1.092200,
-2.406940,1.154520,
-2.389490,1.212160,
-2.361770,1.263980,
-2.324890,1.308890,
-2.279980,1.345760,
-2.228160,1.373480,
-2.170520,1.390930,
-2.108200,1.397000,
2.108200,1.397000,
2.170520,1.390930,
2.228160,1.373480,
2.279980,1.345760,
2.324890,1.308890,
2.361770,1.263980,
2.389490,1.212160,
2.406940,1.154520,
2.413000,1.092200,
2.413000,-1.092200,
2.406940,-1.154520,
2.389490,-1.212160,
2.361770,-1.263980,
2.324890,-1.308890,
2.279980,-1.345760,
2.228160,-1.373480,
2.170520,-1.390930,
2.108200,-1.397000,
-2.108200,-1.397000,
-2.170520,-1.390930,
-2.228160,-1.373480,
-2.279980,-1.345760,
-2.324890,-1.308890,
-2.361770,-1.263980,
-2.389490,-1.212160,
-2.406940,-1.154520,
-2.413000,-1.092200,
0*%
%TA.AperFunction,ComponentPad*%
%ADD17PPAD007*%
%AMDIL008*
4,1,8,
-0.762000,0.965200,-0.457200,1.270000,0.457200,1.270000,0.762000,0.965200,0.762000,-0.965200,
0.457200,-1.270000,-0.457200,-1.270000,-0.762000,-0.965200,-0.762000,0.965200,
0*%
%ADD18DIL008*%
%TA.AperFunction,ComponentPad*%
%ADD19C,1.778000*%
%TA.AperFunction,OtherPad,Unknown*%
%ADD71C,4.000000*%
%TA.AperFunction,Profile*%
%ADD20C,0.203200*%
%TD.AperFunction*%
D11*
X-8396000Y-2200000D02*
X-7700000Y-2200000D01*
X-7636000Y-2200000D01*
X-8650000Y-2450000D02*
X-6874000Y-2450000D01*
X-10280000Y+2680000D02*
X-9660000Y+2680000D01*
X-6500000Y+2680000D02*
X-6500000Y+1471600D01*
X-6492000Y+1370000D01*
X-10110000Y+2500000D02*
X-9460000Y+2490000D01*
X-6238000Y+2490000D02*
X-6238000Y+1370000D01*
X-5100000Y+1110000D02*
X-5860000Y+1110000D01*
X-7000000Y+1370000D02*
X-7000000Y+1650000D01*
X-7080000Y+1730000D01*
X-9670000Y+1730000D01*
X-9770000Y+1630000D01*
X-9770000Y-1340000D01*
X-9630000Y-1480000D01*
X-8980000Y-1480000D01*
X-8906000Y-1554000D01*
X-8906000Y-1950000D01*
X-6746000Y+1370000D02*
X-6746000Y+1820000D01*
X-6886000Y+1960000D01*
X-9820000Y+1960000D01*
X-9960000Y+1820000D01*
X-9960000Y-2050000D01*
X-9840000Y-2170000D01*
X-8740000Y-2170000D01*
X-8652000Y-2082000D01*
X-8652000Y-1950000D01*
X-5220000Y-2440000D02*
X-6016000Y-2440000D01*
X-6096000Y-2520000D01*
X-6096000Y-2598400D01*
X-6096000Y-2700000D01*
X-6016000Y-2440000D02*
X-6030000Y-2440000D01*
X-6096000Y-2506000D01*
X-6096000Y-2520000D01*
X-6096000Y-2598400D01*
X-6096000Y-2700000D01*
X-4650000Y-2250000D02*
X-4738900Y-2230000D01*
X-4990000Y-2230000D01*
X-5110000Y-2110000D01*
X-5110000Y+610000D01*
X-5150000Y+650000D01*
X-5290000Y+790000D01*
X-7140000Y+790000D01*
X-7254000Y+904000D01*
X-7254000Y+1370000D01*
X-9160000Y+490000D02*
X-9190000Y+388400D01*
X-9190000Y+340000D01*
X-9290000Y+240000D01*
X-9550000Y+240000D01*
X-9630000Y+320000D01*
X-9630000Y+1050000D01*
X-9550000Y+1130000D01*
X-8840000Y+1130000D01*
X-8778000Y+1192000D01*
X-8778000Y+1370000D01*
D12*
X-8396000Y-2200000D03*
X-7636000Y-2200000D03*
X-8650000Y-2450000D03*
X-6874000Y-2450000D03*
X-10280000Y+2680000D03*
X-9660000Y+2680000D03*
X-6500000Y+2680000D03*
X-10110000Y+2500000D03*
X-9460000Y+2490000D03*
X-6238000Y+2490000D03*
X-5100000Y+1110000D03*
X-5860000Y+1110000D03*
X-5220000Y-2440000D03*
D14*
X-9540000Y+1370000D03*
X-9286000Y+1370000D03*
X-9032000Y+1370000D03*
X-8778000Y+1370000D03*
X-8524000Y+1370000D03*
X-8270000Y+1370000D03*
X-8016000Y+1370000D03*
X-7762000Y+1370000D03*
X-7508000Y+1370000D03*
X-7254000Y+1370000D03*
X-7000000Y+1370000D03*
X-6746000Y+1370000D03*
X-6492000Y+1370000D03*
X-6238000Y+1370000D03*
X-5984000Y+1370000D03*
X-5994000Y+2900000D03*
X-6248000Y+2900000D03*
X-6502000Y+2900000D03*
X-6756000Y+2900000D03*
X-7010000Y+2900000D03*
X-7264000Y+2900000D03*
X-7518000Y+2900000D03*
X-7772000Y+2900000D03*
X-8026000Y+2900000D03*
X-8280000Y+2900000D03*
X-8534000Y+2900000D03*
X-8788000Y+2900000D03*
X-9042000Y+2900000D03*
X-9296000Y+2900000D03*
X-9550000Y+2900000D03*
X-9414000Y-1950000D03*
X-9160000Y-1950000D03*
X-8906000Y-1950000D03*
X-8652000Y-1950000D03*
X-8398000Y-1950000D03*
X-8144000Y-1950000D03*
X-7890000Y-1950000D03*
X-7636000Y-1950000D03*
X-7382000Y-1950000D03*
X-7128000Y-1950000D03*
X-6874000Y-1950000D03*
X-6620000Y-1950000D03*
X-6366000Y-1950000D03*
X-6112000Y-1950000D03*
X-5858000Y-1950000D03*
X-5858000Y+490000D03*
X-6112000Y+490000D03*
X-6366000Y+490000D03*
X-6620000Y+490000D03*
X-6874000Y+490000D03*
X-7128000Y+490000D03*
X-7382000Y+490000D03*
X-7636000Y+490000D03*
X-7890000Y+490000D03*
X-8144000Y+490000D03*
X-8398000Y+490000D03*
X-8652000Y+490000D03*
X-8906000Y+490000D03*
X-9160000Y+490000D03*
X-9414000Y+490000D03*
D15*
X-5800000Y+3700000D03*
D16*
X-5810000Y+5570000D03*
D15*
X-9830000Y+3710000D03*
D16*
X-9820000Y+5580000D03*
D17*
X-4700000Y+4450000D03*
X-4700000Y+5150000D03*
D18*
X-4350000Y+4820000D03*
D14*
X-4650000Y+3250000D03*
X-4650000Y+3758000D03*
X-4650000Y+2050000D03*
X-4650000Y+2558000D03*
X-4650000Y+850000D03*
X-4650000Y+1358000D03*
X-4650000Y-400000D03*
X-4650000Y+108000D03*
X-8650000Y-2700000D03*
X-8396000Y-2700000D03*
X-8142000Y-2700000D03*
X-7888000Y-2700000D03*
X-7634000Y-2700000D03*
X-7380000Y-2700000D03*
X-7126000Y-2700000D03*
X-6872000Y-2700000D03*
D19*
X-5400000Y+5062000D03*
X-5400000Y+4300000D03*
D14*
X-5588000Y-2700000D03*
X-5842000Y-2700000D03*
X-6096000Y-2700000D03*
X-6350000Y-2700000D03*
X-9750000Y-2650000D03*
X-9242000Y-2650000D03*
D19*
X-4650000Y-1500000D03*
X-4650000Y-1250000D03*
X-4650000Y-2500000D03*
X-4650000Y-2250000D03*
D71*
X-10120000Y+5910000D03*
X-3940000Y+5910000D03*
X-10130000Y-3150000D03*
X-3940000Y-3150000D03*
D20*
X-10400000Y-3430000D02*
X-3650000Y-3430000D01*
X-3650000Y+6180000D01*
X-10400000Y+6180000D01*
X-10400000Y-3430000D01*
M02*
