G04 PROTEUS GERBER X2 FILE*
%TF.GenerationSoftware,Labcenter,Proteus,8.6-SP2-Build23525*%
%TF.CreationDate,2019-05-04T20:14:25+00:00*%
%TF.FileFunction,Plated,1,2,PTH*%
%TF.FilePolarity,Positive*%
%TF.Part,Single*%
%FSLAX45Y45*%
%MOMM*%
G01*
%TA.AperFunction,ViaDrill*%
%ADD43C,0.381000*%
%TA.AperFunction,ComponentDrill*%
%ADD44C,1.016000*%
%TA.AperFunction,ComponentDrill*%
%ADD45C,1.270000*%
%ADD46C,1.143000*%
%TA.AperFunction,ComponentDrill*%
%ADD47C,1.778000*%
%ADD48C,0.762000*%
%TA.AperFunction,OtherDrill,Unknown*%
%ADD49C,3.050000*%
%TD.AperFunction*%
D43*
X-8396000Y-2200000D03*
X-7636000Y-2200000D03*
X-8650000Y-2450000D03*
X-6874000Y-2450000D03*
X-10280000Y+2680000D03*
X-9660000Y+2680000D03*
X-6500000Y+2680000D03*
X-10110000Y+2500000D03*
X-9460000Y+2490000D03*
X-6238000Y+2490000D03*
X-5100000Y+1110000D03*
X-5860000Y+1110000D03*
X-5220000Y-2440000D03*
D44*
X-9540000Y+1370000D03*
X-9286000Y+1370000D03*
X-9032000Y+1370000D03*
X-8778000Y+1370000D03*
X-8524000Y+1370000D03*
X-8270000Y+1370000D03*
X-8016000Y+1370000D03*
X-7762000Y+1370000D03*
X-7508000Y+1370000D03*
X-7254000Y+1370000D03*
X-7000000Y+1370000D03*
X-6746000Y+1370000D03*
X-6492000Y+1370000D03*
X-6238000Y+1370000D03*
X-5984000Y+1370000D03*
X-5994000Y+2900000D03*
X-6248000Y+2900000D03*
X-6502000Y+2900000D03*
X-6756000Y+2900000D03*
X-7010000Y+2900000D03*
X-7264000Y+2900000D03*
X-7518000Y+2900000D03*
X-7772000Y+2900000D03*
X-8026000Y+2900000D03*
X-8280000Y+2900000D03*
X-8534000Y+2900000D03*
X-8788000Y+2900000D03*
X-9042000Y+2900000D03*
X-9296000Y+2900000D03*
X-9550000Y+2900000D03*
X-9414000Y-1950000D03*
X-9160000Y-1950000D03*
X-8906000Y-1950000D03*
X-8652000Y-1950000D03*
X-8398000Y-1950000D03*
X-8144000Y-1950000D03*
X-7890000Y-1950000D03*
X-7636000Y-1950000D03*
X-7382000Y-1950000D03*
X-7128000Y-1950000D03*
X-6874000Y-1950000D03*
X-6620000Y-1950000D03*
X-6366000Y-1950000D03*
X-6112000Y-1950000D03*
X-5858000Y-1950000D03*
X-5858000Y+490000D03*
X-6112000Y+490000D03*
X-6366000Y+490000D03*
X-6620000Y+490000D03*
X-6874000Y+490000D03*
X-7128000Y+490000D03*
X-7382000Y+490000D03*
X-7636000Y+490000D03*
X-7890000Y+490000D03*
X-8144000Y+490000D03*
X-8398000Y+490000D03*
X-8652000Y+490000D03*
X-8906000Y+490000D03*
X-9160000Y+490000D03*
X-9414000Y+490000D03*
D45*
X-5800000Y+3700000D03*
D46*
X-5810000Y+5570000D03*
D45*
X-9830000Y+3710000D03*
D46*
X-9820000Y+5580000D03*
D47*
X-4700000Y+4450000D03*
X-4700000Y+5150000D03*
D48*
X-4350000Y+4820000D03*
D44*
X-4650000Y+3250000D03*
X-4650000Y+3758000D03*
X-4650000Y+2050000D03*
X-4650000Y+2558000D03*
X-4650000Y+850000D03*
X-4650000Y+1358000D03*
X-4650000Y-400000D03*
X-4650000Y+108000D03*
X-8650000Y-2700000D03*
X-8396000Y-2700000D03*
X-8142000Y-2700000D03*
X-7888000Y-2700000D03*
X-7634000Y-2700000D03*
X-7380000Y-2700000D03*
X-7126000Y-2700000D03*
X-6872000Y-2700000D03*
D48*
X-5400000Y+5062000D03*
X-5400000Y+4300000D03*
D44*
X-5588000Y-2700000D03*
X-5842000Y-2700000D03*
X-6096000Y-2700000D03*
X-6350000Y-2700000D03*
X-9750000Y-2650000D03*
X-9242000Y-2650000D03*
D48*
X-4650000Y-1500000D03*
X-4650000Y-1250000D03*
X-4650000Y-2500000D03*
X-4650000Y-2250000D03*
D49*
X-10120000Y+5910000D03*
X-3940000Y+5910000D03*
X-10130000Y-3150000D03*
X-3940000Y-3150000D03*
M02*
