G04 PROTEUS GERBER X2 FILE*
%TF.GenerationSoftware,Labcenter,Proteus,8.6-SP2-Build23525*%
%TF.CreationDate,2019-05-24T14:24:23+00:00*%
%TF.FileFunction,Copper,L2,Bot*%
%TF.FilePolarity,Positive*%
%TF.Part,Single*%
%FSLAX45Y45*%
%MOMM*%
G01*
%TA.AperFunction,Conductor*%
%ADD10C,0.508000*%
%ADD11C,0.762000*%
%TA.AperFunction,ViaPad*%
%ADD12C,0.508000*%
%TA.AperFunction,Conductor*%
%ADD13C,0.254000*%
%TA.AperFunction,SMDPad,CuDef*%
%ADD27R,0.609600X0.558800*%
%TA.AperFunction,ComponentPad*%
%ADD16R,1.905000X1.905000*%
%TA.AperFunction,ComponentPad*%
%ADD17R,2.032000X2.032000*%
%TA.AperFunction,SMDPad,CuDef*%
%ADD71R,0.558800X0.609600*%
%TA.AperFunction,ComponentPad*%
%ADD18C,2.032000*%
%AMPPAD009*
4,1,36,
-0.584200,1.270000,
0.584200,1.270000,
0.646520,1.263940,
0.704160,1.246490,
0.755980,1.218770,
0.800890,1.181890,
0.837760,1.136980,
0.865480,1.085160,
0.882930,1.027520,
0.889000,0.965200,
0.889000,-0.965200,
0.882930,-1.027520,
0.865480,-1.085160,
0.837760,-1.136980,
0.800890,-1.181890,
0.755980,-1.218770,
0.704160,-1.246490,
0.646520,-1.263940,
0.584200,-1.270000,
-0.584200,-1.270000,
-0.646520,-1.263940,
-0.704160,-1.246490,
-0.755980,-1.218770,
-0.800890,-1.181890,
-0.837760,-1.136980,
-0.865480,-1.085160,
-0.882930,-1.027520,
-0.889000,-0.965200,
-0.889000,0.965200,
-0.882930,1.027520,
-0.865480,1.085160,
-0.837760,1.136980,
-0.800890,1.181890,
-0.755980,1.218770,
-0.704160,1.246490,
-0.646520,1.263940,
-0.584200,1.270000,
0*%
%TA.AperFunction,ComponentPad*%
%ADD19PPAD009*%
%TA.AperFunction,ComponentPad*%
%ADD70R,2.540000X2.540000*%
%TA.AperFunction,ComponentPad*%
%ADD20C,4.572000*%
%TA.AperFunction,TestPad*%
%ADD21C,0.279400*%
%TA.AperFunction,ComponentPad*%
%ADD22R,1.778000X1.778000*%
%ADD23C,1.778000*%
%TA.AperFunction,OtherPad,Unknown*%
%ADD24C,4.000000*%
%TA.AperFunction,Profile*%
%ADD25C,0.203200*%
%TD.AperFunction*%
G36*
X+1833641Y+4026359D02*
X-2125771Y+4026359D01*
X-2176359Y+3975771D01*
X-2176359Y+3950000D01*
X-2483801Y+3950000D01*
X-2483801Y+3994405D01*
X-2645595Y+4156199D01*
X-2874405Y+4156199D01*
X-3036199Y+3994405D01*
X-3036199Y+3950000D01*
X-6083801Y+3950000D01*
X-6083801Y+3984405D01*
X-6245595Y+4146199D01*
X-6474405Y+4146199D01*
X-6636199Y+3984405D01*
X-6636199Y+3950000D01*
X-6813641Y+3950000D01*
X-6813641Y+7130000D01*
X-6561449Y+7130000D01*
X-6561449Y+7038551D01*
X-6218551Y+7038551D01*
X-6218551Y+7130000D01*
X-5271902Y+7130000D01*
X-5303522Y+7098380D01*
X-5303522Y+6984139D01*
X-5306679Y+6984139D01*
X-5306679Y+6675861D01*
X-5301599Y+6675861D01*
X-5301599Y+6605971D01*
X-5221758Y+6526130D01*
X-5172880Y+6546376D01*
X-5155836Y+6546376D01*
X-5143784Y+6558428D01*
X-5096321Y+6578088D01*
X-5096321Y+6675861D01*
X-5093321Y+6675861D01*
X-5093321Y+6984139D01*
X-5100324Y+6984139D01*
X-5100324Y+7098380D01*
X-5131944Y+7130000D01*
X-3121599Y+7130000D01*
X-3121599Y+7014337D01*
X-3116775Y+7009512D01*
X-3057260Y+6949997D01*
X-3026430Y+6949997D01*
X-3026430Y+6539128D01*
X-3025606Y+6538303D01*
X-2966091Y+6478788D01*
X-2917799Y+6478788D01*
X-2917799Y+6060201D01*
X-2562201Y+6060201D01*
X-2562201Y+7130000D01*
X-1485824Y+7130000D01*
X-1409023Y+7053199D01*
X-1775199Y+7053199D01*
X-1775199Y+6646801D01*
X-1368801Y+6646801D01*
X-1368801Y+7012977D01*
X-1321195Y+6965371D01*
X-1275199Y+6965371D01*
X-1275199Y+6646801D01*
X-1030483Y+6646801D01*
X-985281Y+6601599D01*
X-1897917Y+6601599D01*
X-1943119Y+6646801D01*
X-1868801Y+6646801D01*
X-1868801Y+7053199D01*
X-2275199Y+7053199D01*
X-2275199Y+6646801D01*
X-2173599Y+6646801D01*
X-2173599Y+6589917D01*
X-1988881Y+6405199D01*
X-2407099Y+6405199D01*
X-2407099Y+5998801D01*
X+974095Y+5998801D01*
X+974095Y+5898103D01*
X-2435342Y+5898103D01*
X-2621599Y+5711846D01*
X-2621599Y+5651449D01*
X-2871449Y+5651449D01*
X-2871449Y+5308551D01*
X-2621599Y+5308551D01*
X-2621599Y+4777917D01*
X-2382083Y+4538401D01*
X-2315199Y+4538401D01*
X-2315199Y+4176801D01*
X-1908801Y+4176801D01*
X-1908801Y+4583199D01*
X-1937237Y+4583199D01*
X-1879207Y+4641229D01*
X-1425089Y+4641229D01*
X-1308401Y+4757917D01*
X-1308401Y+4832201D01*
X-724201Y+4832201D01*
X-724201Y+5187799D01*
X-1137558Y+5187799D01*
X-1131481Y+5193876D01*
X-1131481Y+5236801D01*
X+1223099Y+5236801D01*
X+1223099Y+5643199D01*
X-1383794Y+5643199D01*
X-1383794Y+5650983D01*
X-1427718Y+5694907D01*
X+1066500Y+5694907D01*
X+1177293Y+5805700D01*
X+1177293Y+5998801D01*
X+1225099Y+5998801D01*
X+1225099Y+6405199D01*
X+907599Y+6405199D01*
X+907599Y+6428514D01*
X+730912Y+6605201D01*
X+794252Y+6605201D01*
X+972799Y+6783748D01*
X+972799Y+7036252D01*
X+879051Y+7130000D01*
X+1156949Y+7130000D01*
X+1063201Y+7036252D01*
X+1063201Y+6783748D01*
X+1241748Y+6605201D01*
X+1494252Y+6605201D01*
X+1672799Y+6783748D01*
X+1672799Y+7036252D01*
X+1579051Y+7130000D01*
X+1833641Y+7130000D01*
X+1833641Y+4026359D01*
G37*
%LPC*%
G36*
X-6561449Y+6538551D02*
X-6561449Y+6881449D01*
X-6218551Y+6881449D01*
X-6218551Y+6538551D01*
X-6561449Y+6538551D01*
G37*
G36*
X-3192201Y+6502201D02*
X-3192201Y+5740201D01*
X-3547799Y+5740201D01*
X-3547799Y+5773321D01*
X-3784139Y+5773321D01*
X-3784139Y+5940456D01*
X-3788910Y+5945227D01*
X-3788910Y+4986942D01*
X-3783567Y+4981599D01*
X-3507799Y+4981599D01*
X-3507799Y+5057799D01*
X-3301599Y+5057799D01*
X-3301599Y+5308551D01*
X-3371449Y+5308551D01*
X-3371449Y+5651449D01*
X-3028551Y+5651449D01*
X-3028551Y+5308551D01*
X-3098401Y+5308551D01*
X-3098401Y+5121131D01*
X-3042092Y+5064822D01*
X-3042092Y+4474226D01*
X-3167917Y+4348401D01*
X-4019106Y+4348401D01*
X-4102035Y+4431330D01*
X-4102035Y+6016323D01*
X-4164231Y+5954127D01*
X-5393035Y+5954127D01*
X-5624609Y+6185701D01*
X-6162201Y+6185701D01*
X-6162201Y+4890299D01*
X-6011343Y+4890299D01*
X-5927343Y+4974299D01*
X-5707799Y+4974299D01*
X-5707799Y+5057799D01*
X-5352201Y+5057799D01*
X-5352201Y+4556353D01*
X-5456353Y+4452201D01*
X-5603647Y+4452201D01*
X-5707799Y+4556353D01*
X-5707799Y+4745701D01*
X-5832657Y+4745701D01*
X-5916657Y+4661701D01*
X-6162201Y+4661701D01*
X-6162201Y+4344201D01*
X-6517799Y+4344201D01*
X-6517799Y+6477799D01*
X-6162201Y+6477799D01*
X-6162201Y+6414299D01*
X-5529923Y+6414299D01*
X-5298349Y+6182725D01*
X-4258917Y+6182725D01*
X-4257344Y+6184298D01*
X-4251174Y+6184298D01*
X-4276037Y+6209162D01*
X-4276037Y+6293329D01*
X-4216522Y+6352844D01*
X-4132354Y+6352844D01*
X-4072839Y+6293328D01*
X-3953804Y+6174293D01*
X-3877156Y+6250941D01*
X-3792990Y+6250941D01*
X-3787951Y+6245902D01*
X-3547799Y+6245902D01*
X-3547799Y+6857799D01*
X-3192201Y+6857799D01*
X-3192201Y+6502201D01*
G37*
G36*
X-5752459Y+6053228D02*
X-5752459Y+5581862D01*
X-5819414Y+5514907D01*
X-5914102Y+5514907D01*
X-5981057Y+5581862D01*
X-5981057Y+6053228D01*
X-5914102Y+6120183D01*
X-5819414Y+6120183D01*
X-5752459Y+6053228D01*
G37*
G36*
X-3714333Y+5630077D02*
X-3714333Y+5661641D01*
X-3692015Y+5683959D01*
X-3660451Y+5683959D01*
X-3638133Y+5661641D01*
X-3638133Y+5630077D01*
X-3660451Y+5607759D01*
X-3692015Y+5607759D01*
X-3714333Y+5630077D01*
G37*
G36*
X-1408801Y+4176801D02*
X-1815199Y+4176801D01*
X-1815199Y+4583199D01*
X-1408801Y+4583199D01*
X-1408801Y+4176801D01*
G37*
G36*
X-428801Y+4186801D02*
X-835199Y+4186801D01*
X-835199Y+4593199D01*
X-428801Y+4593199D01*
X-428801Y+4186801D01*
G37*
G36*
X-928801Y+4186801D02*
X-1335199Y+4186801D01*
X-1335199Y+4593199D01*
X-928801Y+4593199D01*
X-928801Y+4186801D01*
G37*
G36*
X+601199Y+4186801D02*
X+194801Y+4186801D01*
X+194801Y+4593199D01*
X+601199Y+4593199D01*
X+601199Y+4186801D01*
G37*
G36*
X+101199Y+4186801D02*
X-305199Y+4186801D01*
X-305199Y+4593199D01*
X+101199Y+4593199D01*
X+101199Y+4186801D01*
G37*
G36*
X+1681199Y+4176801D02*
X+1274801Y+4176801D01*
X+1274801Y+4583199D01*
X+1681199Y+4583199D01*
X+1681199Y+4176801D01*
G37*
G36*
X+1181199Y+4176801D02*
X+774801Y+4176801D01*
X+774801Y+4583199D01*
X+1181199Y+4583199D01*
X+1181199Y+4176801D01*
G37*
G36*
X+1288551Y+5448551D02*
X+1288551Y+5791449D01*
X+1631449Y+5791449D01*
X+1631449Y+5448551D01*
X+1288551Y+5448551D01*
G37*
G36*
X+1288551Y+5948551D02*
X+1288551Y+6291449D01*
X+1631449Y+6291449D01*
X+1631449Y+5948551D01*
X+1288551Y+5948551D01*
G37*
%LPD*%
G36*
X-3897491Y+4808159D02*
X-3867733Y+4778401D01*
X-3507799Y+4778401D01*
X-3507799Y+4556353D01*
X-3503045Y+4551599D01*
X-3898837Y+4551599D01*
X-3898837Y+4809505D01*
X-3897491Y+4808159D01*
G37*
D10*
X-5201923Y+7056296D02*
X-5201923Y+6881923D01*
X-5200000Y+6880000D01*
X-5200000Y+6780000D02*
X-5200000Y+6648054D01*
X-5197920Y+6645974D01*
X-5197920Y+6647975D01*
D11*
X-5866758Y+5629206D02*
X-5866758Y+6005884D01*
X-6340000Y+4776000D02*
X-5964000Y+4776000D01*
X-5880000Y+4860000D01*
X-5631600Y+4860000D01*
X-5530000Y+4880000D01*
X-6340000Y+4522000D02*
X-6340000Y+4776000D01*
X-6390000Y+6710000D02*
X-6615053Y+6484947D01*
X-6615053Y+5114720D01*
X-6516275Y+5015942D01*
X-6441600Y+5015942D01*
X-6340000Y+5030000D01*
X-6340000Y+6300000D02*
X-5577266Y+6300000D01*
X-5345692Y+6068426D01*
X-4211574Y+6068426D01*
X-4210000Y+6070000D01*
D10*
X-3394381Y+5880000D02*
X-3624381Y+5650000D01*
X-3672092Y+5650000D01*
X-3676233Y+5645859D01*
X-3580000Y+5880000D02*
X-3394381Y+5880000D01*
X-3365726Y+5908655D01*
X-3370000Y+5918000D01*
D11*
X-2740000Y+7000000D02*
X-2526668Y+7000000D01*
X-2483334Y+6956666D01*
X-2483334Y+5976666D01*
X-2560000Y+5900000D01*
X-2740000Y+5900000D01*
D10*
X-3370000Y+5918000D02*
X-2758000Y+5918000D01*
X-2740000Y+5900000D01*
X-3690000Y+5990000D02*
X-3680000Y+5980000D01*
X-3680000Y+5880000D01*
X-3330000Y+4880000D02*
X-3825650Y+4880000D01*
X-3890509Y+4944859D01*
X-3890509Y+6093906D01*
X-3835073Y+6149342D01*
X-3830034Y+6144303D01*
X-3471600Y+6144303D01*
X-3370000Y+6172000D01*
X-3200000Y+5480000D02*
X-3200000Y+5079048D01*
X-3143691Y+5022739D01*
X-3143691Y+4516309D01*
X-3210000Y+4450000D01*
X-3977023Y+4450000D01*
X-4000436Y+4473413D01*
X-4000436Y+6077243D01*
X-4174438Y+6251245D01*
X-2710000Y+5502635D02*
X-2700000Y+5480000D01*
X-2740000Y+5900000D02*
X-2710000Y+5870000D01*
X-2710000Y+5502635D01*
X-2680440Y+5473075D01*
X-2700000Y+5480000D01*
X-1664000Y+5010000D02*
X-1664000Y+5098793D01*
X-1554251Y+5208542D01*
X-1260497Y+5208542D01*
X-1233080Y+5235959D01*
X-1233080Y+5313000D01*
X-1226000Y+5440000D01*
X-2172000Y+5010000D02*
X-2172000Y+5129387D01*
X-2098181Y+5203206D01*
X-1784600Y+5203206D01*
X-1735604Y+5252202D01*
X-1729724Y+5258082D01*
X-1729724Y+5313000D01*
X-1734000Y+5440000D01*
X-1918000Y+5010000D02*
X-1918000Y+4871859D01*
X-1994307Y+4795552D01*
X-2303968Y+4795552D01*
X-2425480Y+4917064D01*
X-2425480Y+5576520D01*
X-2342000Y+5660000D01*
X-1536493Y+5660000D01*
X-1485393Y+5608900D01*
X-1485393Y+5405073D01*
X-1482780Y+5402460D01*
X-1480000Y+5440000D01*
X-2112000Y+4380000D02*
X-1869306Y+4622694D01*
X-1581506Y+4622694D01*
X-1134694Y+4622694D01*
X-1132000Y+4620000D01*
X-1132000Y+4390000D02*
X-1132000Y+4620000D01*
X-1132000Y+4986000D01*
X-1156000Y+5010000D01*
X-102000Y+4390000D02*
X-102000Y+4617140D01*
X-104860Y+4620000D01*
X-1132000Y+4620000D02*
X-104860Y+4620000D01*
X-1156000Y+5010000D02*
X-1156000Y+5144000D01*
X-1080000Y+5220000D01*
X-500000Y+5220000D01*
X-460000Y+5260000D01*
X-460000Y+5410000D01*
X-470000Y+5420000D01*
X-464000Y+5440000D01*
X-1410000Y+5010000D02*
X-1410000Y+4800000D01*
X-1467172Y+4742828D01*
X-1877512Y+4742828D01*
X-1921290Y+4742828D01*
X-2024118Y+4640000D01*
X-2340000Y+4640000D01*
X-2520000Y+4820000D01*
X-2520000Y+5669763D01*
X-2393258Y+5796505D01*
X+1024416Y+5796505D01*
X+1075694Y+5847783D01*
X+1075694Y+6186306D01*
X+1060000Y+6202000D01*
X+1460000Y+5620000D02*
X+1373489Y+5620000D01*
X+1277221Y+5716268D01*
X+1277221Y+6754757D01*
X+1346674Y+6824210D01*
X+1368000Y+6910000D01*
X-2740000Y+7000000D02*
X-2633849Y+7106151D01*
X-1587416Y+7106151D01*
X-1533905Y+7052640D01*
X-1533905Y+6977000D01*
X-1572000Y+6850000D01*
X+44000Y+6202000D02*
X+44000Y+6536000D01*
X-50000Y+6630000D01*
X-870000Y+6630000D01*
X-963000Y+6723000D01*
X-1072000Y+6850000D01*
X-2072000Y+6850000D02*
X-2072000Y+6632000D01*
X-1940000Y+6500000D01*
X-294993Y+6500000D01*
X-210619Y+6415626D01*
X-210619Y+6183418D01*
X-207047Y+6179846D01*
X-210000Y+6202000D01*
X+806000Y+6202000D02*
X+806000Y+6386431D01*
X+687652Y+6504779D01*
X+505221Y+6504779D01*
X+300000Y+6710000D01*
X+300000Y+7053847D01*
X+183033Y+7170814D01*
X-1089315Y+7170814D01*
X-1181928Y+7263427D01*
X-1288501Y+7370000D01*
X-2990000Y+7370000D01*
X-3020000Y+7340000D01*
X-3020000Y+7056420D01*
X-3015176Y+7051596D01*
X+552000Y+6202000D02*
X+552000Y+6332257D01*
X+495315Y+6388942D01*
X+383149Y+6388942D01*
X+148774Y+6623317D01*
X+148774Y+6951226D01*
X+60000Y+7040000D01*
X+33030Y+7066970D01*
X+32792Y+7066970D01*
X-1279112Y+7066970D01*
X-1445521Y+7233379D01*
X-2889973Y+7233379D01*
X-2924831Y+7198521D01*
X-2924831Y+6581211D01*
X-2924007Y+6580387D01*
X+978000Y+4380000D02*
X+978000Y+4567004D01*
X+978000Y+5091605D01*
X+1072439Y+5186044D01*
X+1124427Y+5238032D01*
X+1416552Y+5238032D01*
X+1480919Y+5302399D01*
X+1480919Y+5524750D01*
X+1460000Y+5620000D01*
X-104860Y+4620000D02*
X+925004Y+4620000D01*
X+978000Y+4567004D01*
X+984341Y+4560663D01*
X+984341Y+4386341D01*
X+978000Y+4380000D01*
D12*
X-5201923Y+7056296D03*
X-5197920Y+6647975D03*
X-5866758Y+5629206D03*
X-5866758Y+6005884D03*
X-4210000Y+6070000D03*
X-3676233Y+5645859D03*
X-3690000Y+5990000D03*
X-4174438Y+6251245D03*
X-3015176Y+7051596D03*
X-2924007Y+6580387D03*
D10*
X+1833641Y+4026359D02*
X-2125771Y+4026359D01*
X-2176359Y+3975771D01*
X-2176359Y+3950000D01*
X-2483801Y+3950000D01*
X-2483801Y+3994405D01*
X-2645595Y+4156199D01*
X-2874405Y+4156199D01*
X-3036199Y+3994405D01*
X-3036199Y+3950000D01*
X-6083801Y+3950000D01*
X-6083801Y+3984405D01*
X-6245595Y+4146199D01*
X-6474405Y+4146199D01*
X-6636199Y+3984405D01*
X-6636199Y+3950000D01*
X-6813641Y+3950000D01*
X-6813641Y+7130000D01*
X-6561449Y+7130000D01*
X-6561449Y+7038551D01*
X-6218551Y+7038551D01*
X-6218551Y+7130000D01*
X-5271902Y+7130000D01*
X-5303522Y+7098380D01*
X-5303522Y+6984139D01*
X-5306679Y+6984139D01*
X-5306679Y+6675861D01*
X-5301599Y+6675861D01*
X-5301599Y+6605971D01*
X-5221758Y+6526130D01*
X-5172880Y+6546376D01*
X-5155836Y+6546376D01*
X-5143784Y+6558428D01*
X-5096321Y+6578088D01*
X-5096321Y+6675861D01*
X-5093321Y+6675861D01*
X-5093321Y+6984139D01*
X-5100324Y+6984139D01*
X-5100324Y+7098380D01*
X-5131944Y+7130000D01*
X-3121599Y+7130000D01*
X-3121599Y+7014337D01*
X-3116775Y+7009512D01*
X-3057260Y+6949997D01*
X-3026430Y+6949997D01*
X-3026430Y+6539128D01*
X-3025606Y+6538303D01*
X-2966091Y+6478788D01*
X-2917799Y+6478788D01*
X-2917799Y+6060201D01*
X-2562201Y+6060201D01*
X-2562201Y+7130000D01*
X-1485824Y+7130000D01*
X-1409023Y+7053199D01*
X-1775199Y+7053199D01*
X-1775199Y+6646801D01*
X-1368801Y+6646801D01*
X-1368801Y+7012977D01*
X-1321195Y+6965371D01*
X-1275199Y+6965371D01*
X-1275199Y+6646801D01*
X-1030483Y+6646801D01*
X-985281Y+6601599D01*
X-1897917Y+6601599D01*
X-1943119Y+6646801D01*
X-1868801Y+6646801D01*
X-1868801Y+7053199D01*
X-2275199Y+7053199D01*
X-2275199Y+6646801D01*
X-2173599Y+6646801D01*
X-2173599Y+6589917D01*
X-1988881Y+6405199D01*
X-2407099Y+6405199D01*
X-2407099Y+5998801D01*
X+974095Y+5998801D01*
X+974095Y+5898103D01*
X-2435342Y+5898103D01*
X-2621599Y+5711846D01*
X-2621599Y+5651449D01*
X-2871449Y+5651449D01*
X-2871449Y+5308551D01*
X-2621599Y+5308551D01*
X-2621599Y+4777917D01*
X-2382083Y+4538401D01*
X-2315199Y+4538401D01*
X-2315199Y+4176801D01*
X-1908801Y+4176801D01*
X-1908801Y+4583199D01*
X-1937237Y+4583199D01*
X-1879207Y+4641229D01*
X-1425089Y+4641229D01*
X-1308401Y+4757917D01*
X-1308401Y+4832201D01*
X-724201Y+4832201D01*
X-724201Y+5187799D01*
X-1137558Y+5187799D01*
X-1131481Y+5193876D01*
X-1131481Y+5236801D01*
X+1223099Y+5236801D01*
X+1223099Y+5643199D01*
X-1383794Y+5643199D01*
X-1383794Y+5650983D01*
X-1427718Y+5694907D01*
X+1066500Y+5694907D01*
X+1177293Y+5805700D01*
X+1177293Y+5998801D01*
X+1225099Y+5998801D01*
X+1225099Y+6405199D01*
X+907599Y+6405199D01*
X+907599Y+6428514D01*
X+730912Y+6605201D01*
X+794252Y+6605201D01*
X+972799Y+6783748D01*
X+972799Y+7036252D01*
X+879051Y+7130000D01*
X+1156949Y+7130000D01*
X+1063201Y+7036252D01*
X+1063201Y+6783748D01*
X+1241748Y+6605201D01*
X+1494252Y+6605201D01*
X+1672799Y+6783748D01*
X+1672799Y+7036252D01*
X+1579051Y+7130000D01*
X+1833641Y+7130000D01*
X+1833641Y+4026359D01*
X-6561449Y+6538551D02*
X-6561449Y+6881449D01*
X-6218551Y+6881449D01*
X-6218551Y+6538551D01*
X-6561449Y+6538551D01*
X-3192201Y+6502201D02*
X-3192201Y+5740201D01*
X-3547799Y+5740201D01*
X-3547799Y+5773321D01*
X-3784139Y+5773321D01*
X-3784139Y+5940456D01*
X-3788910Y+5945227D01*
X-3788910Y+4986942D01*
X-3783567Y+4981599D01*
X-3507799Y+4981599D01*
X-3507799Y+5057799D01*
X-3301599Y+5057799D01*
X-3301599Y+5308551D01*
X-3371449Y+5308551D01*
X-3371449Y+5651449D01*
X-3028551Y+5651449D01*
X-3028551Y+5308551D01*
X-3098401Y+5308551D01*
X-3098401Y+5121131D01*
X-3042092Y+5064822D01*
X-3042092Y+4474226D01*
X-3167917Y+4348401D01*
X-4019106Y+4348401D01*
X-4102035Y+4431330D01*
X-4102035Y+6016323D01*
X-4164231Y+5954127D01*
X-5393035Y+5954127D01*
X-5624609Y+6185701D01*
X-6162201Y+6185701D01*
X-6162201Y+4890299D01*
X-6011343Y+4890299D01*
X-5927343Y+4974299D01*
X-5707799Y+4974299D01*
X-5707799Y+5057799D01*
X-5352201Y+5057799D01*
X-5352201Y+4556353D01*
X-5456353Y+4452201D01*
X-5603647Y+4452201D01*
X-5707799Y+4556353D01*
X-5707799Y+4745701D01*
X-5832657Y+4745701D01*
X-5916657Y+4661701D01*
X-6162201Y+4661701D01*
X-6162201Y+4344201D01*
X-6517799Y+4344201D01*
X-6517799Y+6477799D01*
X-6162201Y+6477799D01*
X-6162201Y+6414299D01*
X-5529923Y+6414299D01*
X-5298349Y+6182725D01*
X-4258917Y+6182725D01*
X-4257344Y+6184298D01*
X-4251174Y+6184298D01*
X-4276037Y+6209162D01*
X-4276037Y+6293329D01*
X-4216522Y+6352844D01*
X-4132354Y+6352844D01*
X-4072839Y+6293328D01*
X-3953804Y+6174293D01*
X-3877156Y+6250941D01*
X-3792990Y+6250941D01*
X-3787951Y+6245902D01*
X-3547799Y+6245902D01*
X-3547799Y+6857799D01*
X-3192201Y+6857799D01*
X-3192201Y+6502201D01*
X-5752459Y+6053228D02*
X-5752459Y+5581862D01*
X-5819414Y+5514907D01*
X-5914102Y+5514907D01*
X-5981057Y+5581862D01*
X-5981057Y+6053228D01*
X-5914102Y+6120183D01*
X-5819414Y+6120183D01*
X-5752459Y+6053228D01*
X-3714333Y+5630077D02*
X-3714333Y+5661641D01*
X-3692015Y+5683959D01*
X-3660451Y+5683959D01*
X-3638133Y+5661641D01*
X-3638133Y+5630077D01*
X-3660451Y+5607759D01*
X-3692015Y+5607759D01*
X-3714333Y+5630077D01*
X-1408801Y+4176801D02*
X-1815199Y+4176801D01*
X-1815199Y+4583199D01*
X-1408801Y+4583199D01*
X-1408801Y+4176801D01*
X-428801Y+4186801D02*
X-835199Y+4186801D01*
X-835199Y+4593199D01*
X-428801Y+4593199D01*
X-428801Y+4186801D01*
X-928801Y+4186801D02*
X-1335199Y+4186801D01*
X-1335199Y+4593199D01*
X-928801Y+4593199D01*
X-928801Y+4186801D01*
X+601199Y+4186801D02*
X+194801Y+4186801D01*
X+194801Y+4593199D01*
X+601199Y+4593199D01*
X+601199Y+4186801D01*
X+101199Y+4186801D02*
X-305199Y+4186801D01*
X-305199Y+4593199D01*
X+101199Y+4593199D01*
X+101199Y+4186801D01*
X+1681199Y+4176801D02*
X+1274801Y+4176801D01*
X+1274801Y+4583199D01*
X+1681199Y+4583199D01*
X+1681199Y+4176801D01*
X+1181199Y+4176801D02*
X+774801Y+4176801D01*
X+774801Y+4583199D01*
X+1181199Y+4583199D01*
X+1181199Y+4176801D01*
X+1288551Y+5448551D02*
X+1288551Y+5791449D01*
X+1631449Y+5791449D01*
X+1631449Y+5448551D01*
X+1288551Y+5448551D01*
X+1288551Y+5948551D02*
X+1288551Y+6291449D01*
X+1631449Y+6291449D01*
X+1631449Y+5948551D01*
X+1288551Y+5948551D01*
X-3897491Y+4808159D02*
X-3867733Y+4778401D01*
X-3507799Y+4778401D01*
X-3507799Y+4556353D01*
X-3503045Y+4551599D01*
X-3898837Y+4551599D01*
X-3898837Y+4809505D01*
X-3897491Y+4808159D01*
D13*
X-6390000Y+6538551D02*
X-6390000Y+6710000D01*
X-6390000Y+6881449D02*
X-6390000Y+6710000D01*
X-6218551Y+6710000D02*
X-6390000Y+6710000D01*
X-6561449Y+6710000D02*
X-6390000Y+6710000D01*
X-3370000Y+5740201D02*
X-3370000Y+5918000D01*
X-3192201Y+5918000D02*
X-3370000Y+5918000D01*
X-2562201Y+7000000D02*
X-2740000Y+7000000D01*
X-6517799Y+5030000D02*
X-6340000Y+5030000D01*
X-6162201Y+5030000D02*
X-6340000Y+5030000D01*
X-3580000Y+5773321D02*
X-3580000Y+5880000D01*
X-3507799Y+4630000D02*
X-3330000Y+4630000D01*
X-5530000Y+4452201D02*
X-5530000Y+4630000D01*
X-5707799Y+4630000D02*
X-5530000Y+4630000D01*
X-5352201Y+4630000D02*
X-5530000Y+4630000D01*
X-2871449Y+5480000D02*
X-2700000Y+5480000D01*
X-2700000Y+5651449D02*
X-2700000Y+5480000D01*
X-2700000Y+5308551D02*
X-2700000Y+5480000D01*
X-718000Y+5998801D02*
X-718000Y+6202000D01*
X-464000Y+5236801D02*
X-464000Y+5440000D01*
X-464000Y+5643199D02*
X-464000Y+5440000D01*
X-1908801Y+4380000D02*
X-2112000Y+4380000D01*
X-2315199Y+4380000D02*
X-2112000Y+4380000D01*
X-2112000Y+4176801D02*
X-2112000Y+4380000D01*
X-928801Y+4390000D02*
X-1132000Y+4390000D01*
X-1335199Y+4390000D02*
X-1132000Y+4390000D01*
X-1132000Y+4593199D02*
X-1132000Y+4390000D01*
X-1132000Y+4186801D02*
X-1132000Y+4390000D01*
X+101199Y+4390000D02*
X-102000Y+4390000D01*
X-305199Y+4390000D02*
X-102000Y+4390000D01*
X-102000Y+4593199D02*
X-102000Y+4390000D01*
X-102000Y+4186801D02*
X-102000Y+4390000D01*
X+1181199Y+4380000D02*
X+978000Y+4380000D01*
X+774801Y+4380000D02*
X+978000Y+4380000D01*
X+978000Y+4583199D02*
X+978000Y+4380000D01*
X+978000Y+4176801D02*
X+978000Y+4380000D01*
X-1368801Y+6850000D02*
X-1572000Y+6850000D01*
X-1775199Y+6850000D02*
X-1572000Y+6850000D01*
X-1572000Y+7053199D02*
X-1572000Y+6850000D01*
X-1572000Y+6646801D02*
X-1572000Y+6850000D01*
X+1460000Y+5448551D02*
X+1460000Y+5620000D01*
X+1460000Y+5791449D02*
X+1460000Y+5620000D01*
X+1631449Y+5620000D02*
X+1460000Y+5620000D01*
X+1288551Y+5620000D02*
X+1460000Y+5620000D01*
X-1156000Y+4832201D02*
X-1156000Y+5010000D01*
X+1063201Y+6910000D02*
X+1368000Y+6910000D01*
X+1672799Y+6910000D02*
X+1368000Y+6910000D01*
X+1368000Y+6605201D02*
X+1368000Y+6910000D01*
D27*
X-5200000Y+6880000D03*
X-5200000Y+6780000D03*
D16*
X-6390000Y+6710000D03*
X-6390000Y+7210000D03*
D17*
X-3370000Y+6680000D03*
X-3370000Y+6426000D03*
X-3370000Y+6172000D03*
X-3370000Y+5918000D03*
X-2740000Y+7000000D03*
X-2740000Y+6746000D03*
X-2740000Y+6492000D03*
X-2740000Y+6238000D03*
X-6340000Y+6300000D03*
X-6340000Y+6046000D03*
X-6340000Y+5792000D03*
X-6340000Y+5538000D03*
X-6340000Y+5284000D03*
X-6340000Y+5030000D03*
X-6340000Y+4776000D03*
X-6340000Y+4522000D03*
D71*
X-3580000Y+5880000D03*
X-3680000Y+5880000D03*
D17*
X-3330000Y+4880000D03*
D18*
X-3330000Y+4630000D03*
D17*
X-5530000Y+4880000D03*
D18*
X-5530000Y+4630000D03*
D16*
X-2700000Y+5480000D03*
X-3200000Y+5480000D03*
D19*
X+1060000Y+6202000D03*
X+806000Y+6202000D03*
X+552000Y+6202000D03*
X+298000Y+6202000D03*
X+44000Y+6202000D03*
X-210000Y+6202000D03*
X-464000Y+6202000D03*
X-718000Y+6202000D03*
X-972000Y+6202000D03*
X-1226000Y+6202000D03*
X-1480000Y+6202000D03*
X-1734000Y+6202000D03*
X-1988000Y+6202000D03*
X-2242000Y+6202000D03*
X-2242000Y+5440000D03*
X-1988000Y+5440000D03*
X-1734000Y+5440000D03*
X-1480000Y+5440000D03*
X-1226000Y+5440000D03*
X-972000Y+5440000D03*
X-718000Y+5440000D03*
X-464000Y+5440000D03*
X-210000Y+5440000D03*
X+44000Y+5440000D03*
X+298000Y+5440000D03*
X+552000Y+5440000D03*
X+806000Y+5440000D03*
X+1058000Y+5440000D03*
D70*
X-1612000Y+4380000D03*
X-2112000Y+4380000D03*
X-632000Y+4390000D03*
X-1132000Y+4390000D03*
X+398000Y+4390000D03*
X-102000Y+4390000D03*
X+1478000Y+4380000D03*
X+978000Y+4380000D03*
X-1072000Y+6850000D03*
X-1572000Y+6850000D03*
X-2072000Y+6850000D03*
D16*
X+1460000Y+5620000D03*
X+1460000Y+6120000D03*
D17*
X-902000Y+5010000D03*
X-1156000Y+5010000D03*
X-1410000Y+5010000D03*
X-1664000Y+5010000D03*
X-1918000Y+5010000D03*
X-2172000Y+5010000D03*
D20*
X+668000Y+6910000D03*
X+1368000Y+6910000D03*
D21*
X+1018000Y+7230000D03*
D22*
X-502000Y+6850000D03*
D23*
X-252000Y+6850000D03*
D24*
X-6360000Y+3870000D03*
X-2760000Y+3880000D03*
D25*
X-6900000Y+7560000D02*
X+1920000Y+7560000D01*
X-6900000Y+7560000D02*
X-6900000Y+3440000D01*
X+1920000Y+7560000D02*
X+1920000Y+3940000D01*
X-6900000Y+3440000D02*
X-2090000Y+3440000D01*
X-2090000Y+3940000D01*
X+1920000Y+3940000D01*
M02*
