G04 PROTEUS GERBER X2 FILE*
%TF.GenerationSoftware,Labcenter,Proteus,8.6-SP2-Build23525*%
%TF.CreationDate,2019-05-24T14:24:23+00:00*%
%TF.FileFunction,Legend,Top*%
%TF.FilePolarity,Positive*%
%TF.Part,Single*%
%FSLAX45Y45*%
%MOMM*%
G01*
%TA.AperFunction,Material*%
%ADD28C,0.203200*%
%TA.AperFunction,Profile*%
%ADD25C,0.203200*%
%TD.AperFunction*%
D28*
X-5750000Y+5280000D02*
X-3710000Y+5280000D01*
X-3710000Y+7910000D01*
X-5750000Y+7910000D01*
X-5750000Y+5280000D01*
X-5270000Y+7810000D02*
X-5130000Y+7810000D01*
X-5120000Y+7810000D02*
X-5120000Y+7410000D01*
X-4820000Y+7410000D01*
X-4820000Y+7810000D01*
X-4720000Y+7810000D01*
X-4720000Y+7410000D01*
X-4420000Y+7410000D01*
X-4420000Y+7810000D01*
X-4320000Y+7810000D01*
X-4320000Y+7410000D01*
X-4020000Y+7410000D01*
X-4020000Y+7810000D01*
X-5320000Y+7810000D02*
X-5320000Y+7210000D01*
X-4320000Y+7210000D01*
X-5220000Y+7810000D02*
X-5320000Y+7810000D01*
X-4761750Y+7965880D02*
X-4777625Y+7950640D01*
X-4825250Y+7950640D01*
X-4857000Y+7981120D01*
X-4857000Y+8011600D01*
X-4825250Y+8042080D01*
X-4777625Y+8042080D01*
X-4761750Y+8026840D01*
X-4698250Y+8011600D02*
X-4666500Y+8042080D01*
X-4666500Y+7950640D01*
X-5230480Y+6703000D02*
X-5321920Y+6703000D01*
X-5321920Y+6782375D01*
X-5306680Y+6798250D01*
X-5291440Y+6798250D01*
X-5276200Y+6782375D01*
X-5276200Y+6703000D01*
X-5276200Y+6782375D02*
X-5260960Y+6798250D01*
X-5230480Y+6798250D01*
X-5291440Y+6861750D02*
X-5321920Y+6893500D01*
X-5230480Y+6893500D01*
X-6420480Y+6769500D02*
X-6511920Y+6769500D01*
X-6511920Y+6848875D01*
X-6496680Y+6864750D01*
X-6481440Y+6864750D01*
X-6466200Y+6848875D01*
X-6466200Y+6769500D01*
X-6466200Y+6848875D02*
X-6450960Y+6864750D01*
X-6420480Y+6864750D01*
X-6435720Y+6896500D02*
X-6420480Y+6912375D01*
X-6420480Y+6975875D01*
X-6435720Y+6991750D01*
X-6450960Y+6991750D01*
X-6466200Y+6975875D01*
X-6466200Y+6912375D01*
X-6481440Y+6896500D01*
X-6496680Y+6896500D01*
X-6511920Y+6912375D01*
X-6511920Y+6975875D01*
X-6496680Y+6991750D01*
X-6511920Y+7023500D02*
X-6511920Y+7118750D01*
X-6511920Y+7071125D02*
X-6420480Y+7071125D01*
X-3497000Y+5791000D02*
X-3243000Y+5791000D01*
X-3243000Y+6807000D01*
X-3497000Y+6807000D01*
X-3497000Y+5791000D01*
X-3202360Y+6108500D02*
X-3110920Y+6108500D01*
X-3110920Y+6203750D01*
X-3126160Y+6330750D02*
X-3110920Y+6314875D01*
X-3110920Y+6267250D01*
X-3141400Y+6235500D01*
X-3171880Y+6235500D01*
X-3202360Y+6267250D01*
X-3202360Y+6314875D01*
X-3187120Y+6330750D01*
X-3110920Y+6362500D02*
X-3202360Y+6362500D01*
X-3202360Y+6426000D01*
X-3171880Y+6457750D01*
X-3141400Y+6457750D01*
X-3110920Y+6426000D01*
X-3110920Y+6362500D01*
X-2867000Y+6111000D02*
X-2613000Y+6111000D01*
X-2613000Y+7127000D01*
X-2867000Y+7127000D01*
X-2867000Y+6111000D01*
X-2572360Y+6365000D02*
X-2480920Y+6365000D01*
X-2480920Y+6460250D01*
X-2541880Y+6492000D02*
X-2572360Y+6523750D01*
X-2572360Y+6555500D01*
X-2541880Y+6587250D01*
X-2511400Y+6587250D01*
X-2480920Y+6555500D01*
X-2480920Y+6523750D01*
X-2511400Y+6492000D01*
X-2541880Y+6492000D01*
X-2480920Y+6619000D02*
X-2541880Y+6619000D01*
X-2572360Y+6650750D01*
X-2572360Y+6682500D01*
X-2541880Y+6714250D01*
X-2480920Y+6714250D01*
X-2511400Y+6619000D02*
X-2511400Y+6714250D01*
X-2480920Y+6746000D02*
X-2572360Y+6746000D01*
X-2572360Y+6809500D01*
X-2541880Y+6841250D01*
X-2511400Y+6841250D01*
X-2480920Y+6809500D01*
X-2480920Y+6746000D01*
X-6467000Y+4395000D02*
X-6213000Y+4395000D01*
X-6213000Y+6427000D01*
X-6467000Y+6427000D01*
X-6467000Y+4395000D01*
X-6080920Y+5157000D02*
X-6172360Y+5157000D01*
X-6172360Y+5236375D01*
X-6157120Y+5252250D01*
X-6141880Y+5252250D01*
X-6126640Y+5236375D01*
X-6126640Y+5157000D01*
X-6126640Y+5236375D02*
X-6111400Y+5252250D01*
X-6080920Y+5252250D01*
X-6080920Y+5284000D02*
X-6172360Y+5284000D01*
X-6172360Y+5379250D01*
X-6126640Y+5284000D02*
X-6126640Y+5347500D01*
X-6172360Y+5426875D02*
X-6172360Y+5490375D01*
X-6172360Y+5458625D02*
X-6080920Y+5458625D01*
X-6080920Y+5426875D02*
X-6080920Y+5490375D01*
X-6080920Y+5538000D02*
X-6172360Y+5538000D01*
X-6172360Y+5601500D01*
X-6141880Y+5633250D01*
X-6111400Y+5633250D01*
X-6080920Y+5601500D01*
X-6080920Y+5538000D01*
X-3757000Y+5910480D02*
X-3757000Y+6001920D01*
X-3677625Y+6001920D01*
X-3661750Y+5986680D01*
X-3661750Y+5971440D01*
X-3677625Y+5956200D01*
X-3757000Y+5956200D01*
X-3677625Y+5956200D02*
X-3661750Y+5940960D01*
X-3661750Y+5910480D01*
X-3614125Y+5986680D02*
X-3598250Y+6001920D01*
X-3550625Y+6001920D01*
X-3534750Y+5986680D01*
X-3534750Y+5971440D01*
X-3550625Y+5956200D01*
X-3598250Y+5956200D01*
X-3614125Y+5940960D01*
X-3614125Y+5910480D01*
X-3534750Y+5910480D01*
X-5830000Y+4380000D02*
X-3080000Y+4380000D01*
X-3080000Y+5130000D01*
X-5830000Y+5130000D01*
X-5830000Y+4380000D01*
X-3590800Y+4924600D02*
X-3590800Y+4823000D01*
X-3590800Y+4873800D02*
X-3743200Y+4873800D01*
X-3743200Y+4924600D02*
X-3743200Y+4823000D01*
X-3743200Y+4746800D02*
X-3590800Y+4746800D01*
X-3743200Y+4594400D01*
X-3590800Y+4594400D01*
X-5271600Y+5030000D02*
X-5220800Y+4979200D01*
X-5220800Y+4928400D01*
X-5271600Y+4877600D01*
X-5322400Y+4877600D01*
X-5373200Y+4928400D01*
X-5373200Y+4979200D01*
X-5322400Y+5030000D01*
X-5271600Y+5030000D01*
X-5220800Y+4826800D02*
X-5347800Y+4826800D01*
X-5373200Y+4801400D01*
X-5373200Y+4699800D01*
X-5347800Y+4674400D01*
X-5220800Y+4674400D01*
X-5220800Y+4623600D02*
X-5220800Y+4471200D01*
X-5220800Y+4547400D02*
X-5373200Y+4547400D01*
X-2947920Y+4628000D02*
X-3039360Y+4628000D01*
X-2993640Y+4675625D01*
X-3039360Y+4723250D01*
X-2947920Y+4723250D01*
X-3008880Y+4786750D02*
X-3039360Y+4818500D01*
X-2947920Y+4818500D01*
X-3257500Y+5258080D02*
X-3257500Y+5349520D01*
X-3162250Y+5349520D01*
X-3257500Y+5303800D02*
X-3194000Y+5303800D01*
X-3130500Y+5349520D02*
X-3130500Y+5258080D01*
X-3035250Y+5258080D01*
X-3003500Y+5258080D02*
X-3003500Y+5319040D01*
X-2971750Y+5349520D01*
X-2940000Y+5349520D01*
X-2908250Y+5319040D01*
X-2908250Y+5258080D01*
X-3003500Y+5288560D02*
X-2908250Y+5288560D01*
X-2876500Y+5273320D02*
X-2860625Y+5258080D01*
X-2797125Y+5258080D01*
X-2781250Y+5273320D01*
X-2781250Y+5288560D01*
X-2797125Y+5303800D01*
X-2860625Y+5303800D01*
X-2876500Y+5319040D01*
X-2876500Y+5334280D01*
X-2860625Y+5349520D01*
X-2797125Y+5349520D01*
X-2781250Y+5334280D01*
X-2749500Y+5258080D02*
X-2749500Y+5349520D01*
X-2654250Y+5349520D02*
X-2654250Y+5258080D01*
X-2749500Y+5303800D02*
X-2654250Y+5303800D01*
X+1121500Y+6075000D02*
X-2307500Y+6075000D01*
X-2307500Y+5567000D01*
X+1121500Y+5567000D01*
X+1121500Y+6075000D02*
X+1121500Y+5948000D01*
X+1121500Y+5567000D02*
X+1121500Y+5694000D01*
X+1121500Y+5948000D02*
X+1095532Y+5945473D01*
X+1071518Y+5938202D01*
X+1049923Y+5926652D01*
X+1031211Y+5911289D01*
X+1015848Y+5892577D01*
X+1004298Y+5870981D01*
X+997027Y+5846967D01*
X+994500Y+5821000D01*
X+1121500Y+5694000D02*
X+1095532Y+5696527D01*
X+1071518Y+5703798D01*
X+1049923Y+5715347D01*
X+1031211Y+5730711D01*
X+1015848Y+5749423D01*
X+1004298Y+5771018D01*
X+997027Y+5795032D01*
X+994500Y+5821000D01*
X+1077884Y+6034360D02*
X+1077859Y+6034957D01*
X+1077657Y+6036153D01*
X+1077233Y+6037349D01*
X+1076539Y+6038545D01*
X+1075479Y+6039724D01*
X+1074283Y+6040587D01*
X+1073087Y+6041136D01*
X+1071891Y+6041445D01*
X+1070700Y+6041544D01*
X+1063516Y+6034360D02*
X+1063541Y+6034957D01*
X+1063743Y+6036153D01*
X+1064167Y+6037349D01*
X+1064861Y+6038545D01*
X+1065921Y+6039724D01*
X+1067117Y+6040587D01*
X+1068313Y+6041136D01*
X+1069509Y+6041445D01*
X+1070700Y+6041544D01*
X+1063516Y+6034360D02*
X+1063541Y+6033763D01*
X+1063743Y+6032567D01*
X+1064167Y+6031371D01*
X+1064861Y+6030175D01*
X+1065921Y+6028996D01*
X+1067117Y+6028133D01*
X+1068313Y+6027584D01*
X+1069509Y+6027275D01*
X+1070700Y+6027176D01*
X+1077884Y+6034360D02*
X+1077859Y+6033763D01*
X+1077657Y+6032567D01*
X+1077233Y+6031371D01*
X+1076539Y+6030175D01*
X+1075479Y+6028996D01*
X+1074283Y+6028133D01*
X+1073087Y+6027584D01*
X+1071891Y+6027275D01*
X+1070700Y+6027176D01*
X+1162140Y+5694000D02*
X+1238340Y+5694000D01*
X+1253580Y+5709875D01*
X+1253580Y+5773375D01*
X+1238340Y+5789250D01*
X+1162140Y+5789250D01*
X+1192620Y+5852750D02*
X+1162140Y+5884500D01*
X+1253580Y+5884500D01*
X-1989000Y+4258080D02*
X-1989000Y+4349520D01*
X-1925500Y+4349520D01*
X-1893750Y+4319040D01*
X-1893750Y+4288560D01*
X-1925500Y+4258080D01*
X-1989000Y+4258080D01*
X-1830250Y+4319040D02*
X-1798500Y+4349520D01*
X-1798500Y+4258080D01*
X-1009000Y+4268080D02*
X-1009000Y+4359520D01*
X-945500Y+4359520D01*
X-913750Y+4329040D01*
X-913750Y+4298560D01*
X-945500Y+4268080D01*
X-1009000Y+4268080D01*
X-866125Y+4344280D02*
X-850250Y+4359520D01*
X-802625Y+4359520D01*
X-786750Y+4344280D01*
X-786750Y+4329040D01*
X-802625Y+4313800D01*
X-850250Y+4313800D01*
X-866125Y+4298560D01*
X-866125Y+4268080D01*
X-786750Y+4268080D01*
X+21000Y+4268080D02*
X+21000Y+4359520D01*
X+84500Y+4359520D01*
X+116250Y+4329040D01*
X+116250Y+4298560D01*
X+84500Y+4268080D01*
X+21000Y+4268080D01*
X+163875Y+4344280D02*
X+179750Y+4359520D01*
X+227375Y+4359520D01*
X+243250Y+4344280D01*
X+243250Y+4329040D01*
X+227375Y+4313800D01*
X+243250Y+4298560D01*
X+243250Y+4283320D01*
X+227375Y+4268080D01*
X+179750Y+4268080D01*
X+163875Y+4283320D01*
X+195625Y+4313800D02*
X+227375Y+4313800D01*
X+1101000Y+4258080D02*
X+1101000Y+4349520D01*
X+1164500Y+4349520D01*
X+1196250Y+4319040D01*
X+1196250Y+4288560D01*
X+1164500Y+4258080D01*
X+1101000Y+4258080D01*
X+1323250Y+4288560D02*
X+1228000Y+4288560D01*
X+1291500Y+4349520D01*
X+1291500Y+4258080D01*
X-1699000Y+6728080D02*
X-1699000Y+6819520D01*
X-1635500Y+6819520D01*
X-1603750Y+6789040D01*
X-1603750Y+6758560D01*
X-1635500Y+6728080D01*
X-1699000Y+6728080D01*
X-1476750Y+6819520D02*
X-1556125Y+6819520D01*
X-1556125Y+6789040D01*
X-1492625Y+6789040D01*
X-1476750Y+6773800D01*
X-1476750Y+6743320D01*
X-1492625Y+6728080D01*
X-1540250Y+6728080D01*
X-1556125Y+6743320D01*
X+1429520Y+5743000D02*
X+1338080Y+5743000D01*
X+1338080Y+5822375D01*
X+1353320Y+5838250D01*
X+1368560Y+5838250D01*
X+1383800Y+5822375D01*
X+1399040Y+5838250D01*
X+1414280Y+5838250D01*
X+1429520Y+5822375D01*
X+1429520Y+5743000D01*
X+1383800Y+5743000D02*
X+1383800Y+5822375D01*
X+1353320Y+5965250D02*
X+1338080Y+5949375D01*
X+1338080Y+5901750D01*
X+1353320Y+5885875D01*
X+1414280Y+5885875D01*
X+1429520Y+5901750D01*
X+1429520Y+5949375D01*
X+1414280Y+5965250D01*
X+1399040Y+5965250D01*
X+1383800Y+5949375D01*
X+1383800Y+5885875D01*
X-2299000Y+4883000D02*
X-775000Y+4883000D01*
X-775000Y+5137000D01*
X-2299000Y+5137000D01*
X-2299000Y+4883000D01*
X-1664000Y+4781400D02*
X-1664000Y+4766160D01*
X-1648125Y+4750920D01*
X-1584625Y+4750920D01*
X-1568750Y+4766160D01*
X-1568750Y+4842360D01*
X-1521125Y+4827120D02*
X-1505250Y+4842360D01*
X-1457625Y+4842360D01*
X-1441750Y+4827120D01*
X-1441750Y+4811880D01*
X-1457625Y+4796640D01*
X-1505250Y+4796640D01*
X-1521125Y+4781400D01*
X-1521125Y+4750920D01*
X-1441750Y+4750920D01*
X-389000Y+4978080D02*
X-389000Y+5069520D01*
X-309625Y+5069520D01*
X-293750Y+5054280D01*
X-293750Y+5039040D01*
X-309625Y+5023800D01*
X-389000Y+5023800D01*
X-309625Y+5023800D02*
X-293750Y+5008560D01*
X-293750Y+4978080D01*
X-246125Y+5054280D02*
X-230250Y+5069520D01*
X-182625Y+5069520D01*
X-166750Y+5054280D01*
X-166750Y+5039040D01*
X-182625Y+5023800D01*
X-166750Y+5008560D01*
X-166750Y+4993320D01*
X-182625Y+4978080D01*
X-230250Y+4978080D01*
X-246125Y+4993320D01*
X-214375Y+5023800D02*
X-182625Y+5023800D01*
X-109000Y+4988080D02*
X-109000Y+5079520D01*
X-29625Y+5079520D01*
X-13750Y+5064280D01*
X-13750Y+5049040D01*
X-29625Y+5033800D01*
X-109000Y+5033800D01*
X-29625Y+5033800D02*
X-13750Y+5018560D01*
X-13750Y+4988080D01*
X+113250Y+5018560D02*
X+18000Y+5018560D01*
X+81500Y+5079520D01*
X+81500Y+4988080D01*
X+141000Y+4968080D02*
X+141000Y+5059520D01*
X+220375Y+5059520D01*
X+236250Y+5044280D01*
X+236250Y+5029040D01*
X+220375Y+5013800D01*
X+141000Y+5013800D01*
X+220375Y+5013800D02*
X+236250Y+4998560D01*
X+236250Y+4968080D01*
X+363250Y+5059520D02*
X+283875Y+5059520D01*
X+283875Y+5029040D01*
X+347375Y+5029040D01*
X+363250Y+5013800D01*
X+363250Y+4983320D01*
X+347375Y+4968080D01*
X+299750Y+4968080D01*
X+283875Y+4983320D01*
X-449000Y+5828080D02*
X-449000Y+5919520D01*
X-369625Y+5919520D01*
X-353750Y+5904280D01*
X-353750Y+5889040D01*
X-369625Y+5873800D01*
X-449000Y+5873800D01*
X-369625Y+5873800D02*
X-353750Y+5858560D01*
X-353750Y+5828080D01*
X-226750Y+5904280D02*
X-242625Y+5919520D01*
X-290250Y+5919520D01*
X-306125Y+5904280D01*
X-306125Y+5843320D01*
X-290250Y+5828080D01*
X-242625Y+5828080D01*
X-226750Y+5843320D01*
X-226750Y+5858560D01*
X-242625Y+5873800D01*
X-306125Y+5873800D01*
X+431000Y+4978080D02*
X+431000Y+5069520D01*
X+510375Y+5069520D01*
X+526250Y+5054280D01*
X+526250Y+5039040D01*
X+510375Y+5023800D01*
X+431000Y+5023800D01*
X+510375Y+5023800D02*
X+526250Y+5008560D01*
X+526250Y+4978080D01*
X+653250Y+5039040D02*
X+637375Y+5023800D01*
X+589750Y+5023800D01*
X+573875Y+5039040D01*
X+573875Y+5054280D01*
X+589750Y+5069520D01*
X+637375Y+5069520D01*
X+653250Y+5054280D01*
X+653250Y+4993320D01*
X+637375Y+4978080D01*
X+589750Y+4978080D01*
X+937500Y+5838080D02*
X+937500Y+5929520D01*
X+1016875Y+5929520D01*
X+1032750Y+5914280D01*
X+1032750Y+5899040D01*
X+1016875Y+5883800D01*
X+937500Y+5883800D01*
X+1016875Y+5883800D02*
X+1032750Y+5868560D01*
X+1032750Y+5838080D01*
X+1096250Y+5899040D02*
X+1128000Y+5929520D01*
X+1128000Y+5838080D01*
X+1207375Y+5914280D02*
X+1223250Y+5929520D01*
X+1270875Y+5929520D01*
X+1286750Y+5914280D01*
X+1286750Y+5899040D01*
X+1270875Y+5883800D01*
X+1286750Y+5868560D01*
X+1286750Y+5853320D01*
X+1270875Y+5838080D01*
X+1223250Y+5838080D01*
X+1207375Y+5853320D01*
X+1239125Y+5883800D02*
X+1270875Y+5883800D01*
X-182500Y+5818080D02*
X-182500Y+5909520D01*
X-103125Y+5909520D01*
X-87250Y+5894280D01*
X-87250Y+5879040D01*
X-103125Y+5863800D01*
X-182500Y+5863800D01*
X-103125Y+5863800D02*
X-87250Y+5848560D01*
X-87250Y+5818080D01*
X-23750Y+5879040D02*
X+8000Y+5909520D01*
X+8000Y+5818080D01*
X+87375Y+5894280D02*
X+103250Y+5909520D01*
X+150875Y+5909520D01*
X+166750Y+5894280D01*
X+166750Y+5879040D01*
X+150875Y+5863800D01*
X+103250Y+5863800D01*
X+87375Y+5848560D01*
X+87375Y+5818080D01*
X+166750Y+5818080D01*
X+468000Y+6510000D02*
X+2038000Y+6510000D01*
X+2038000Y+7400000D01*
X+468000Y+7400000D01*
X+468000Y+6510000D01*
X+1688000Y+7410000D02*
X+1688000Y+6500000D01*
X+1126000Y+6398400D02*
X+1126000Y+6383160D01*
X+1141875Y+6367920D01*
X+1205375Y+6367920D01*
X+1221250Y+6383160D01*
X+1221250Y+6459360D01*
X+1284750Y+6428880D02*
X+1316500Y+6459360D01*
X+1316500Y+6367920D01*
X-144412Y+6860000D02*
X-145220Y+6879982D01*
X-151779Y+6919948D01*
X-165467Y+6959914D01*
X-187712Y+6999880D01*
X-221704Y+7039719D01*
X-261670Y+7070509D01*
X-301636Y+7090508D01*
X-341602Y+7102404D01*
X-381568Y+7107368D01*
X-392000Y+7107588D01*
X-639588Y+6860000D02*
X-638780Y+6879982D01*
X-632221Y+6919948D01*
X-618533Y+6959914D01*
X-596288Y+6999880D01*
X-562296Y+7039719D01*
X-522330Y+7070509D01*
X-482364Y+7090508D01*
X-442398Y+7102404D01*
X-402432Y+7107368D01*
X-392000Y+7107588D01*
X-639588Y+6860000D02*
X-638780Y+6840018D01*
X-632221Y+6800052D01*
X-618533Y+6760086D01*
X-596288Y+6720120D01*
X-562296Y+6680281D01*
X-522330Y+6649491D01*
X-482364Y+6629492D01*
X-442398Y+6617596D01*
X-402432Y+6612632D01*
X-392000Y+6612412D01*
X-144412Y+6860000D02*
X-145220Y+6840018D01*
X-151779Y+6800052D01*
X-165467Y+6760086D01*
X-187712Y+6720120D01*
X-221704Y+6680281D01*
X-261670Y+6649491D01*
X-301636Y+6629492D01*
X-341602Y+6617596D01*
X-381568Y+6612632D01*
X-392000Y+6612412D01*
X-582000Y+6853000D02*
X-429600Y+6853000D01*
X-505800Y+6903800D02*
X-505800Y+6802200D01*
X-519000Y+7148228D02*
X-519000Y+7239668D01*
X-455500Y+7239668D01*
X-423750Y+7209188D01*
X-423750Y+7178708D01*
X-455500Y+7148228D01*
X-519000Y+7148228D01*
X-296750Y+7224428D02*
X-312625Y+7239668D01*
X-360250Y+7239668D01*
X-376125Y+7224428D01*
X-376125Y+7163468D01*
X-360250Y+7148228D01*
X-312625Y+7148228D01*
X-296750Y+7163468D01*
X-296750Y+7178708D01*
X-312625Y+7193948D01*
X-376125Y+7193948D01*
X+71000Y+6748080D02*
X+71000Y+6839520D01*
X+150375Y+6839520D01*
X+166250Y+6824280D01*
X+166250Y+6809040D01*
X+150375Y+6793800D01*
X+71000Y+6793800D01*
X+150375Y+6793800D02*
X+166250Y+6778560D01*
X+166250Y+6748080D01*
X+213875Y+6839520D02*
X+293250Y+6839520D01*
X+293250Y+6824280D01*
X+213875Y+6748080D01*
D25*
X-6900000Y+7560000D02*
X+1920000Y+7560000D01*
X-6900000Y+7560000D02*
X-6900000Y+3440000D01*
X+1920000Y+7560000D02*
X+1920000Y+3940000D01*
X-6900000Y+3440000D02*
X-2090000Y+3440000D01*
X-2090000Y+3940000D01*
X+1920000Y+3940000D01*
M02*
