G04 PROTEUS GERBER X2 FILE*
%TF.GenerationSoftware,Labcenter,Proteus,8.6-SP2-Build23525*%
%TF.CreationDate,2019-05-24T14:24:23+00:00*%
%TF.FileFunction,Soldermask,Bot*%
%TF.FilePolarity,Negative*%
%TF.Part,Single*%
%FSLAX45Y45*%
%MOMM*%
G01*
%TA.AperFunction,Material*%
%ADD29C,0.812800*%
%AMPPAD037*
4,1,4,
-0.304800,0.279400,
-0.304800,-0.279400,
0.304800,-0.279400,
0.304800,0.279400,
-0.304800,0.279400,
0*%
%TA.AperFunction,Material*%
%ADD43PPAD037*%
%AMPPAD024*
4,1,36,
-1.079500,-0.952500,
-1.079500,0.952500,
-1.076970,0.978470,
-1.069700,1.002480,
-1.058150,1.024080,
-1.042790,1.042790,
-1.024070,1.058150,
-1.002480,1.069700,
-0.978470,1.076970,
-0.952500,1.079500,
0.952500,1.079500,
0.978470,1.076970,
1.002480,1.069700,
1.024070,1.058150,
1.042790,1.042790,
1.058150,1.024080,
1.069700,1.002480,
1.076970,0.978470,
1.079500,0.952500,
1.079500,-0.952500,
1.076970,-0.978470,
1.069700,-1.002480,
1.058150,-1.024080,
1.042790,-1.042790,
1.024070,-1.058150,
1.002480,-1.069700,
0.978470,-1.076970,
0.952500,-1.079500,
-0.952500,-1.079500,
-0.978470,-1.076970,
-1.002480,-1.069700,
-1.024070,-1.058150,
-1.042790,-1.042790,
-1.058150,-1.024080,
-1.069700,-1.002480,
-1.076970,-0.978470,
-1.079500,-0.952500,
0*%
%ADD30PPAD024*%
%AMPPAD025*
4,1,36,
1.143000,1.016000,
1.143000,-1.016000,
1.140470,-1.041970,
1.133200,-1.065980,
1.121650,-1.087580,
1.106290,-1.106290,
1.087570,-1.121650,
1.065980,-1.133200,
1.041970,-1.140470,
1.016000,-1.143000,
-1.016000,-1.143000,
-1.041970,-1.140470,
-1.065980,-1.133200,
-1.087570,-1.121650,
-1.106290,-1.106290,
-1.121650,-1.087580,
-1.133200,-1.065980,
-1.140470,-1.041970,
-1.143000,-1.016000,
-1.143000,1.016000,
-1.140470,1.041970,
-1.133200,1.065980,
-1.121650,1.087580,
-1.106290,1.106290,
-1.087570,1.121650,
-1.065980,1.133200,
-1.041970,1.140470,
-1.016000,1.143000,
1.016000,1.143000,
1.041970,1.140470,
1.065980,1.133200,
1.087570,1.121650,
1.106290,1.106290,
1.121650,1.087580,
1.133200,1.065980,
1.140470,1.041970,
1.143000,1.016000,
0*%
%TA.AperFunction,Material*%
%ADD31PPAD025*%
%AMPPAD038*
4,1,4,
0.279400,0.304800,
-0.279400,0.304800,
-0.279400,-0.304800,
0.279400,-0.304800,
0.279400,0.304800,
0*%
%TA.AperFunction,Material*%
%ADD44PPAD038*%
%TA.AperFunction,Material*%
%ADD32C,2.286000*%
%AMPPAD027*
4,1,36,
0.952500,-1.079500,
-0.952500,-1.079500,
-0.978470,-1.076970,
-1.002480,-1.069700,
-1.024080,-1.058150,
-1.042790,-1.042790,
-1.058150,-1.024070,
-1.069700,-1.002480,
-1.076970,-0.978470,
-1.079500,-0.952500,
-1.079500,0.952500,
-1.076970,0.978470,
-1.069700,1.002480,
-1.058150,1.024070,
-1.042790,1.042790,
-1.024080,1.058150,
-1.002480,1.069700,
-0.978470,1.076970,
-0.952500,1.079500,
0.952500,1.079500,
0.978470,1.076970,
1.002480,1.069700,
1.024080,1.058150,
1.042790,1.042790,
1.058150,1.024070,
1.069700,1.002480,
1.076970,0.978470,
1.079500,0.952500,
1.079500,-0.952500,
1.076970,-0.978470,
1.069700,-1.002480,
1.058150,-1.024070,
1.042790,-1.042790,
1.024080,-1.058150,
1.002480,-1.069700,
0.978470,-1.076970,
0.952500,-1.079500,
0*%
%TA.AperFunction,Material*%
%ADD33PPAD027*%
%AMPPAD028*
4,1,36,
-0.584200,1.397000,
0.584200,1.397000,
0.672490,1.388410,
0.754130,1.363690,
0.827560,1.324420,
0.891180,1.272180,
0.943420,1.208560,
0.982690,1.135130,
1.007410,1.053490,
1.016000,0.965200,
1.016000,-0.965200,
1.007410,-1.053490,
0.982690,-1.135130,
0.943420,-1.208560,
0.891180,-1.272180,
0.827560,-1.324420,
0.754130,-1.363690,
0.672490,-1.388410,
0.584200,-1.397000,
-0.584200,-1.397000,
-0.672490,-1.388410,
-0.754130,-1.363690,
-0.827560,-1.324420,
-0.891180,-1.272180,
-0.943420,-1.208560,
-0.982690,-1.135130,
-1.007410,-1.053490,
-1.016000,-0.965200,
-1.016000,0.965200,
-1.007410,1.053490,
-0.982690,1.135130,
-0.943420,1.208560,
-0.891180,1.272180,
-0.827560,1.324420,
-0.754130,1.363690,
-0.672490,1.388410,
-0.584200,1.397000,
0*%
%TA.AperFunction,Material*%
%ADD34PPAD028*%
%AMPPAD029*
4,1,36,
1.270000,-1.397000,
-1.270000,-1.397000,
-1.295970,-1.394470,
-1.319980,-1.387200,
-1.341580,-1.375650,
-1.360290,-1.360290,
-1.375650,-1.341570,
-1.387200,-1.319980,
-1.394470,-1.295970,
-1.397000,-1.270000,
-1.397000,1.270000,
-1.394470,1.295970,
-1.387200,1.319980,
-1.375650,1.341570,
-1.360290,1.360290,
-1.341580,1.375650,
-1.319980,1.387200,
-1.295970,1.394470,
-1.270000,1.397000,
1.270000,1.397000,
1.295970,1.394470,
1.319980,1.387200,
1.341580,1.375650,
1.360290,1.360290,
1.375650,1.341570,
1.387200,1.319980,
1.394470,1.295970,
1.397000,1.270000,
1.397000,-1.270000,
1.394470,-1.295970,
1.387200,-1.319980,
1.375650,-1.341570,
1.360290,-1.360290,
1.341580,-1.375650,
1.319980,-1.387200,
1.295970,-1.394470,
1.270000,-1.397000,
0*%
%TA.AperFunction,Material*%
%ADD35PPAD029*%
%AMPPAD030*
4,1,36,
1.016000,-1.143000,
-1.016000,-1.143000,
-1.041970,-1.140470,
-1.065980,-1.133200,
-1.087580,-1.121650,
-1.106290,-1.106290,
-1.121650,-1.087570,
-1.133200,-1.065980,
-1.140470,-1.041970,
-1.143000,-1.016000,
-1.143000,1.016000,
-1.140470,1.041970,
-1.133200,1.065980,
-1.121650,1.087570,
-1.106290,1.106290,
-1.087580,1.121650,
-1.065980,1.133200,
-1.041970,1.140470,
-1.016000,1.143000,
1.016000,1.143000,
1.041970,1.140470,
1.065980,1.133200,
1.087580,1.121650,
1.106290,1.106290,
1.121650,1.087570,
1.133200,1.065980,
1.140470,1.041970,
1.143000,1.016000,
1.143000,-1.016000,
1.140470,-1.041970,
1.133200,-1.065980,
1.121650,-1.087570,
1.106290,-1.106290,
1.087580,-1.121650,
1.065980,-1.133200,
1.041970,-1.140470,
1.016000,-1.143000,
0*%
%TA.AperFunction,Material*%
%ADD36PPAD030*%
%TA.AperFunction,Material*%
%ADD38C,5.080000*%
%ADD39C,0.330200*%
%AMPPAD034*
4,1,36,
-0.889000,1.016000,
0.889000,1.016000,
0.914970,1.013470,
0.938980,1.006200,
0.960580,0.994650,
0.979290,0.979290,
0.994650,0.960570,
1.006200,0.938980,
1.013470,0.914970,
1.016000,0.889000,
1.016000,-0.889000,
1.013470,-0.914970,
1.006200,-0.938980,
0.994650,-0.960570,
0.979290,-0.979290,
0.960580,-0.994650,
0.938980,-1.006200,
0.914970,-1.013470,
0.889000,-1.016000,
-0.889000,-1.016000,
-0.914970,-1.013470,
-0.938980,-1.006200,
-0.960580,-0.994650,
-0.979290,-0.979290,
-0.994650,-0.960570,
-1.006200,-0.938980,
-1.013470,-0.914970,
-1.016000,-0.889000,
-1.016000,0.889000,
-1.013470,0.914970,
-1.006200,0.938980,
-0.994650,0.960570,
-0.979290,0.979290,
-0.960580,0.994650,
-0.938980,1.006200,
-0.914970,1.013470,
-0.889000,1.016000,
0*%
%TA.AperFunction,Material*%
%ADD40PPAD034*%
%ADD41C,2.032000*%
%TA.AperFunction,Material*%
%ADD42C,4.000000*%
%TA.AperFunction,Profile*%
%ADD25C,0.203200*%
%TD.AperFunction*%
D29*
X-5201923Y+7056296D03*
X-5197920Y+6647975D03*
X-5866758Y+5629206D03*
X-5866758Y+6005884D03*
X-4210000Y+6070000D03*
X-3676233Y+5645859D03*
X-3690000Y+5990000D03*
X-4174438Y+6251245D03*
X-3015176Y+7051596D03*
X-2924007Y+6580387D03*
D43*
X-5200000Y+6880000D03*
X-5200000Y+6780000D03*
D30*
X-6390000Y+6710000D03*
X-6390000Y+7210000D03*
D31*
X-3370000Y+6680000D03*
X-3370000Y+6426000D03*
X-3370000Y+6172000D03*
X-3370000Y+5918000D03*
X-2740000Y+7000000D03*
X-2740000Y+6746000D03*
X-2740000Y+6492000D03*
X-2740000Y+6238000D03*
X-6340000Y+6300000D03*
X-6340000Y+6046000D03*
X-6340000Y+5792000D03*
X-6340000Y+5538000D03*
X-6340000Y+5284000D03*
X-6340000Y+5030000D03*
X-6340000Y+4776000D03*
X-6340000Y+4522000D03*
D44*
X-3580000Y+5880000D03*
X-3680000Y+5880000D03*
D31*
X-3330000Y+4880000D03*
D32*
X-3330000Y+4630000D03*
D31*
X-5530000Y+4880000D03*
D32*
X-5530000Y+4630000D03*
D33*
X-2700000Y+5480000D03*
X-3200000Y+5480000D03*
D34*
X+1060000Y+6202000D03*
X+806000Y+6202000D03*
X+552000Y+6202000D03*
X+298000Y+6202000D03*
X+44000Y+6202000D03*
X-210000Y+6202000D03*
X-464000Y+6202000D03*
X-718000Y+6202000D03*
X-972000Y+6202000D03*
X-1226000Y+6202000D03*
X-1480000Y+6202000D03*
X-1734000Y+6202000D03*
X-1988000Y+6202000D03*
X-2242000Y+6202000D03*
X-2242000Y+5440000D03*
X-1988000Y+5440000D03*
X-1734000Y+5440000D03*
X-1480000Y+5440000D03*
X-1226000Y+5440000D03*
X-972000Y+5440000D03*
X-718000Y+5440000D03*
X-464000Y+5440000D03*
X-210000Y+5440000D03*
X+44000Y+5440000D03*
X+298000Y+5440000D03*
X+552000Y+5440000D03*
X+806000Y+5440000D03*
X+1058000Y+5440000D03*
D35*
X-1612000Y+4380000D03*
X-2112000Y+4380000D03*
X-632000Y+4390000D03*
X-1132000Y+4390000D03*
X+398000Y+4390000D03*
X-102000Y+4390000D03*
X+1478000Y+4380000D03*
X+978000Y+4380000D03*
X-1072000Y+6850000D03*
X-1572000Y+6850000D03*
X-2072000Y+6850000D03*
D30*
X+1460000Y+5620000D03*
X+1460000Y+6120000D03*
D36*
X-902000Y+5010000D03*
X-1156000Y+5010000D03*
X-1410000Y+5010000D03*
X-1664000Y+5010000D03*
X-1918000Y+5010000D03*
X-2172000Y+5010000D03*
D38*
X+668000Y+6910000D03*
X+1368000Y+6910000D03*
D39*
X+1018000Y+7230000D03*
D40*
X-502000Y+6850000D03*
D41*
X-252000Y+6850000D03*
D42*
X-6360000Y+3870000D03*
X-2760000Y+3880000D03*
D25*
X-6900000Y+7560000D02*
X+1920000Y+7560000D01*
X-6900000Y+7560000D02*
X-6900000Y+3440000D01*
X+1920000Y+7560000D02*
X+1920000Y+3940000D01*
X-6900000Y+3440000D02*
X-2090000Y+3440000D01*
X-2090000Y+3940000D01*
X+1920000Y+3940000D01*
M02*
