G04 PROTEUS GERBER X2 FILE*
%TF.GenerationSoftware,Labcenter,Proteus,8.6-SP2-Build23525*%
%TF.CreationDate,2019-05-24T14:24:23+00:00*%
%TF.FileFunction,AssemblyDrawing,Top*%
%TF.FilePolarity,Positive*%
%TF.Part,Single*%
%FSLAX45Y45*%
%MOMM*%
G01*
%TA.AperFunction,Material*%
%ADD28C,0.203200*%
%ADD49C,0.883440*%
%ADD50C,0.114300*%
%ADD51C,0.164590*%
%ADD52C,0.462190*%
%ADD53C,0.533400*%
%ADD54C,0.152400*%
%ADD55C,0.050000*%
%ADD56C,0.057000*%
%ADD57C,0.048750*%
%ADD58C,0.530100*%
%ADD59C,0.171830*%
%TA.AperFunction,Profile*%
%ADD25C,0.203200*%
%TD.AperFunction*%
D28*
X-5760160Y+5269840D02*
X-3699840Y+5269840D01*
X-3699840Y+7920160D01*
X-5760160Y+7920160D01*
X-5760160Y+5269840D01*
D49*
X-4553312Y+6418312D02*
X-4464968Y+6329968D01*
X-4464968Y+6064936D01*
X-4641656Y+5888248D01*
X-4818344Y+5888248D01*
X-4995032Y+6064936D01*
X-4995032Y+6329968D01*
X-4906688Y+6418312D01*
X-4818344Y+6771688D02*
X-4995032Y+6948376D01*
X-4464968Y+6948376D01*
D28*
X-6485250Y+6614750D02*
X-6294750Y+6614750D01*
X-6294750Y+7305250D01*
X-6485250Y+7305250D01*
X-6485250Y+6614750D01*
D50*
X-6355710Y+6822840D02*
X-6424290Y+6822840D01*
X-6424290Y+6879990D01*
X-6412860Y+6891420D01*
X-6401430Y+6891420D01*
X-6390000Y+6879990D01*
X-6390000Y+6822840D01*
X-6390000Y+6879990D02*
X-6378570Y+6891420D01*
X-6355710Y+6891420D01*
X-6367140Y+6914280D02*
X-6355710Y+6925710D01*
X-6355710Y+6971430D01*
X-6367140Y+6982860D01*
X-6378570Y+6982860D01*
X-6390000Y+6971430D01*
X-6390000Y+6925710D01*
X-6401430Y+6914280D01*
X-6412860Y+6914280D01*
X-6424290Y+6925710D01*
X-6424290Y+6971430D01*
X-6412860Y+6982860D01*
X-6424290Y+7005720D02*
X-6424290Y+7074300D01*
X-6424290Y+7040010D02*
X-6355710Y+7040010D01*
D28*
X-3507160Y+5780840D02*
X-3232840Y+5780840D01*
X-3232840Y+6817160D01*
X-3507160Y+6817160D01*
X-3507160Y+5780840D01*
D51*
X-3419377Y+6101491D02*
X-3320622Y+6101491D01*
X-3320622Y+6200245D01*
X-3337081Y+6331918D02*
X-3320622Y+6315459D01*
X-3320622Y+6266082D01*
X-3353540Y+6233164D01*
X-3386459Y+6233164D01*
X-3419377Y+6266082D01*
X-3419377Y+6315459D01*
X-3402918Y+6331918D01*
X-3320622Y+6364837D02*
X-3419377Y+6364837D01*
X-3419377Y+6430673D01*
X-3386459Y+6463591D01*
X-3353540Y+6463591D01*
X-3320622Y+6430673D01*
X-3320622Y+6364837D01*
D28*
X-2877160Y+6100840D02*
X-2602840Y+6100840D01*
X-2602840Y+7137160D01*
X-2877160Y+7137160D01*
X-2877160Y+6100840D01*
D51*
X-2789377Y+6355654D02*
X-2690622Y+6355654D01*
X-2690622Y+6454408D01*
X-2756459Y+6487327D02*
X-2789377Y+6520245D01*
X-2789377Y+6553163D01*
X-2756459Y+6586081D01*
X-2723540Y+6586081D01*
X-2690622Y+6553163D01*
X-2690622Y+6520245D01*
X-2723540Y+6487327D01*
X-2756459Y+6487327D01*
X-2690622Y+6619000D02*
X-2756459Y+6619000D01*
X-2789377Y+6651918D01*
X-2789377Y+6684836D01*
X-2756459Y+6717754D01*
X-2690622Y+6717754D01*
X-2723540Y+6619000D02*
X-2723540Y+6717754D01*
X-2690622Y+6750673D02*
X-2789377Y+6750673D01*
X-2789377Y+6816509D01*
X-2756459Y+6849427D01*
X-2723540Y+6849427D01*
X-2690622Y+6816509D01*
X-2690622Y+6750673D01*
D28*
X-6477160Y+4384840D02*
X-6202840Y+4384840D01*
X-6202840Y+6437160D01*
X-6477160Y+6437160D01*
X-6477160Y+4384840D01*
D51*
X-6290622Y+5147654D02*
X-6389377Y+5147654D01*
X-6389377Y+5229949D01*
X-6372918Y+5246408D01*
X-6356459Y+5246408D01*
X-6340000Y+5229949D01*
X-6340000Y+5147654D01*
X-6340000Y+5229949D02*
X-6323540Y+5246408D01*
X-6290622Y+5246408D01*
X-6290622Y+5279327D02*
X-6389377Y+5279327D01*
X-6389377Y+5378081D01*
X-6340000Y+5279327D02*
X-6340000Y+5345163D01*
X-6389377Y+5427459D02*
X-6389377Y+5493295D01*
X-6389377Y+5460377D02*
X-6290622Y+5460377D01*
X-6290622Y+5427459D02*
X-6290622Y+5493295D01*
X-6290622Y+5542673D02*
X-6389377Y+5542673D01*
X-6389377Y+5608509D01*
X-6356459Y+5641427D01*
X-6323540Y+5641427D01*
X-6290622Y+5608509D01*
X-6290622Y+5542673D01*
D28*
X-5840160Y+4369840D02*
X-3069840Y+4369840D01*
X-3069840Y+5140160D01*
X-5840160Y+5140160D01*
X-5840160Y+4369840D01*
D52*
X-4824753Y+4616342D02*
X-4824753Y+4893657D01*
X-4686096Y+4755000D01*
X-4547439Y+4893657D01*
X-4547439Y+4616342D01*
X-4362562Y+4801219D02*
X-4270124Y+4893657D01*
X-4270124Y+4616342D01*
D28*
X-3295250Y+5384750D02*
X-2604750Y+5384750D01*
X-2604750Y+5575250D01*
X-3295250Y+5575250D01*
X-3295250Y+5384750D01*
D50*
X-3178600Y+5445710D02*
X-3178600Y+5514290D01*
X-3110020Y+5514290D01*
X-3178600Y+5480000D02*
X-3132880Y+5480000D01*
X-3087160Y+5514290D02*
X-3087160Y+5445710D01*
X-3018580Y+5445710D01*
X-2995720Y+5445710D02*
X-2995720Y+5491430D01*
X-2972860Y+5514290D01*
X-2950000Y+5514290D01*
X-2927140Y+5491430D01*
X-2927140Y+5445710D01*
X-2995720Y+5468570D02*
X-2927140Y+5468570D01*
X-2904280Y+5457140D02*
X-2892850Y+5445710D01*
X-2847130Y+5445710D01*
X-2835700Y+5457140D01*
X-2835700Y+5468570D01*
X-2847130Y+5480000D01*
X-2892850Y+5480000D01*
X-2904280Y+5491430D01*
X-2904280Y+5502860D01*
X-2892850Y+5514290D01*
X-2847130Y+5514290D01*
X-2835700Y+5502860D01*
X-2812840Y+5445710D02*
X-2812840Y+5514290D01*
X-2744260Y+5514290D02*
X-2744260Y+5445710D01*
X-2812840Y+5480000D02*
X-2744260Y+5480000D01*
D28*
X-2317660Y+5376500D02*
X+1131660Y+5376500D01*
X+1131660Y+6265500D01*
X-2317660Y+6265500D01*
X-2317660Y+5376500D01*
D53*
X-1019720Y+5981020D02*
X-1019720Y+5714320D01*
X-966380Y+5660980D01*
X-753020Y+5660980D01*
X-699680Y+5714320D01*
X-699680Y+5981020D01*
X-486320Y+5874340D02*
X-379640Y+5981020D01*
X-379640Y+5660980D01*
D28*
X-2239000Y+4253000D02*
X-1485000Y+4253000D01*
X-1485000Y+4507000D01*
X-2239000Y+4507000D01*
X-2239000Y+4253000D01*
D54*
X-1983920Y+4334280D02*
X-1983920Y+4425720D01*
X-1922960Y+4425720D01*
X-1892480Y+4395240D01*
X-1892480Y+4364760D01*
X-1922960Y+4334280D01*
X-1983920Y+4334280D01*
X-1831520Y+4395240D02*
X-1801040Y+4425720D01*
X-1801040Y+4334280D01*
D28*
X-1259000Y+4263000D02*
X-505000Y+4263000D01*
X-505000Y+4517000D01*
X-1259000Y+4517000D01*
X-1259000Y+4263000D01*
D54*
X-1003920Y+4344280D02*
X-1003920Y+4435720D01*
X-942960Y+4435720D01*
X-912480Y+4405240D01*
X-912480Y+4374760D01*
X-942960Y+4344280D01*
X-1003920Y+4344280D01*
X-866760Y+4420480D02*
X-851520Y+4435720D01*
X-805800Y+4435720D01*
X-790560Y+4420480D01*
X-790560Y+4405240D01*
X-805800Y+4390000D01*
X-851520Y+4390000D01*
X-866760Y+4374760D01*
X-866760Y+4344280D01*
X-790560Y+4344280D01*
D28*
X-229000Y+4263000D02*
X+525000Y+4263000D01*
X+525000Y+4517000D01*
X-229000Y+4517000D01*
X-229000Y+4263000D01*
D54*
X+26080Y+4344280D02*
X+26080Y+4435720D01*
X+87040Y+4435720D01*
X+117520Y+4405240D01*
X+117520Y+4374760D01*
X+87040Y+4344280D01*
X+26080Y+4344280D01*
X+163240Y+4420480D02*
X+178480Y+4435720D01*
X+224200Y+4435720D01*
X+239440Y+4420480D01*
X+239440Y+4405240D01*
X+224200Y+4390000D01*
X+239440Y+4374760D01*
X+239440Y+4359520D01*
X+224200Y+4344280D01*
X+178480Y+4344280D01*
X+163240Y+4359520D01*
X+193720Y+4390000D02*
X+224200Y+4390000D01*
D28*
X+851000Y+4253000D02*
X+1605000Y+4253000D01*
X+1605000Y+4507000D01*
X+851000Y+4507000D01*
X+851000Y+4253000D01*
D54*
X+1106080Y+4334280D02*
X+1106080Y+4425720D01*
X+1167040Y+4425720D01*
X+1197520Y+4395240D01*
X+1197520Y+4364760D01*
X+1167040Y+4334280D01*
X+1106080Y+4334280D01*
X+1319440Y+4364760D02*
X+1228000Y+4364760D01*
X+1288960Y+4425720D01*
X+1288960Y+4334280D01*
D28*
X-2199000Y+6723000D02*
X-945000Y+6723000D01*
X-945000Y+6977000D01*
X-2199000Y+6977000D01*
X-2199000Y+6723000D01*
D54*
X-1693920Y+6804280D02*
X-1693920Y+6895720D01*
X-1632960Y+6895720D01*
X-1602480Y+6865240D01*
X-1602480Y+6834760D01*
X-1632960Y+6804280D01*
X-1693920Y+6804280D01*
X-1480560Y+6895720D02*
X-1556760Y+6895720D01*
X-1556760Y+6865240D01*
X-1495800Y+6865240D01*
X-1480560Y+6850000D01*
X-1480560Y+6819520D01*
X-1495800Y+6804280D01*
X-1541520Y+6804280D01*
X-1556760Y+6819520D01*
D28*
X+1364750Y+5524750D02*
X+1555250Y+5524750D01*
X+1555250Y+6215250D01*
X+1364750Y+6215250D01*
X+1364750Y+5524750D01*
D50*
X+1494290Y+5778560D02*
X+1425710Y+5778560D01*
X+1425710Y+5835710D01*
X+1437140Y+5847140D01*
X+1448570Y+5847140D01*
X+1460000Y+5835710D01*
X+1471430Y+5847140D01*
X+1482860Y+5847140D01*
X+1494290Y+5835710D01*
X+1494290Y+5778560D01*
X+1460000Y+5778560D02*
X+1460000Y+5835710D01*
X+1437140Y+5938580D02*
X+1425710Y+5927150D01*
X+1425710Y+5892860D01*
X+1437140Y+5881430D01*
X+1482860Y+5881430D01*
X+1494290Y+5892860D01*
X+1494290Y+5927150D01*
X+1482860Y+5938580D01*
X+1471430Y+5938580D01*
X+1460000Y+5927150D01*
X+1460000Y+5881430D01*
D28*
X-2309160Y+4872840D02*
X-764840Y+4872840D01*
X-764840Y+5147160D01*
X-2309160Y+5147160D01*
X-2309160Y+4872840D01*
D51*
X-1668673Y+4993540D02*
X-1668673Y+4977081D01*
X-1652214Y+4960622D01*
X-1586378Y+4960622D01*
X-1569919Y+4977081D01*
X-1569919Y+5059377D01*
X-1520541Y+5042918D02*
X-1504082Y+5059377D01*
X-1454705Y+5059377D01*
X-1438246Y+5042918D01*
X-1438246Y+5026459D01*
X-1454705Y+5010000D01*
X-1504082Y+5010000D01*
X-1520541Y+4993540D01*
X-1520541Y+4960622D01*
X-1438246Y+4960622D01*
D55*
X-177000Y+5205000D02*
X-367000Y+5205000D01*
X-367000Y+5115000D01*
X-177000Y+5115000D01*
X-177000Y+5205000D01*
X-272000Y+5135000D02*
X-272000Y+5185000D01*
X-297000Y+5160000D02*
X-247000Y+5160000D01*
D56*
X-317600Y+5142900D02*
X-317600Y+5177100D01*
X-289100Y+5177100D01*
X-283400Y+5171400D01*
X-283400Y+5165700D01*
X-289100Y+5160000D01*
X-317600Y+5160000D01*
X-289100Y+5160000D02*
X-283400Y+5154300D01*
X-283400Y+5142900D01*
X-266300Y+5171400D02*
X-260600Y+5177100D01*
X-243500Y+5177100D01*
X-237800Y+5171400D01*
X-237800Y+5165700D01*
X-243500Y+5160000D01*
X-237800Y+5154300D01*
X-237800Y+5148600D01*
X-243500Y+5142900D01*
X-260600Y+5142900D01*
X-266300Y+5148600D01*
X-254900Y+5160000D02*
X-243500Y+5160000D01*
D55*
X+93000Y+5195000D02*
X-97000Y+5195000D01*
X-97000Y+5105000D01*
X+93000Y+5105000D01*
X+93000Y+5195000D01*
X-2000Y+5125000D02*
X-2000Y+5175000D01*
X-27000Y+5150000D02*
X+23000Y+5150000D01*
D56*
X-47600Y+5132900D02*
X-47600Y+5167100D01*
X-19100Y+5167100D01*
X-13400Y+5161400D01*
X-13400Y+5155700D01*
X-19100Y+5150000D01*
X-47600Y+5150000D01*
X-19100Y+5150000D02*
X-13400Y+5144300D01*
X-13400Y+5132900D01*
X+32200Y+5144300D02*
X-2000Y+5144300D01*
X+20800Y+5167100D01*
X+20800Y+5132900D01*
D55*
X+353000Y+5195000D02*
X+163000Y+5195000D01*
X+163000Y+5105000D01*
X+353000Y+5105000D01*
X+353000Y+5195000D01*
X+258000Y+5125000D02*
X+258000Y+5175000D01*
X+233000Y+5150000D02*
X+283000Y+5150000D01*
D56*
X+212400Y+5132900D02*
X+212400Y+5167100D01*
X+240900Y+5167100D01*
X+246600Y+5161400D01*
X+246600Y+5155700D01*
X+240900Y+5150000D01*
X+212400Y+5150000D01*
X+240900Y+5150000D02*
X+246600Y+5144300D01*
X+246600Y+5132900D01*
X+292200Y+5167100D02*
X+263700Y+5167100D01*
X+263700Y+5155700D01*
X+286500Y+5155700D01*
X+292200Y+5150000D01*
X+292200Y+5138600D01*
X+286500Y+5132900D01*
X+269400Y+5132900D01*
X+263700Y+5138600D01*
D55*
X-237000Y+6025000D02*
X-427000Y+6025000D01*
X-427000Y+5935000D01*
X-237000Y+5935000D01*
X-237000Y+6025000D01*
X-332000Y+5955000D02*
X-332000Y+6005000D01*
X-357000Y+5980000D02*
X-307000Y+5980000D01*
D56*
X-377600Y+5962900D02*
X-377600Y+5997100D01*
X-349100Y+5997100D01*
X-343400Y+5991400D01*
X-343400Y+5985700D01*
X-349100Y+5980000D01*
X-377600Y+5980000D01*
X-349100Y+5980000D02*
X-343400Y+5974300D01*
X-343400Y+5962900D01*
X-297800Y+5991400D02*
X-303500Y+5997100D01*
X-320600Y+5997100D01*
X-326300Y+5991400D01*
X-326300Y+5968600D01*
X-320600Y+5962900D01*
X-303500Y+5962900D01*
X-297800Y+5968600D01*
X-297800Y+5974300D01*
X-303500Y+5980000D01*
X-326300Y+5980000D01*
D55*
X+623000Y+5195000D02*
X+433000Y+5195000D01*
X+433000Y+5105000D01*
X+623000Y+5105000D01*
X+623000Y+5195000D01*
X+528000Y+5125000D02*
X+528000Y+5175000D01*
X+503000Y+5150000D02*
X+553000Y+5150000D01*
D56*
X+482400Y+5132900D02*
X+482400Y+5167100D01*
X+510900Y+5167100D01*
X+516600Y+5161400D01*
X+516600Y+5155700D01*
X+510900Y+5150000D01*
X+482400Y+5150000D01*
X+510900Y+5150000D02*
X+516600Y+5144300D01*
X+516600Y+5132900D01*
X+562200Y+5155700D02*
X+556500Y+5150000D01*
X+539400Y+5150000D01*
X+533700Y+5155700D01*
X+533700Y+5161400D01*
X+539400Y+5167100D01*
X+556500Y+5167100D01*
X+562200Y+5161400D01*
X+562200Y+5138600D01*
X+556500Y+5132900D01*
X+539400Y+5132900D01*
D55*
X+1223000Y+6035000D02*
X+1033000Y+6035000D01*
X+1033000Y+5945000D01*
X+1223000Y+5945000D01*
X+1223000Y+6035000D01*
X+1128000Y+5965000D02*
X+1128000Y+6015000D01*
X+1103000Y+5990000D02*
X+1153000Y+5990000D01*
D57*
X+1069500Y+5975375D02*
X+1069500Y+6004625D01*
X+1093875Y+6004625D01*
X+1098750Y+5999750D01*
X+1098750Y+5994875D01*
X+1093875Y+5990000D01*
X+1069500Y+5990000D01*
X+1093875Y+5990000D02*
X+1098750Y+5985125D01*
X+1098750Y+5975375D01*
X+1118250Y+5994875D02*
X+1128000Y+6004625D01*
X+1128000Y+5975375D01*
X+1152375Y+5999750D02*
X+1157250Y+6004625D01*
X+1171875Y+6004625D01*
X+1176750Y+5999750D01*
X+1176750Y+5994875D01*
X+1171875Y+5990000D01*
X+1176750Y+5985125D01*
X+1176750Y+5980250D01*
X+1171875Y+5975375D01*
X+1157250Y+5975375D01*
X+1152375Y+5980250D01*
X+1162125Y+5990000D02*
X+1171875Y+5990000D01*
D55*
X+93000Y+6035000D02*
X-97000Y+6035000D01*
X-97000Y+5945000D01*
X+93000Y+5945000D01*
X+93000Y+6035000D01*
X-2000Y+5965000D02*
X-2000Y+6015000D01*
X-27000Y+5990000D02*
X+23000Y+5990000D01*
D57*
X-60500Y+5975375D02*
X-60500Y+6004625D01*
X-36125Y+6004625D01*
X-31250Y+5999750D01*
X-31250Y+5994875D01*
X-36125Y+5990000D01*
X-60500Y+5990000D01*
X-36125Y+5990000D02*
X-31250Y+5985125D01*
X-31250Y+5975375D01*
X-11750Y+5994875D02*
X-2000Y+6004625D01*
X-2000Y+5975375D01*
X+22375Y+5999750D02*
X+27250Y+6004625D01*
X+41875Y+6004625D01*
X+46750Y+5999750D01*
X+46750Y+5994875D01*
X+41875Y+5990000D01*
X+27250Y+5990000D01*
X+22375Y+5985125D01*
X+22375Y+5975375D01*
X+46750Y+5975375D01*
D28*
X+457840Y+6489840D02*
X+2048160Y+6489840D01*
X+2048160Y+7420160D01*
X+457840Y+7420160D01*
X+457840Y+6489840D01*
D58*
X+828916Y+6901989D02*
X+828916Y+6848978D01*
X+881926Y+6795968D01*
X+1093968Y+6795968D01*
X+1146979Y+6848978D01*
X+1146979Y+7114031D01*
X+1359021Y+7008010D02*
X+1465042Y+7114031D01*
X+1465042Y+6795968D01*
D28*
X-649748Y+6602252D02*
X-134252Y+6602252D01*
X-134252Y+7117748D01*
X-649748Y+7117748D01*
X-649748Y+6602252D01*
D59*
X-529465Y+6808450D02*
X-529465Y+6911549D01*
X-460733Y+6911549D01*
X-426367Y+6877183D01*
X-426367Y+6842816D01*
X-460733Y+6808450D01*
X-529465Y+6808450D01*
X-288902Y+6894366D02*
X-306085Y+6911549D01*
X-357634Y+6911549D01*
X-374817Y+6894366D01*
X-374817Y+6825633D01*
X-357634Y+6808450D01*
X-306085Y+6808450D01*
X-288902Y+6825633D01*
X-288902Y+6842816D01*
X-306085Y+6860000D01*
X-374817Y+6860000D01*
D55*
X+293000Y+6915000D02*
X+103000Y+6915000D01*
X+103000Y+6825000D01*
X+293000Y+6825000D01*
X+293000Y+6915000D01*
X+198000Y+6845000D02*
X+198000Y+6895000D01*
X+173000Y+6870000D02*
X+223000Y+6870000D01*
D56*
X+152400Y+6852900D02*
X+152400Y+6887100D01*
X+180900Y+6887100D01*
X+186600Y+6881400D01*
X+186600Y+6875700D01*
X+180900Y+6870000D01*
X+152400Y+6870000D01*
X+180900Y+6870000D02*
X+186600Y+6864300D01*
X+186600Y+6852900D01*
X+203700Y+6887100D02*
X+232200Y+6887100D01*
X+232200Y+6881400D01*
X+203700Y+6852900D01*
D25*
X-6900000Y+7560000D02*
X+1920000Y+7560000D01*
X-6900000Y+7560000D02*
X-6900000Y+3440000D01*
X+1920000Y+7560000D02*
X+1920000Y+3940000D01*
X-6900000Y+3440000D02*
X-2090000Y+3440000D01*
X-2090000Y+3940000D01*
X+1920000Y+3940000D01*
M02*
