G04 PROTEUS GERBER X2 FILE*
%TF.GenerationSoftware,Labcenter,Proteus,8.6-SP2-Build23525*%
%TF.CreationDate,2019-05-24T14:24:23+00:00*%
%TF.FileFunction,Plated,1,2,PTH*%
%TF.FilePolarity,Positive*%
%TF.Part,Single*%
%FSLAX45Y45*%
%MOMM*%
G01*
%TA.AperFunction,ViaDrill*%
%ADD60C,0.254000*%
%TA.AperFunction,ComponentDrill*%
%ADD61C,1.016000*%
%TA.AperFunction,ComponentDrill*%
%ADD62C,0.762000*%
%TA.AperFunction,ComponentDrill*%
%ADD63C,1.270000*%
%TA.AperFunction,ComponentDrill*%
%ADD64C,3.000000*%
%TA.AperFunction,OtherDrill,Unknown*%
%ADD65C,3.050000*%
%TD.AperFunction*%
D60*
X-5201923Y+7056296D03*
X-5197920Y+6647975D03*
X-5866758Y+5629206D03*
X-5866758Y+6005884D03*
X-4210000Y+6070000D03*
X-3676233Y+5645859D03*
X-3690000Y+5990000D03*
X-4174438Y+6251245D03*
X-3015176Y+7051596D03*
X-2924007Y+6580387D03*
D61*
X-6390000Y+6710000D03*
X-6390000Y+7210000D03*
X-3370000Y+6680000D03*
X-3370000Y+6426000D03*
X-3370000Y+6172000D03*
X-3370000Y+5918000D03*
X-2740000Y+7000000D03*
X-2740000Y+6746000D03*
X-2740000Y+6492000D03*
X-2740000Y+6238000D03*
X-6340000Y+6300000D03*
X-6340000Y+6046000D03*
X-6340000Y+5792000D03*
X-6340000Y+5538000D03*
X-6340000Y+5284000D03*
X-6340000Y+5030000D03*
X-6340000Y+4776000D03*
X-6340000Y+4522000D03*
X-3330000Y+4880000D03*
D62*
X-3330000Y+4630000D03*
D61*
X-5530000Y+4880000D03*
D62*
X-5530000Y+4630000D03*
D61*
X-2700000Y+5480000D03*
X-3200000Y+5480000D03*
X+1060000Y+6202000D03*
X+806000Y+6202000D03*
X+552000Y+6202000D03*
X+298000Y+6202000D03*
X+44000Y+6202000D03*
X-210000Y+6202000D03*
X-464000Y+6202000D03*
X-718000Y+6202000D03*
X-972000Y+6202000D03*
X-1226000Y+6202000D03*
X-1480000Y+6202000D03*
X-1734000Y+6202000D03*
X-1988000Y+6202000D03*
X-2242000Y+6202000D03*
X-2242000Y+5440000D03*
X-1988000Y+5440000D03*
X-1734000Y+5440000D03*
X-1480000Y+5440000D03*
X-1226000Y+5440000D03*
X-972000Y+5440000D03*
X-718000Y+5440000D03*
X-464000Y+5440000D03*
X-210000Y+5440000D03*
X+44000Y+5440000D03*
X+298000Y+5440000D03*
X+552000Y+5440000D03*
X+806000Y+5440000D03*
X+1058000Y+5440000D03*
D63*
X-1612000Y+4380000D03*
X-2112000Y+4380000D03*
X-632000Y+4390000D03*
X-1132000Y+4390000D03*
X+398000Y+4390000D03*
X-102000Y+4390000D03*
X+1478000Y+4380000D03*
X+978000Y+4380000D03*
X-1072000Y+6850000D03*
X-1572000Y+6850000D03*
X-2072000Y+6850000D03*
D61*
X+1460000Y+5620000D03*
X+1460000Y+6120000D03*
X-902000Y+5010000D03*
X-1156000Y+5010000D03*
X-1410000Y+5010000D03*
X-1664000Y+5010000D03*
X-1918000Y+5010000D03*
X-2172000Y+5010000D03*
D64*
X+668000Y+6910000D03*
X+1368000Y+6910000D03*
D62*
X-502000Y+6850000D03*
X-252000Y+6850000D03*
D65*
X-6360000Y+3870000D03*
X-2760000Y+3880000D03*
M02*
