G04 PROTEUS GERBER X2 FILE*
%TF.GenerationSoftware,Labcenter,Proteus,8.6-SP2-Build23525*%
%TF.CreationDate,2019-05-24T14:24:23+00:00*%
%TF.FileFunction,Paste,Top*%
%TF.FilePolarity,Positive*%
%TF.Part,Single*%
%FSLAX45Y45*%
%MOMM*%
G01*
%TA.AperFunction,Material*%
%ADD45R,2.540000X1.270000*%
%ADD46R,1.270000X2.540000*%
%TA.AperFunction,Material*%
%ADD47R,0.558800X0.609600*%
%TA.AperFunction,Profile*%
%ADD25C,0.203200*%
%TD.AperFunction*%
D45*
X-5520000Y+7060000D03*
X-5520000Y+6860000D03*
X-5520000Y+6660000D03*
X-5520000Y+6460000D03*
X-5520000Y+6260000D03*
X-5520000Y+6060000D03*
X-5520000Y+5860000D03*
X-5520000Y+5660000D03*
D46*
X-5220000Y+5510000D03*
X-5020000Y+5510000D03*
X-4820000Y+5510000D03*
X-4620000Y+5510000D03*
X-4420000Y+5510000D03*
X-4220000Y+5510000D03*
D45*
X-3920000Y+5660000D03*
X-3920000Y+5860000D03*
X-3920000Y+6060000D03*
X-3920000Y+6260000D03*
X-3920000Y+6460000D03*
X-3920000Y+6660000D03*
X-3920000Y+6860000D03*
X-3920000Y+7060000D03*
D47*
X-222000Y+5160000D03*
X-322000Y+5160000D03*
X+48000Y+5150000D03*
X-52000Y+5150000D03*
X+308000Y+5150000D03*
X+208000Y+5150000D03*
X-282000Y+5980000D03*
X-382000Y+5980000D03*
X+578000Y+5150000D03*
X+478000Y+5150000D03*
X+1178000Y+5990000D03*
X+1078000Y+5990000D03*
X+48000Y+5990000D03*
X-52000Y+5990000D03*
X+248000Y+6870000D03*
X+148000Y+6870000D03*
D25*
X-6900000Y+7560000D02*
X+1920000Y+7560000D01*
X-6900000Y+7560000D02*
X-6900000Y+3440000D01*
X+1920000Y+7560000D02*
X+1920000Y+3940000D01*
X-6900000Y+3440000D02*
X-2090000Y+3440000D01*
X-2090000Y+3940000D01*
X+1920000Y+3940000D01*
M02*
