G04 PROTEUS GERBER X2 FILE*
%TF.GenerationSoftware,Labcenter,Proteus,8.6-SP2-Build23525*%
%TF.CreationDate,2019-05-24T14:24:23+00:00*%
%TF.FileFunction,AssemblyDrawing,Bot*%
%TF.FilePolarity,Positive*%
%TF.Part,Single*%
%FSLAX45Y45*%
%MOMM*%
G01*
%TA.AperFunction,Material*%
%ADD55C,0.050000*%
%ADD56C,0.057000*%
%TA.AperFunction,Profile*%
%ADD25C,0.203200*%
%TD.AperFunction*%
D55*
X-5155000Y+6925000D02*
X-5155000Y+6735000D01*
X-5245000Y+6735000D01*
X-5245000Y+6925000D01*
X-5155000Y+6925000D01*
X-5225000Y+6830000D02*
X-5175000Y+6830000D01*
X-5200000Y+6805000D02*
X-5200000Y+6855000D01*
D56*
X-5182900Y+6875600D02*
X-5217100Y+6875600D01*
X-5217100Y+6847100D01*
X-5211400Y+6841400D01*
X-5205700Y+6841400D01*
X-5200000Y+6847100D01*
X-5200000Y+6875600D01*
X-5200000Y+6847100D02*
X-5194300Y+6841400D01*
X-5182900Y+6841400D01*
X-5205700Y+6818600D02*
X-5217100Y+6807200D01*
X-5182900Y+6807200D01*
D55*
X-3535000Y+5835000D02*
X-3725000Y+5835000D01*
X-3725000Y+5925000D01*
X-3535000Y+5925000D01*
X-3535000Y+5835000D01*
X-3630000Y+5905000D02*
X-3630000Y+5855000D01*
X-3655000Y+5880000D02*
X-3605000Y+5880000D01*
D56*
X-3584400Y+5862900D02*
X-3584400Y+5897100D01*
X-3612900Y+5897100D01*
X-3618600Y+5891400D01*
X-3618600Y+5885700D01*
X-3612900Y+5880000D01*
X-3584400Y+5880000D01*
X-3612900Y+5880000D02*
X-3618600Y+5874300D01*
X-3618600Y+5862900D01*
X-3635700Y+5891400D02*
X-3641400Y+5897100D01*
X-3658500Y+5897100D01*
X-3664200Y+5891400D01*
X-3664200Y+5885700D01*
X-3658500Y+5880000D01*
X-3641400Y+5880000D01*
X-3635700Y+5874300D01*
X-3635700Y+5862900D01*
X-3664200Y+5862900D01*
D25*
X-6900000Y+7560000D02*
X+1920000Y+7560000D01*
X-6900000Y+7560000D02*
X-6900000Y+3440000D01*
X+1920000Y+7560000D02*
X+1920000Y+3940000D01*
X-6900000Y+3440000D02*
X-2090000Y+3440000D01*
X-2090000Y+3940000D01*
X+1920000Y+3940000D01*
M02*
